G04 EAGLE Gerber RS-274X export*
G75*
%MOMM*%
%FSLAX34Y34*%
%LPD*%
%INCopper Layer 2*%
%IPPOS*%
%AMOC8*
5,1,8,0,0,1.08239X$1,22.5*%
G01*
G04 Define Apertures*
%ADD10C,1.244600*%
%ADD11C,1.288000*%
%ADD12C,3.220000*%
%ADD13C,1.400000*%
%ADD14C,4.016000*%
%ADD15C,1.960000*%
%ADD16C,4.191000*%
G36*
X1266685Y2641D02*
X1266190Y2540D01*
X3810Y2540D01*
X3352Y2625D01*
X2926Y2898D01*
X2641Y3315D01*
X2540Y3810D01*
X2540Y1012190D01*
X2625Y1012648D01*
X2898Y1013074D01*
X3315Y1013359D01*
X3810Y1013460D01*
X1266190Y1013460D01*
X1266648Y1013375D01*
X1267074Y1013102D01*
X1267359Y1012685D01*
X1267460Y1012190D01*
X1267460Y3810D01*
X1267375Y3352D01*
X1267102Y2926D01*
X1266685Y2641D01*
G37*
%LPC*%
G36*
X1214527Y954405D02*
X1223874Y954405D01*
X1232509Y957982D01*
X1239118Y964591D01*
X1242695Y973227D01*
X1242695Y982574D01*
X1239118Y991209D01*
X1232509Y997818D01*
X1223874Y1001395D01*
X1214527Y1001395D01*
X1205891Y997818D01*
X1199282Y991209D01*
X1195705Y982574D01*
X1195705Y973227D01*
X1199282Y964591D01*
X1205891Y957982D01*
X1214527Y954405D01*
G37*
G36*
X46127Y954405D02*
X55474Y954405D01*
X64109Y957982D01*
X70718Y964591D01*
X74295Y973227D01*
X74295Y982574D01*
X70718Y991209D01*
X64109Y997818D01*
X55474Y1001395D01*
X46127Y1001395D01*
X37491Y997818D01*
X30882Y991209D01*
X27305Y982574D01*
X27305Y973227D01*
X30882Y964591D01*
X37491Y957982D01*
X46127Y954405D01*
G37*
G36*
X692731Y927340D02*
X701729Y927340D01*
X710043Y930784D01*
X716406Y937147D01*
X719850Y945461D01*
X719850Y954459D01*
X716406Y962773D01*
X710043Y969136D01*
X701729Y972580D01*
X692731Y972580D01*
X684417Y969136D01*
X678054Y962773D01*
X674610Y954459D01*
X674610Y945461D01*
X678054Y937147D01*
X684417Y930784D01*
X692731Y927340D01*
G37*
G36*
X121231Y927340D02*
X130229Y927340D01*
X138543Y930784D01*
X144906Y937147D01*
X148350Y945461D01*
X148350Y954459D01*
X144906Y962773D01*
X138543Y969136D01*
X130229Y972580D01*
X121231Y972580D01*
X112917Y969136D01*
X106554Y962773D01*
X103110Y954459D01*
X103110Y945461D01*
X106554Y937147D01*
X112917Y930784D01*
X121231Y927340D01*
G37*
G36*
X650882Y940420D02*
X654678Y940420D01*
X658184Y941872D01*
X660868Y944556D01*
X662320Y948062D01*
X662320Y951858D01*
X660868Y955364D01*
X658184Y958048D01*
X654678Y959500D01*
X650882Y959500D01*
X647376Y958048D01*
X644692Y955364D01*
X643240Y951858D01*
X643240Y948062D01*
X644692Y944556D01*
X647376Y941872D01*
X650882Y940420D01*
G37*
G36*
X625482Y940420D02*
X629278Y940420D01*
X632784Y941872D01*
X635468Y944556D01*
X636920Y948062D01*
X636920Y951858D01*
X635468Y955364D01*
X632784Y958048D01*
X629278Y959500D01*
X625482Y959500D01*
X621976Y958048D01*
X619292Y955364D01*
X617840Y951858D01*
X617840Y948062D01*
X619292Y944556D01*
X621976Y941872D01*
X625482Y940420D01*
G37*
G36*
X600082Y940420D02*
X603878Y940420D01*
X607384Y941872D01*
X610068Y944556D01*
X611520Y948062D01*
X611520Y951858D01*
X610068Y955364D01*
X607384Y958048D01*
X603878Y959500D01*
X600082Y959500D01*
X596576Y958048D01*
X593892Y955364D01*
X592440Y951858D01*
X592440Y948062D01*
X593892Y944556D01*
X596576Y941872D01*
X600082Y940420D01*
G37*
G36*
X574682Y940420D02*
X578478Y940420D01*
X581984Y941872D01*
X584668Y944556D01*
X586120Y948062D01*
X586120Y951858D01*
X584668Y955364D01*
X581984Y958048D01*
X578478Y959500D01*
X574682Y959500D01*
X571176Y958048D01*
X568492Y955364D01*
X567040Y951858D01*
X567040Y948062D01*
X568492Y944556D01*
X571176Y941872D01*
X574682Y940420D01*
G37*
G36*
X549282Y940420D02*
X553078Y940420D01*
X556584Y941872D01*
X559268Y944556D01*
X560720Y948062D01*
X560720Y951858D01*
X559268Y955364D01*
X556584Y958048D01*
X553078Y959500D01*
X549282Y959500D01*
X545776Y958048D01*
X543092Y955364D01*
X541640Y951858D01*
X541640Y948062D01*
X543092Y944556D01*
X545776Y941872D01*
X549282Y940420D01*
G37*
G36*
X523882Y940420D02*
X527678Y940420D01*
X531184Y941872D01*
X533868Y944556D01*
X535320Y948062D01*
X535320Y951858D01*
X533868Y955364D01*
X531184Y958048D01*
X527678Y959500D01*
X523882Y959500D01*
X520376Y958048D01*
X517692Y955364D01*
X516240Y951858D01*
X516240Y948062D01*
X517692Y944556D01*
X520376Y941872D01*
X523882Y940420D01*
G37*
G36*
X498482Y940420D02*
X502278Y940420D01*
X505784Y941872D01*
X508468Y944556D01*
X509920Y948062D01*
X509920Y951858D01*
X508468Y955364D01*
X505784Y958048D01*
X502278Y959500D01*
X498482Y959500D01*
X494976Y958048D01*
X492292Y955364D01*
X490840Y951858D01*
X490840Y948062D01*
X492292Y944556D01*
X494976Y941872D01*
X498482Y940420D01*
G37*
G36*
X473082Y940420D02*
X476878Y940420D01*
X480384Y941872D01*
X483068Y944556D01*
X484520Y948062D01*
X484520Y951858D01*
X483068Y955364D01*
X480384Y958048D01*
X476878Y959500D01*
X473082Y959500D01*
X469576Y958048D01*
X466892Y955364D01*
X465440Y951858D01*
X465440Y948062D01*
X466892Y944556D01*
X469576Y941872D01*
X473082Y940420D01*
G37*
G36*
X447682Y940420D02*
X451478Y940420D01*
X454984Y941872D01*
X457668Y944556D01*
X459120Y948062D01*
X459120Y951858D01*
X457668Y955364D01*
X454984Y958048D01*
X451478Y959500D01*
X447682Y959500D01*
X444176Y958048D01*
X441492Y955364D01*
X440040Y951858D01*
X440040Y948062D01*
X441492Y944556D01*
X444176Y941872D01*
X447682Y940420D01*
G37*
G36*
X422282Y940420D02*
X426078Y940420D01*
X429584Y941872D01*
X432268Y944556D01*
X433720Y948062D01*
X433720Y951858D01*
X432268Y955364D01*
X429584Y958048D01*
X426078Y959500D01*
X422282Y959500D01*
X418776Y958048D01*
X416092Y955364D01*
X414640Y951858D01*
X414640Y948062D01*
X416092Y944556D01*
X418776Y941872D01*
X422282Y940420D01*
G37*
G36*
X396882Y940420D02*
X400678Y940420D01*
X404184Y941872D01*
X406868Y944556D01*
X408320Y948062D01*
X408320Y951858D01*
X406868Y955364D01*
X404184Y958048D01*
X400678Y959500D01*
X396882Y959500D01*
X393376Y958048D01*
X390692Y955364D01*
X389240Y951858D01*
X389240Y948062D01*
X390692Y944556D01*
X393376Y941872D01*
X396882Y940420D01*
G37*
G36*
X371482Y940420D02*
X375278Y940420D01*
X378784Y941872D01*
X381468Y944556D01*
X382920Y948062D01*
X382920Y951858D01*
X381468Y955364D01*
X378784Y958048D01*
X375278Y959500D01*
X371482Y959500D01*
X367976Y958048D01*
X365292Y955364D01*
X363840Y951858D01*
X363840Y948062D01*
X365292Y944556D01*
X367976Y941872D01*
X371482Y940420D01*
G37*
G36*
X346082Y940420D02*
X349878Y940420D01*
X353384Y941872D01*
X356068Y944556D01*
X357520Y948062D01*
X357520Y951858D01*
X356068Y955364D01*
X353384Y958048D01*
X349878Y959500D01*
X346082Y959500D01*
X342576Y958048D01*
X339892Y955364D01*
X338440Y951858D01*
X338440Y948062D01*
X339892Y944556D01*
X342576Y941872D01*
X346082Y940420D01*
G37*
G36*
X320682Y940420D02*
X324478Y940420D01*
X327984Y941872D01*
X330668Y944556D01*
X332120Y948062D01*
X332120Y951858D01*
X330668Y955364D01*
X327984Y958048D01*
X324478Y959500D01*
X320682Y959500D01*
X317176Y958048D01*
X314492Y955364D01*
X313040Y951858D01*
X313040Y948062D01*
X314492Y944556D01*
X317176Y941872D01*
X320682Y940420D01*
G37*
G36*
X295282Y940420D02*
X299078Y940420D01*
X302584Y941872D01*
X305268Y944556D01*
X306720Y948062D01*
X306720Y951858D01*
X305268Y955364D01*
X302584Y958048D01*
X299078Y959500D01*
X295282Y959500D01*
X291776Y958048D01*
X289092Y955364D01*
X287640Y951858D01*
X287640Y948062D01*
X289092Y944556D01*
X291776Y941872D01*
X295282Y940420D01*
G37*
G36*
X269882Y940420D02*
X273678Y940420D01*
X277184Y941872D01*
X279868Y944556D01*
X281320Y948062D01*
X281320Y951858D01*
X279868Y955364D01*
X277184Y958048D01*
X273678Y959500D01*
X269882Y959500D01*
X266376Y958048D01*
X263692Y955364D01*
X262240Y951858D01*
X262240Y948062D01*
X263692Y944556D01*
X266376Y941872D01*
X269882Y940420D01*
G37*
G36*
X244482Y940420D02*
X248278Y940420D01*
X251784Y941872D01*
X254468Y944556D01*
X255920Y948062D01*
X255920Y951858D01*
X254468Y955364D01*
X251784Y958048D01*
X248278Y959500D01*
X244482Y959500D01*
X240976Y958048D01*
X238292Y955364D01*
X236840Y951858D01*
X236840Y948062D01*
X238292Y944556D01*
X240976Y941872D01*
X244482Y940420D01*
G37*
G36*
X219082Y940420D02*
X222878Y940420D01*
X226384Y941872D01*
X229068Y944556D01*
X230520Y948062D01*
X230520Y951858D01*
X229068Y955364D01*
X226384Y958048D01*
X222878Y959500D01*
X219082Y959500D01*
X215576Y958048D01*
X212892Y955364D01*
X211440Y951858D01*
X211440Y948062D01*
X212892Y944556D01*
X215576Y941872D01*
X219082Y940420D01*
G37*
G36*
X193682Y940420D02*
X197478Y940420D01*
X200984Y941872D01*
X203668Y944556D01*
X205120Y948062D01*
X205120Y951858D01*
X203668Y955364D01*
X200984Y958048D01*
X197478Y959500D01*
X193682Y959500D01*
X190176Y958048D01*
X187492Y955364D01*
X186040Y951858D01*
X186040Y948062D01*
X187492Y944556D01*
X190176Y941872D01*
X193682Y940420D01*
G37*
G36*
X168282Y940420D02*
X172078Y940420D01*
X175584Y941872D01*
X178268Y944556D01*
X179720Y948062D01*
X179720Y951858D01*
X178268Y955364D01*
X175584Y958048D01*
X172078Y959500D01*
X168282Y959500D01*
X164776Y958048D01*
X162092Y955364D01*
X160640Y951858D01*
X160640Y948062D01*
X162092Y944556D01*
X164776Y941872D01*
X168282Y940420D01*
G37*
G36*
X1139985Y823212D02*
X1143471Y823212D01*
X1146692Y824546D01*
X1149157Y827011D01*
X1150491Y830232D01*
X1150491Y833718D01*
X1149157Y836939D01*
X1146692Y839404D01*
X1143471Y840738D01*
X1139985Y840738D01*
X1136764Y839404D01*
X1134299Y836939D01*
X1132965Y833718D01*
X1132965Y830232D01*
X1134299Y827011D01*
X1136764Y824546D01*
X1139985Y823212D01*
G37*
G36*
X1114585Y823212D02*
X1118071Y823212D01*
X1121292Y824546D01*
X1123757Y827011D01*
X1125091Y830232D01*
X1125091Y833718D01*
X1123757Y836939D01*
X1121292Y839404D01*
X1118071Y840738D01*
X1114585Y840738D01*
X1111364Y839404D01*
X1108899Y836939D01*
X1107565Y833718D01*
X1107565Y830232D01*
X1108899Y827011D01*
X1111364Y824546D01*
X1114585Y823212D01*
G37*
G36*
X1089185Y823212D02*
X1092671Y823212D01*
X1095892Y824546D01*
X1098357Y827011D01*
X1099691Y830232D01*
X1099691Y833718D01*
X1098357Y836939D01*
X1095892Y839404D01*
X1092671Y840738D01*
X1089185Y840738D01*
X1085964Y839404D01*
X1083499Y836939D01*
X1082165Y833718D01*
X1082165Y830232D01*
X1083499Y827011D01*
X1085964Y824546D01*
X1089185Y823212D01*
G37*
G36*
X1063785Y823212D02*
X1067271Y823212D01*
X1070492Y824546D01*
X1072957Y827011D01*
X1074291Y830232D01*
X1074291Y833718D01*
X1072957Y836939D01*
X1070492Y839404D01*
X1067271Y840738D01*
X1063785Y840738D01*
X1060564Y839404D01*
X1058099Y836939D01*
X1056765Y833718D01*
X1056765Y830232D01*
X1058099Y827011D01*
X1060564Y824546D01*
X1063785Y823212D01*
G37*
G36*
X1038385Y823212D02*
X1041871Y823212D01*
X1045092Y824546D01*
X1047557Y827011D01*
X1048891Y830232D01*
X1048891Y833718D01*
X1047557Y836939D01*
X1045092Y839404D01*
X1041871Y840738D01*
X1038385Y840738D01*
X1035164Y839404D01*
X1032699Y836939D01*
X1031365Y833718D01*
X1031365Y830232D01*
X1032699Y827011D01*
X1035164Y824546D01*
X1038385Y823212D01*
G37*
G36*
X1012985Y823212D02*
X1016471Y823212D01*
X1019692Y824546D01*
X1022157Y827011D01*
X1023491Y830232D01*
X1023491Y833718D01*
X1022157Y836939D01*
X1019692Y839404D01*
X1016471Y840738D01*
X1012985Y840738D01*
X1009764Y839404D01*
X1007299Y836939D01*
X1005965Y833718D01*
X1005965Y830232D01*
X1007299Y827011D01*
X1009764Y824546D01*
X1012985Y823212D01*
G37*
G36*
X987585Y823212D02*
X991071Y823212D01*
X994292Y824546D01*
X996757Y827011D01*
X998091Y830232D01*
X998091Y833718D01*
X996757Y836939D01*
X994292Y839404D01*
X991071Y840738D01*
X987585Y840738D01*
X984364Y839404D01*
X981899Y836939D01*
X980565Y833718D01*
X980565Y830232D01*
X981899Y827011D01*
X984364Y824546D01*
X987585Y823212D01*
G37*
G36*
X962185Y823212D02*
X965671Y823212D01*
X968892Y824546D01*
X971357Y827011D01*
X972691Y830232D01*
X972691Y833718D01*
X971357Y836939D01*
X968892Y839404D01*
X965671Y840738D01*
X962185Y840738D01*
X958964Y839404D01*
X956499Y836939D01*
X955165Y833718D01*
X955165Y830232D01*
X956499Y827011D01*
X958964Y824546D01*
X962185Y823212D01*
G37*
G36*
X936785Y823212D02*
X940271Y823212D01*
X943492Y824546D01*
X945957Y827011D01*
X947291Y830232D01*
X947291Y833718D01*
X945957Y836939D01*
X943492Y839404D01*
X940271Y840738D01*
X936785Y840738D01*
X933564Y839404D01*
X931099Y836939D01*
X929765Y833718D01*
X929765Y830232D01*
X931099Y827011D01*
X933564Y824546D01*
X936785Y823212D01*
G37*
G36*
X911385Y823212D02*
X914871Y823212D01*
X918092Y824546D01*
X920557Y827011D01*
X921891Y830232D01*
X921891Y833718D01*
X920557Y836939D01*
X918092Y839404D01*
X914871Y840738D01*
X911385Y840738D01*
X908164Y839404D01*
X905699Y836939D01*
X904365Y833718D01*
X904365Y830232D01*
X905699Y827011D01*
X908164Y824546D01*
X911385Y823212D01*
G37*
G36*
X885985Y823212D02*
X889471Y823212D01*
X892692Y824546D01*
X895157Y827011D01*
X896491Y830232D01*
X896491Y833718D01*
X895157Y836939D01*
X892692Y839404D01*
X889471Y840738D01*
X885985Y840738D01*
X882764Y839404D01*
X880299Y836939D01*
X878965Y833718D01*
X878965Y830232D01*
X880299Y827011D01*
X882764Y824546D01*
X885985Y823212D01*
G37*
G36*
X860585Y823212D02*
X864071Y823212D01*
X867292Y824546D01*
X869757Y827011D01*
X871091Y830232D01*
X871091Y833718D01*
X869757Y836939D01*
X867292Y839404D01*
X864071Y840738D01*
X860585Y840738D01*
X857364Y839404D01*
X854899Y836939D01*
X853565Y833718D01*
X853565Y830232D01*
X854899Y827011D01*
X857364Y824546D01*
X860585Y823212D01*
G37*
G36*
X835185Y823212D02*
X838671Y823212D01*
X841892Y824546D01*
X844357Y827011D01*
X845691Y830232D01*
X845691Y833718D01*
X844357Y836939D01*
X841892Y839404D01*
X838671Y840738D01*
X835185Y840738D01*
X831964Y839404D01*
X829499Y836939D01*
X828165Y833718D01*
X828165Y830232D01*
X829499Y827011D01*
X831964Y824546D01*
X835185Y823212D01*
G37*
G36*
X809785Y823212D02*
X813271Y823212D01*
X816492Y824546D01*
X818957Y827011D01*
X820291Y830232D01*
X820291Y833718D01*
X818957Y836939D01*
X816492Y839404D01*
X813271Y840738D01*
X809785Y840738D01*
X806564Y839404D01*
X804099Y836939D01*
X802765Y833718D01*
X802765Y830232D01*
X804099Y827011D01*
X806564Y824546D01*
X809785Y823212D01*
G37*
G36*
X784385Y823212D02*
X787871Y823212D01*
X791092Y824546D01*
X793557Y827011D01*
X794891Y830232D01*
X794891Y833718D01*
X793557Y836939D01*
X791092Y839404D01*
X787871Y840738D01*
X784385Y840738D01*
X781164Y839404D01*
X778699Y836939D01*
X777365Y833718D01*
X777365Y830232D01*
X778699Y827011D01*
X781164Y824546D01*
X784385Y823212D01*
G37*
G36*
X758985Y823212D02*
X762471Y823212D01*
X765692Y824546D01*
X768157Y827011D01*
X769491Y830232D01*
X769491Y833718D01*
X768157Y836939D01*
X765692Y839404D01*
X762471Y840738D01*
X758985Y840738D01*
X755764Y839404D01*
X753299Y836939D01*
X751965Y833718D01*
X751965Y830232D01*
X753299Y827011D01*
X755764Y824546D01*
X758985Y823212D01*
G37*
G36*
X733585Y823212D02*
X737071Y823212D01*
X740292Y824546D01*
X742757Y827011D01*
X744091Y830232D01*
X744091Y833718D01*
X742757Y836939D01*
X740292Y839404D01*
X737071Y840738D01*
X733585Y840738D01*
X730364Y839404D01*
X727899Y836939D01*
X726565Y833718D01*
X726565Y830232D01*
X727899Y827011D01*
X730364Y824546D01*
X733585Y823212D01*
G37*
G36*
X708185Y823212D02*
X711671Y823212D01*
X714892Y824546D01*
X717357Y827011D01*
X718691Y830232D01*
X718691Y833718D01*
X717357Y836939D01*
X714892Y839404D01*
X711671Y840738D01*
X708185Y840738D01*
X704964Y839404D01*
X702499Y836939D01*
X701165Y833718D01*
X701165Y830232D01*
X702499Y827011D01*
X704964Y824546D01*
X708185Y823212D01*
G37*
G36*
X1139985Y797812D02*
X1143471Y797812D01*
X1146692Y799146D01*
X1149157Y801611D01*
X1150491Y804832D01*
X1150491Y808318D01*
X1149157Y811539D01*
X1146692Y814004D01*
X1143471Y815338D01*
X1139985Y815338D01*
X1136764Y814004D01*
X1134299Y811539D01*
X1132965Y808318D01*
X1132965Y804832D01*
X1134299Y801611D01*
X1136764Y799146D01*
X1139985Y797812D01*
G37*
G36*
X1114585Y797812D02*
X1118071Y797812D01*
X1121292Y799146D01*
X1123757Y801611D01*
X1125091Y804832D01*
X1125091Y808318D01*
X1123757Y811539D01*
X1121292Y814004D01*
X1118071Y815338D01*
X1114585Y815338D01*
X1111364Y814004D01*
X1108899Y811539D01*
X1107565Y808318D01*
X1107565Y804832D01*
X1108899Y801611D01*
X1111364Y799146D01*
X1114585Y797812D01*
G37*
G36*
X1089185Y797812D02*
X1092671Y797812D01*
X1095892Y799146D01*
X1098357Y801611D01*
X1099691Y804832D01*
X1099691Y808318D01*
X1098357Y811539D01*
X1095892Y814004D01*
X1092671Y815338D01*
X1089185Y815338D01*
X1085964Y814004D01*
X1083499Y811539D01*
X1082165Y808318D01*
X1082165Y804832D01*
X1083499Y801611D01*
X1085964Y799146D01*
X1089185Y797812D01*
G37*
G36*
X1063785Y797812D02*
X1067271Y797812D01*
X1070492Y799146D01*
X1072957Y801611D01*
X1074291Y804832D01*
X1074291Y808318D01*
X1072957Y811539D01*
X1070492Y814004D01*
X1067271Y815338D01*
X1063785Y815338D01*
X1060564Y814004D01*
X1058099Y811539D01*
X1056765Y808318D01*
X1056765Y804832D01*
X1058099Y801611D01*
X1060564Y799146D01*
X1063785Y797812D01*
G37*
G36*
X1038385Y797812D02*
X1041871Y797812D01*
X1045092Y799146D01*
X1047557Y801611D01*
X1048891Y804832D01*
X1048891Y808318D01*
X1047557Y811539D01*
X1045092Y814004D01*
X1041871Y815338D01*
X1038385Y815338D01*
X1035164Y814004D01*
X1032699Y811539D01*
X1031365Y808318D01*
X1031365Y804832D01*
X1032699Y801611D01*
X1035164Y799146D01*
X1038385Y797812D01*
G37*
G36*
X1012985Y797812D02*
X1016471Y797812D01*
X1019692Y799146D01*
X1022157Y801611D01*
X1023491Y804832D01*
X1023491Y808318D01*
X1022157Y811539D01*
X1019692Y814004D01*
X1016471Y815338D01*
X1012985Y815338D01*
X1009764Y814004D01*
X1007299Y811539D01*
X1005965Y808318D01*
X1005965Y804832D01*
X1007299Y801611D01*
X1009764Y799146D01*
X1012985Y797812D01*
G37*
G36*
X987585Y797812D02*
X991071Y797812D01*
X994292Y799146D01*
X996757Y801611D01*
X998091Y804832D01*
X998091Y808318D01*
X996757Y811539D01*
X994292Y814004D01*
X991071Y815338D01*
X987585Y815338D01*
X984364Y814004D01*
X981899Y811539D01*
X980565Y808318D01*
X980565Y804832D01*
X981899Y801611D01*
X984364Y799146D01*
X987585Y797812D01*
G37*
G36*
X955165Y807845D02*
X962658Y807845D01*
X962658Y815338D01*
X962185Y815338D01*
X958964Y814004D01*
X956499Y811539D01*
X955165Y808318D01*
X955165Y807845D01*
G37*
G36*
X936785Y797812D02*
X940271Y797812D01*
X943492Y799146D01*
X945957Y801611D01*
X947291Y804832D01*
X947291Y808318D01*
X945957Y811539D01*
X943492Y814004D01*
X940271Y815338D01*
X936785Y815338D01*
X933564Y814004D01*
X931099Y811539D01*
X929765Y808318D01*
X929765Y804832D01*
X931099Y801611D01*
X933564Y799146D01*
X936785Y797812D01*
G37*
G36*
X911385Y797812D02*
X914871Y797812D01*
X918092Y799146D01*
X920557Y801611D01*
X921891Y804832D01*
X921891Y808318D01*
X920557Y811539D01*
X918092Y814004D01*
X914871Y815338D01*
X911385Y815338D01*
X908164Y814004D01*
X905699Y811539D01*
X904365Y808318D01*
X904365Y804832D01*
X905699Y801611D01*
X908164Y799146D01*
X911385Y797812D01*
G37*
G36*
X878965Y807845D02*
X886458Y807845D01*
X886458Y815338D01*
X885985Y815338D01*
X882764Y814004D01*
X880299Y811539D01*
X878965Y808318D01*
X878965Y807845D01*
G37*
G36*
X860585Y797812D02*
X864071Y797812D01*
X867292Y799146D01*
X869757Y801611D01*
X871091Y804832D01*
X871091Y808318D01*
X869757Y811539D01*
X867292Y814004D01*
X864071Y815338D01*
X860585Y815338D01*
X857364Y814004D01*
X854899Y811539D01*
X853565Y808318D01*
X853565Y804832D01*
X854899Y801611D01*
X857364Y799146D01*
X860585Y797812D01*
G37*
G36*
X835185Y797812D02*
X838671Y797812D01*
X841892Y799146D01*
X844357Y801611D01*
X845691Y804832D01*
X845691Y808318D01*
X844357Y811539D01*
X841892Y814004D01*
X838671Y815338D01*
X835185Y815338D01*
X831964Y814004D01*
X829499Y811539D01*
X828165Y808318D01*
X828165Y804832D01*
X829499Y801611D01*
X831964Y799146D01*
X835185Y797812D01*
G37*
G36*
X809785Y797812D02*
X813271Y797812D01*
X816492Y799146D01*
X818957Y801611D01*
X820291Y804832D01*
X820291Y808318D01*
X818957Y811539D01*
X816492Y814004D01*
X813271Y815338D01*
X809785Y815338D01*
X806564Y814004D01*
X804099Y811539D01*
X802765Y808318D01*
X802765Y804832D01*
X804099Y801611D01*
X806564Y799146D01*
X809785Y797812D01*
G37*
G36*
X784385Y797812D02*
X787871Y797812D01*
X791092Y799146D01*
X793557Y801611D01*
X794891Y804832D01*
X794891Y808318D01*
X793557Y811539D01*
X791092Y814004D01*
X787871Y815338D01*
X784385Y815338D01*
X781164Y814004D01*
X778699Y811539D01*
X777365Y808318D01*
X777365Y804832D01*
X778699Y801611D01*
X781164Y799146D01*
X784385Y797812D01*
G37*
G36*
X758985Y797812D02*
X762471Y797812D01*
X765692Y799146D01*
X768157Y801611D01*
X769491Y804832D01*
X769491Y808318D01*
X768157Y811539D01*
X765692Y814004D01*
X762471Y815338D01*
X758985Y815338D01*
X755764Y814004D01*
X753299Y811539D01*
X751965Y808318D01*
X751965Y804832D01*
X753299Y801611D01*
X755764Y799146D01*
X758985Y797812D01*
G37*
G36*
X733585Y797812D02*
X737071Y797812D01*
X740292Y799146D01*
X742757Y801611D01*
X744091Y804832D01*
X744091Y808318D01*
X742757Y811539D01*
X740292Y814004D01*
X737071Y815338D01*
X733585Y815338D01*
X730364Y814004D01*
X727899Y811539D01*
X726565Y808318D01*
X726565Y804832D01*
X727899Y801611D01*
X730364Y799146D01*
X733585Y797812D01*
G37*
G36*
X708185Y797812D02*
X711671Y797812D01*
X714892Y799146D01*
X717357Y801611D01*
X718691Y804832D01*
X718691Y808318D01*
X717357Y811539D01*
X714892Y814004D01*
X711671Y815338D01*
X708185Y815338D01*
X704964Y814004D01*
X702499Y811539D01*
X701165Y808318D01*
X701165Y804832D01*
X702499Y801611D01*
X704964Y799146D01*
X708185Y797812D01*
G37*
G36*
X888998Y807845D02*
X896491Y807845D01*
X896491Y808318D01*
X895157Y811539D01*
X892692Y814004D01*
X889471Y815338D01*
X888998Y815338D01*
X888998Y807845D01*
G37*
G36*
X965198Y807845D02*
X972691Y807845D01*
X972691Y808318D01*
X971357Y811539D01*
X968892Y814004D01*
X965671Y815338D01*
X965198Y815338D01*
X965198Y807845D01*
G37*
G36*
X965198Y797812D02*
X965671Y797812D01*
X968892Y799146D01*
X971357Y801611D01*
X972691Y804832D01*
X972691Y805305D01*
X965198Y805305D01*
X965198Y797812D01*
G37*
G36*
X962185Y797812D02*
X962658Y797812D01*
X962658Y805305D01*
X955165Y805305D01*
X955165Y804832D01*
X956499Y801611D01*
X958964Y799146D01*
X962185Y797812D01*
G37*
G36*
X888998Y797812D02*
X889471Y797812D01*
X892692Y799146D01*
X895157Y801611D01*
X896491Y804832D01*
X896491Y805305D01*
X888998Y805305D01*
X888998Y797812D01*
G37*
G36*
X885985Y797812D02*
X886458Y797812D01*
X886458Y805305D01*
X878965Y805305D01*
X878965Y804832D01*
X880299Y801611D01*
X882764Y799146D01*
X885985Y797812D01*
G37*
G36*
X1139985Y569212D02*
X1143471Y569212D01*
X1146692Y570546D01*
X1149157Y573011D01*
X1150491Y576232D01*
X1150491Y579718D01*
X1149157Y582939D01*
X1146692Y585404D01*
X1143471Y586738D01*
X1139985Y586738D01*
X1136764Y585404D01*
X1134299Y582939D01*
X1132965Y579718D01*
X1132965Y576232D01*
X1134299Y573011D01*
X1136764Y570546D01*
X1139985Y569212D01*
G37*
G36*
X1114585Y569212D02*
X1118071Y569212D01*
X1121292Y570546D01*
X1123757Y573011D01*
X1125091Y576232D01*
X1125091Y579718D01*
X1123757Y582939D01*
X1121292Y585404D01*
X1118071Y586738D01*
X1114585Y586738D01*
X1111364Y585404D01*
X1108899Y582939D01*
X1107565Y579718D01*
X1107565Y576232D01*
X1108899Y573011D01*
X1111364Y570546D01*
X1114585Y569212D01*
G37*
G36*
X1089185Y569212D02*
X1092671Y569212D01*
X1095892Y570546D01*
X1098357Y573011D01*
X1099691Y576232D01*
X1099691Y579718D01*
X1098357Y582939D01*
X1095892Y585404D01*
X1092671Y586738D01*
X1089185Y586738D01*
X1085964Y585404D01*
X1083499Y582939D01*
X1082165Y579718D01*
X1082165Y576232D01*
X1083499Y573011D01*
X1085964Y570546D01*
X1089185Y569212D01*
G37*
G36*
X1063785Y569212D02*
X1067271Y569212D01*
X1070492Y570546D01*
X1072957Y573011D01*
X1074291Y576232D01*
X1074291Y579718D01*
X1072957Y582939D01*
X1070492Y585404D01*
X1067271Y586738D01*
X1063785Y586738D01*
X1060564Y585404D01*
X1058099Y582939D01*
X1056765Y579718D01*
X1056765Y576232D01*
X1058099Y573011D01*
X1060564Y570546D01*
X1063785Y569212D01*
G37*
G36*
X1038385Y569212D02*
X1041871Y569212D01*
X1045092Y570546D01*
X1047557Y573011D01*
X1048891Y576232D01*
X1048891Y579718D01*
X1047557Y582939D01*
X1045092Y585404D01*
X1041871Y586738D01*
X1038385Y586738D01*
X1035164Y585404D01*
X1032699Y582939D01*
X1031365Y579718D01*
X1031365Y576232D01*
X1032699Y573011D01*
X1035164Y570546D01*
X1038385Y569212D01*
G37*
G36*
X1012985Y569212D02*
X1016471Y569212D01*
X1019692Y570546D01*
X1022157Y573011D01*
X1023491Y576232D01*
X1023491Y579718D01*
X1022157Y582939D01*
X1019692Y585404D01*
X1016471Y586738D01*
X1012985Y586738D01*
X1009764Y585404D01*
X1007299Y582939D01*
X1005965Y579718D01*
X1005965Y576232D01*
X1007299Y573011D01*
X1009764Y570546D01*
X1012985Y569212D01*
G37*
G36*
X987585Y569212D02*
X991071Y569212D01*
X994292Y570546D01*
X996757Y573011D01*
X998091Y576232D01*
X998091Y579718D01*
X996757Y582939D01*
X994292Y585404D01*
X991071Y586738D01*
X987585Y586738D01*
X984364Y585404D01*
X981899Y582939D01*
X980565Y579718D01*
X980565Y576232D01*
X981899Y573011D01*
X984364Y570546D01*
X987585Y569212D01*
G37*
G36*
X955165Y579245D02*
X962658Y579245D01*
X962658Y586738D01*
X962185Y586738D01*
X958964Y585404D01*
X956499Y582939D01*
X955165Y579718D01*
X955165Y579245D01*
G37*
G36*
X936785Y569212D02*
X940271Y569212D01*
X943492Y570546D01*
X945957Y573011D01*
X947291Y576232D01*
X947291Y579718D01*
X945957Y582939D01*
X943492Y585404D01*
X940271Y586738D01*
X936785Y586738D01*
X933564Y585404D01*
X931099Y582939D01*
X929765Y579718D01*
X929765Y576232D01*
X931099Y573011D01*
X933564Y570546D01*
X936785Y569212D01*
G37*
G36*
X911385Y569212D02*
X914871Y569212D01*
X918092Y570546D01*
X920557Y573011D01*
X921891Y576232D01*
X921891Y579718D01*
X920557Y582939D01*
X918092Y585404D01*
X914871Y586738D01*
X911385Y586738D01*
X908164Y585404D01*
X905699Y582939D01*
X904365Y579718D01*
X904365Y576232D01*
X905699Y573011D01*
X908164Y570546D01*
X911385Y569212D01*
G37*
G36*
X878965Y579245D02*
X886458Y579245D01*
X886458Y586738D01*
X885985Y586738D01*
X882764Y585404D01*
X880299Y582939D01*
X878965Y579718D01*
X878965Y579245D01*
G37*
G36*
X860585Y569212D02*
X864071Y569212D01*
X867292Y570546D01*
X869757Y573011D01*
X871091Y576232D01*
X871091Y579718D01*
X869757Y582939D01*
X867292Y585404D01*
X864071Y586738D01*
X860585Y586738D01*
X857364Y585404D01*
X854899Y582939D01*
X853565Y579718D01*
X853565Y576232D01*
X854899Y573011D01*
X857364Y570546D01*
X860585Y569212D01*
G37*
G36*
X835185Y569212D02*
X838671Y569212D01*
X841892Y570546D01*
X844357Y573011D01*
X845691Y576232D01*
X845691Y579718D01*
X844357Y582939D01*
X841892Y585404D01*
X838671Y586738D01*
X835185Y586738D01*
X831964Y585404D01*
X829499Y582939D01*
X828165Y579718D01*
X828165Y576232D01*
X829499Y573011D01*
X831964Y570546D01*
X835185Y569212D01*
G37*
G36*
X809785Y569212D02*
X813271Y569212D01*
X816492Y570546D01*
X818957Y573011D01*
X820291Y576232D01*
X820291Y579718D01*
X818957Y582939D01*
X816492Y585404D01*
X813271Y586738D01*
X809785Y586738D01*
X806564Y585404D01*
X804099Y582939D01*
X802765Y579718D01*
X802765Y576232D01*
X804099Y573011D01*
X806564Y570546D01*
X809785Y569212D01*
G37*
G36*
X784385Y569212D02*
X787871Y569212D01*
X791092Y570546D01*
X793557Y573011D01*
X794891Y576232D01*
X794891Y579718D01*
X793557Y582939D01*
X791092Y585404D01*
X787871Y586738D01*
X784385Y586738D01*
X781164Y585404D01*
X778699Y582939D01*
X777365Y579718D01*
X777365Y576232D01*
X778699Y573011D01*
X781164Y570546D01*
X784385Y569212D01*
G37*
G36*
X758985Y569212D02*
X762471Y569212D01*
X765692Y570546D01*
X768157Y573011D01*
X769491Y576232D01*
X769491Y579718D01*
X768157Y582939D01*
X765692Y585404D01*
X762471Y586738D01*
X758985Y586738D01*
X755764Y585404D01*
X753299Y582939D01*
X751965Y579718D01*
X751965Y576232D01*
X753299Y573011D01*
X755764Y570546D01*
X758985Y569212D01*
G37*
G36*
X733585Y569212D02*
X737071Y569212D01*
X740292Y570546D01*
X742757Y573011D01*
X744091Y576232D01*
X744091Y579718D01*
X742757Y582939D01*
X740292Y585404D01*
X737071Y586738D01*
X733585Y586738D01*
X730364Y585404D01*
X727899Y582939D01*
X726565Y579718D01*
X726565Y576232D01*
X727899Y573011D01*
X730364Y570546D01*
X733585Y569212D01*
G37*
G36*
X708185Y569212D02*
X711671Y569212D01*
X714892Y570546D01*
X717357Y573011D01*
X718691Y576232D01*
X718691Y579718D01*
X717357Y582939D01*
X714892Y585404D01*
X711671Y586738D01*
X708185Y586738D01*
X704964Y585404D01*
X702499Y582939D01*
X701165Y579718D01*
X701165Y576232D01*
X702499Y573011D01*
X704964Y570546D01*
X708185Y569212D01*
G37*
G36*
X888998Y579245D02*
X896491Y579245D01*
X896491Y579718D01*
X895157Y582939D01*
X892692Y585404D01*
X889471Y586738D01*
X888998Y586738D01*
X888998Y579245D01*
G37*
G36*
X965198Y579245D02*
X972691Y579245D01*
X972691Y579718D01*
X971357Y582939D01*
X968892Y585404D01*
X965671Y586738D01*
X965198Y586738D01*
X965198Y579245D01*
G37*
G36*
X965198Y569212D02*
X965671Y569212D01*
X968892Y570546D01*
X971357Y573011D01*
X972691Y576232D01*
X972691Y576705D01*
X965198Y576705D01*
X965198Y569212D01*
G37*
G36*
X962185Y569212D02*
X962658Y569212D01*
X962658Y576705D01*
X955165Y576705D01*
X955165Y576232D01*
X956499Y573011D01*
X958964Y570546D01*
X962185Y569212D01*
G37*
G36*
X888998Y569212D02*
X889471Y569212D01*
X892692Y570546D01*
X895157Y573011D01*
X896491Y576232D01*
X896491Y576705D01*
X888998Y576705D01*
X888998Y569212D01*
G37*
G36*
X885985Y569212D02*
X886458Y569212D01*
X886458Y576705D01*
X878965Y576705D01*
X878965Y576232D01*
X880299Y573011D01*
X882764Y570546D01*
X885985Y569212D01*
G37*
G36*
X980565Y553845D02*
X988058Y553845D01*
X988058Y561338D01*
X987585Y561338D01*
X984364Y560004D01*
X981899Y557539D01*
X980565Y554318D01*
X980565Y553845D01*
G37*
G36*
X955165Y553845D02*
X962658Y553845D01*
X962658Y561338D01*
X962185Y561338D01*
X958964Y560004D01*
X956499Y557539D01*
X955165Y554318D01*
X955165Y553845D01*
G37*
G36*
X936785Y543812D02*
X940271Y543812D01*
X943492Y545146D01*
X945957Y547611D01*
X947291Y550832D01*
X947291Y554318D01*
X945957Y557539D01*
X943492Y560004D01*
X940271Y561338D01*
X936785Y561338D01*
X933564Y560004D01*
X931099Y557539D01*
X929765Y554318D01*
X929765Y550832D01*
X931099Y547611D01*
X933564Y545146D01*
X936785Y543812D01*
G37*
G36*
X911385Y543812D02*
X914871Y543812D01*
X918092Y545146D01*
X920557Y547611D01*
X921891Y550832D01*
X921891Y554318D01*
X920557Y557539D01*
X918092Y560004D01*
X914871Y561338D01*
X911385Y561338D01*
X908164Y560004D01*
X905699Y557539D01*
X904365Y554318D01*
X904365Y550832D01*
X905699Y547611D01*
X908164Y545146D01*
X911385Y543812D01*
G37*
G36*
X885985Y543812D02*
X889471Y543812D01*
X892692Y545146D01*
X895157Y547611D01*
X896491Y550832D01*
X896491Y554318D01*
X895157Y557539D01*
X892692Y560004D01*
X889471Y561338D01*
X885985Y561338D01*
X882764Y560004D01*
X880299Y557539D01*
X878965Y554318D01*
X878965Y550832D01*
X880299Y547611D01*
X882764Y545146D01*
X885985Y543812D01*
G37*
G36*
X860585Y543812D02*
X864071Y543812D01*
X867292Y545146D01*
X869757Y547611D01*
X871091Y550832D01*
X871091Y554318D01*
X869757Y557539D01*
X867292Y560004D01*
X864071Y561338D01*
X860585Y561338D01*
X857364Y560004D01*
X854899Y557539D01*
X853565Y554318D01*
X853565Y550832D01*
X854899Y547611D01*
X857364Y545146D01*
X860585Y543812D01*
G37*
G36*
X835185Y543812D02*
X838671Y543812D01*
X841892Y545146D01*
X844357Y547611D01*
X845691Y550832D01*
X845691Y554318D01*
X844357Y557539D01*
X841892Y560004D01*
X838671Y561338D01*
X835185Y561338D01*
X831964Y560004D01*
X829499Y557539D01*
X828165Y554318D01*
X828165Y550832D01*
X829499Y547611D01*
X831964Y545146D01*
X835185Y543812D01*
G37*
G36*
X809785Y543812D02*
X813271Y543812D01*
X816492Y545146D01*
X818957Y547611D01*
X820291Y550832D01*
X820291Y554318D01*
X818957Y557539D01*
X816492Y560004D01*
X813271Y561338D01*
X809785Y561338D01*
X806564Y560004D01*
X804099Y557539D01*
X802765Y554318D01*
X802765Y550832D01*
X804099Y547611D01*
X806564Y545146D01*
X809785Y543812D01*
G37*
G36*
X784385Y543812D02*
X787871Y543812D01*
X791092Y545146D01*
X793557Y547611D01*
X794891Y550832D01*
X794891Y554318D01*
X793557Y557539D01*
X791092Y560004D01*
X787871Y561338D01*
X784385Y561338D01*
X781164Y560004D01*
X778699Y557539D01*
X777365Y554318D01*
X777365Y550832D01*
X778699Y547611D01*
X781164Y545146D01*
X784385Y543812D01*
G37*
G36*
X758985Y543812D02*
X762471Y543812D01*
X765692Y545146D01*
X768157Y547611D01*
X769491Y550832D01*
X769491Y554318D01*
X768157Y557539D01*
X765692Y560004D01*
X762471Y561338D01*
X758985Y561338D01*
X755764Y560004D01*
X753299Y557539D01*
X751965Y554318D01*
X751965Y550832D01*
X753299Y547611D01*
X755764Y545146D01*
X758985Y543812D01*
G37*
G36*
X733585Y543812D02*
X737071Y543812D01*
X740292Y545146D01*
X742757Y547611D01*
X744091Y550832D01*
X744091Y554318D01*
X742757Y557539D01*
X740292Y560004D01*
X737071Y561338D01*
X733585Y561338D01*
X730364Y560004D01*
X727899Y557539D01*
X726565Y554318D01*
X726565Y550832D01*
X727899Y547611D01*
X730364Y545146D01*
X733585Y543812D01*
G37*
G36*
X708185Y543812D02*
X711671Y543812D01*
X714892Y545146D01*
X717357Y547611D01*
X718691Y550832D01*
X718691Y554318D01*
X717357Y557539D01*
X714892Y560004D01*
X711671Y561338D01*
X708185Y561338D01*
X704964Y560004D01*
X702499Y557539D01*
X701165Y554318D01*
X701165Y550832D01*
X702499Y547611D01*
X704964Y545146D01*
X708185Y543812D01*
G37*
G36*
X1139985Y543812D02*
X1143471Y543812D01*
X1146692Y545146D01*
X1149157Y547611D01*
X1150491Y550832D01*
X1150491Y554318D01*
X1149157Y557539D01*
X1146692Y560004D01*
X1143471Y561338D01*
X1139985Y561338D01*
X1136764Y560004D01*
X1134299Y557539D01*
X1132965Y554318D01*
X1132965Y550832D01*
X1134299Y547611D01*
X1136764Y545146D01*
X1139985Y543812D01*
G37*
G36*
X1114585Y543812D02*
X1118071Y543812D01*
X1121292Y545146D01*
X1123757Y547611D01*
X1125091Y550832D01*
X1125091Y554318D01*
X1123757Y557539D01*
X1121292Y560004D01*
X1118071Y561338D01*
X1114585Y561338D01*
X1111364Y560004D01*
X1108899Y557539D01*
X1107565Y554318D01*
X1107565Y550832D01*
X1108899Y547611D01*
X1111364Y545146D01*
X1114585Y543812D01*
G37*
G36*
X1089185Y543812D02*
X1092671Y543812D01*
X1095892Y545146D01*
X1098357Y547611D01*
X1099691Y550832D01*
X1099691Y554318D01*
X1098357Y557539D01*
X1095892Y560004D01*
X1092671Y561338D01*
X1089185Y561338D01*
X1085964Y560004D01*
X1083499Y557539D01*
X1082165Y554318D01*
X1082165Y550832D01*
X1083499Y547611D01*
X1085964Y545146D01*
X1089185Y543812D01*
G37*
G36*
X1063785Y543812D02*
X1067271Y543812D01*
X1070492Y545146D01*
X1072957Y547611D01*
X1074291Y550832D01*
X1074291Y554318D01*
X1072957Y557539D01*
X1070492Y560004D01*
X1067271Y561338D01*
X1063785Y561338D01*
X1060564Y560004D01*
X1058099Y557539D01*
X1056765Y554318D01*
X1056765Y550832D01*
X1058099Y547611D01*
X1060564Y545146D01*
X1063785Y543812D01*
G37*
G36*
X1038385Y543812D02*
X1041871Y543812D01*
X1045092Y545146D01*
X1047557Y547611D01*
X1048891Y550832D01*
X1048891Y554318D01*
X1047557Y557539D01*
X1045092Y560004D01*
X1041871Y561338D01*
X1038385Y561338D01*
X1035164Y560004D01*
X1032699Y557539D01*
X1031365Y554318D01*
X1031365Y550832D01*
X1032699Y547611D01*
X1035164Y545146D01*
X1038385Y543812D01*
G37*
G36*
X1012985Y543812D02*
X1016471Y543812D01*
X1019692Y545146D01*
X1022157Y547611D01*
X1023491Y550832D01*
X1023491Y554318D01*
X1022157Y557539D01*
X1019692Y560004D01*
X1016471Y561338D01*
X1012985Y561338D01*
X1009764Y560004D01*
X1007299Y557539D01*
X1005965Y554318D01*
X1005965Y550832D01*
X1007299Y547611D01*
X1009764Y545146D01*
X1012985Y543812D01*
G37*
G36*
X965198Y553845D02*
X972691Y553845D01*
X972691Y554318D01*
X971357Y557539D01*
X968892Y560004D01*
X965671Y561338D01*
X965198Y561338D01*
X965198Y553845D01*
G37*
G36*
X990598Y553845D02*
X998091Y553845D01*
X998091Y554318D01*
X996757Y557539D01*
X994292Y560004D01*
X991071Y561338D01*
X990598Y561338D01*
X990598Y553845D01*
G37*
G36*
X990598Y543812D02*
X991071Y543812D01*
X994292Y545146D01*
X996757Y547611D01*
X998091Y550832D01*
X998091Y551305D01*
X990598Y551305D01*
X990598Y543812D01*
G37*
G36*
X987585Y543812D02*
X988058Y543812D01*
X988058Y551305D01*
X980565Y551305D01*
X980565Y550832D01*
X981899Y547611D01*
X984364Y545146D01*
X987585Y543812D01*
G37*
G36*
X965198Y543812D02*
X965671Y543812D01*
X968892Y545146D01*
X971357Y547611D01*
X972691Y550832D01*
X972691Y551305D01*
X965198Y551305D01*
X965198Y543812D01*
G37*
G36*
X962185Y543812D02*
X962658Y543812D01*
X962658Y551305D01*
X955165Y551305D01*
X955165Y550832D01*
X956499Y547611D01*
X958964Y545146D01*
X962185Y543812D01*
G37*
G36*
X1110301Y404783D02*
X1113874Y404783D01*
X1117174Y406150D01*
X1119701Y408676D01*
X1121068Y411976D01*
X1121068Y415549D01*
X1119701Y418849D01*
X1117174Y421376D01*
X1113874Y422743D01*
X1110301Y422743D01*
X1107001Y421376D01*
X1104475Y418849D01*
X1103108Y415549D01*
X1103108Y411976D01*
X1104475Y408676D01*
X1107001Y406150D01*
X1110301Y404783D01*
G37*
G36*
X1065301Y404783D02*
X1068874Y404783D01*
X1072174Y406150D01*
X1074701Y408676D01*
X1075914Y411606D01*
X1076155Y411982D01*
X1076565Y412278D01*
X1077057Y412390D01*
X1077555Y412301D01*
X1077979Y412025D01*
X1078261Y411606D01*
X1079475Y408676D01*
X1082001Y406150D01*
X1085301Y404783D01*
X1088874Y404783D01*
X1092174Y406150D01*
X1094701Y408676D01*
X1096068Y411976D01*
X1096068Y415549D01*
X1094701Y418849D01*
X1092174Y421376D01*
X1088874Y422743D01*
X1085301Y422743D01*
X1082001Y421376D01*
X1079475Y418849D01*
X1078261Y415919D01*
X1078021Y415544D01*
X1077611Y415248D01*
X1077118Y415135D01*
X1076621Y415224D01*
X1076197Y415500D01*
X1075914Y415919D01*
X1074701Y418849D01*
X1072174Y421376D01*
X1068874Y422743D01*
X1065301Y422743D01*
X1062001Y421376D01*
X1059475Y418849D01*
X1058108Y415549D01*
X1058108Y411976D01*
X1059475Y408676D01*
X1062001Y406150D01*
X1065301Y404783D01*
G37*
G36*
X1033108Y415033D02*
X1040818Y415033D01*
X1040818Y422743D01*
X1040301Y422743D01*
X1037001Y421376D01*
X1034475Y418849D01*
X1033108Y415549D01*
X1033108Y415033D01*
G37*
G36*
X1043358Y415033D02*
X1051068Y415033D01*
X1051068Y415549D01*
X1049701Y418849D01*
X1047174Y421376D01*
X1043874Y422743D01*
X1043358Y422743D01*
X1043358Y415033D01*
G37*
G36*
X1043358Y404783D02*
X1043874Y404783D01*
X1047174Y406150D01*
X1049701Y408676D01*
X1051068Y411976D01*
X1051068Y412493D01*
X1043358Y412493D01*
X1043358Y404783D01*
G37*
G36*
X1040301Y404783D02*
X1040818Y404783D01*
X1040818Y412493D01*
X1033108Y412493D01*
X1033108Y411976D01*
X1034475Y408676D01*
X1037001Y406150D01*
X1040301Y404783D01*
G37*
G36*
X1139080Y368023D02*
X1146496Y368023D01*
X1153346Y370860D01*
X1158590Y376104D01*
X1161428Y382955D01*
X1161428Y390370D01*
X1158590Y397221D01*
X1153346Y402465D01*
X1146496Y405303D01*
X1139080Y405303D01*
X1132229Y402465D01*
X1126986Y397221D01*
X1124148Y390370D01*
X1124148Y382955D01*
X1126986Y376104D01*
X1132229Y370860D01*
X1139080Y368023D01*
G37*
G36*
X1007680Y368023D02*
X1015096Y368023D01*
X1021946Y370860D01*
X1027190Y376104D01*
X1030028Y382955D01*
X1030028Y390370D01*
X1027190Y397221D01*
X1021946Y402465D01*
X1015096Y405303D01*
X1007680Y405303D01*
X1000829Y402465D01*
X995586Y397221D01*
X992748Y390370D01*
X992748Y382955D01*
X995586Y376104D01*
X1000829Y370860D01*
X1007680Y368023D01*
G37*
G36*
X692731Y165340D02*
X701729Y165340D01*
X710043Y168784D01*
X716406Y175147D01*
X719850Y183461D01*
X719850Y192459D01*
X716406Y200773D01*
X710043Y207136D01*
X701729Y210580D01*
X692731Y210580D01*
X684417Y207136D01*
X678054Y200773D01*
X674610Y192459D01*
X674610Y183461D01*
X678054Y175147D01*
X684417Y168784D01*
X692731Y165340D01*
G37*
G36*
X121231Y165340D02*
X130229Y165340D01*
X138543Y168784D01*
X144906Y175147D01*
X148350Y183461D01*
X148350Y192459D01*
X144906Y200773D01*
X138543Y207136D01*
X130229Y210580D01*
X121231Y210580D01*
X112917Y207136D01*
X106554Y200773D01*
X103110Y192459D01*
X103110Y183461D01*
X106554Y175147D01*
X112917Y168784D01*
X121231Y165340D01*
G37*
G36*
X447682Y178420D02*
X451478Y178420D01*
X454984Y179872D01*
X457668Y182556D01*
X459120Y186062D01*
X459120Y189858D01*
X457668Y193364D01*
X454984Y196048D01*
X451478Y197500D01*
X447682Y197500D01*
X444176Y196048D01*
X441492Y193364D01*
X440040Y189858D01*
X440040Y186062D01*
X441492Y182556D01*
X444176Y179872D01*
X447682Y178420D01*
G37*
G36*
X422282Y178420D02*
X426078Y178420D01*
X429584Y179872D01*
X432268Y182556D01*
X433720Y186062D01*
X433720Y189858D01*
X432268Y193364D01*
X429584Y196048D01*
X426078Y197500D01*
X422282Y197500D01*
X418776Y196048D01*
X416092Y193364D01*
X414640Y189858D01*
X414640Y186062D01*
X416092Y182556D01*
X418776Y179872D01*
X422282Y178420D01*
G37*
G36*
X396882Y178420D02*
X400678Y178420D01*
X404184Y179872D01*
X406868Y182556D01*
X408320Y186062D01*
X408320Y189858D01*
X406868Y193364D01*
X404184Y196048D01*
X400678Y197500D01*
X396882Y197500D01*
X393376Y196048D01*
X390692Y193364D01*
X389240Y189858D01*
X389240Y186062D01*
X390692Y182556D01*
X393376Y179872D01*
X396882Y178420D01*
G37*
G36*
X371482Y178420D02*
X375278Y178420D01*
X378784Y179872D01*
X381468Y182556D01*
X382920Y186062D01*
X382920Y189858D01*
X381468Y193364D01*
X378784Y196048D01*
X375278Y197500D01*
X371482Y197500D01*
X367976Y196048D01*
X365292Y193364D01*
X363840Y189858D01*
X363840Y186062D01*
X365292Y182556D01*
X367976Y179872D01*
X371482Y178420D01*
G37*
G36*
X346082Y178420D02*
X349878Y178420D01*
X353384Y179872D01*
X356068Y182556D01*
X357520Y186062D01*
X357520Y189858D01*
X356068Y193364D01*
X353384Y196048D01*
X349878Y197500D01*
X346082Y197500D01*
X342576Y196048D01*
X339892Y193364D01*
X338440Y189858D01*
X338440Y186062D01*
X339892Y182556D01*
X342576Y179872D01*
X346082Y178420D01*
G37*
G36*
X320682Y178420D02*
X324478Y178420D01*
X327984Y179872D01*
X330668Y182556D01*
X332120Y186062D01*
X332120Y189858D01*
X330668Y193364D01*
X327984Y196048D01*
X324478Y197500D01*
X320682Y197500D01*
X317176Y196048D01*
X314492Y193364D01*
X313040Y189858D01*
X313040Y186062D01*
X314492Y182556D01*
X317176Y179872D01*
X320682Y178420D01*
G37*
G36*
X295282Y178420D02*
X299078Y178420D01*
X302584Y179872D01*
X305268Y182556D01*
X306720Y186062D01*
X306720Y189858D01*
X305268Y193364D01*
X302584Y196048D01*
X299078Y197500D01*
X295282Y197500D01*
X291776Y196048D01*
X289092Y193364D01*
X287640Y189858D01*
X287640Y186062D01*
X289092Y182556D01*
X291776Y179872D01*
X295282Y178420D01*
G37*
G36*
X269882Y178420D02*
X273678Y178420D01*
X277184Y179872D01*
X279868Y182556D01*
X281320Y186062D01*
X281320Y189858D01*
X279868Y193364D01*
X277184Y196048D01*
X273678Y197500D01*
X269882Y197500D01*
X266376Y196048D01*
X263692Y193364D01*
X262240Y189858D01*
X262240Y186062D01*
X263692Y182556D01*
X266376Y179872D01*
X269882Y178420D01*
G37*
G36*
X244482Y178420D02*
X248278Y178420D01*
X251784Y179872D01*
X254468Y182556D01*
X255920Y186062D01*
X255920Y189858D01*
X254468Y193364D01*
X251784Y196048D01*
X248278Y197500D01*
X244482Y197500D01*
X240976Y196048D01*
X238292Y193364D01*
X236840Y189858D01*
X236840Y186062D01*
X238292Y182556D01*
X240976Y179872D01*
X244482Y178420D01*
G37*
G36*
X219082Y178420D02*
X222878Y178420D01*
X226384Y179872D01*
X229068Y182556D01*
X230520Y186062D01*
X230520Y189858D01*
X229068Y193364D01*
X226384Y196048D01*
X222878Y197500D01*
X219082Y197500D01*
X215576Y196048D01*
X212892Y193364D01*
X211440Y189858D01*
X211440Y186062D01*
X212892Y182556D01*
X215576Y179872D01*
X219082Y178420D01*
G37*
G36*
X193682Y178420D02*
X197478Y178420D01*
X200984Y179872D01*
X203668Y182556D01*
X205120Y186062D01*
X205120Y189858D01*
X203668Y193364D01*
X200984Y196048D01*
X197478Y197500D01*
X193682Y197500D01*
X190176Y196048D01*
X187492Y193364D01*
X186040Y189858D01*
X186040Y186062D01*
X187492Y182556D01*
X190176Y179872D01*
X193682Y178420D01*
G37*
G36*
X160640Y189230D02*
X168910Y189230D01*
X168910Y197500D01*
X168282Y197500D01*
X164776Y196048D01*
X162092Y193364D01*
X160640Y189858D01*
X160640Y189230D01*
G37*
G36*
X650882Y178420D02*
X654678Y178420D01*
X658184Y179872D01*
X660868Y182556D01*
X662320Y186062D01*
X662320Y189858D01*
X660868Y193364D01*
X658184Y196048D01*
X654678Y197500D01*
X650882Y197500D01*
X647376Y196048D01*
X644692Y193364D01*
X643240Y189858D01*
X643240Y186062D01*
X644692Y182556D01*
X647376Y179872D01*
X650882Y178420D01*
G37*
G36*
X625482Y178420D02*
X629278Y178420D01*
X632784Y179872D01*
X635468Y182556D01*
X636920Y186062D01*
X636920Y189858D01*
X635468Y193364D01*
X632784Y196048D01*
X629278Y197500D01*
X625482Y197500D01*
X621976Y196048D01*
X619292Y193364D01*
X617840Y189858D01*
X617840Y186062D01*
X619292Y182556D01*
X621976Y179872D01*
X625482Y178420D01*
G37*
G36*
X600082Y178420D02*
X603878Y178420D01*
X607384Y179872D01*
X610068Y182556D01*
X611520Y186062D01*
X611520Y189858D01*
X610068Y193364D01*
X607384Y196048D01*
X603878Y197500D01*
X600082Y197500D01*
X596576Y196048D01*
X593892Y193364D01*
X592440Y189858D01*
X592440Y186062D01*
X593892Y182556D01*
X596576Y179872D01*
X600082Y178420D01*
G37*
G36*
X574682Y178420D02*
X578478Y178420D01*
X581984Y179872D01*
X584668Y182556D01*
X586120Y186062D01*
X586120Y189858D01*
X584668Y193364D01*
X581984Y196048D01*
X578478Y197500D01*
X574682Y197500D01*
X571176Y196048D01*
X568492Y193364D01*
X567040Y189858D01*
X567040Y186062D01*
X568492Y182556D01*
X571176Y179872D01*
X574682Y178420D01*
G37*
G36*
X549282Y178420D02*
X553078Y178420D01*
X556584Y179872D01*
X559268Y182556D01*
X560720Y186062D01*
X560720Y189858D01*
X559268Y193364D01*
X556584Y196048D01*
X553078Y197500D01*
X549282Y197500D01*
X545776Y196048D01*
X543092Y193364D01*
X541640Y189858D01*
X541640Y186062D01*
X543092Y182556D01*
X545776Y179872D01*
X549282Y178420D01*
G37*
G36*
X523882Y178420D02*
X527678Y178420D01*
X531184Y179872D01*
X533868Y182556D01*
X535320Y186062D01*
X535320Y189858D01*
X533868Y193364D01*
X531184Y196048D01*
X527678Y197500D01*
X523882Y197500D01*
X520376Y196048D01*
X517692Y193364D01*
X516240Y189858D01*
X516240Y186062D01*
X517692Y182556D01*
X520376Y179872D01*
X523882Y178420D01*
G37*
G36*
X498482Y178420D02*
X502278Y178420D01*
X505784Y179872D01*
X508468Y182556D01*
X509920Y186062D01*
X509920Y189858D01*
X508468Y193364D01*
X505784Y196048D01*
X502278Y197500D01*
X498482Y197500D01*
X494976Y196048D01*
X492292Y193364D01*
X490840Y189858D01*
X490840Y186062D01*
X492292Y182556D01*
X494976Y179872D01*
X498482Y178420D01*
G37*
G36*
X473082Y178420D02*
X476878Y178420D01*
X480384Y179872D01*
X483068Y182556D01*
X484520Y186062D01*
X484520Y189858D01*
X483068Y193364D01*
X480384Y196048D01*
X476878Y197500D01*
X473082Y197500D01*
X469576Y196048D01*
X466892Y193364D01*
X465440Y189858D01*
X465440Y186062D01*
X466892Y182556D01*
X469576Y179872D01*
X473082Y178420D01*
G37*
G36*
X171450Y189230D02*
X179720Y189230D01*
X179720Y189858D01*
X178268Y193364D01*
X175584Y196048D01*
X172078Y197500D01*
X171450Y197500D01*
X171450Y189230D01*
G37*
G36*
X171450Y178420D02*
X172078Y178420D01*
X175584Y179872D01*
X178268Y182556D01*
X179720Y186062D01*
X179720Y186690D01*
X171450Y186690D01*
X171450Y178420D01*
G37*
G36*
X168282Y178420D02*
X168910Y178420D01*
X168910Y186690D01*
X160640Y186690D01*
X160640Y186062D01*
X162092Y182556D01*
X164776Y179872D01*
X168282Y178420D01*
G37*
G36*
X966825Y106640D02*
X971735Y106640D01*
X976270Y108519D01*
X979741Y111990D01*
X981620Y116525D01*
X981620Y121435D01*
X979741Y125970D01*
X976270Y129441D01*
X971735Y131320D01*
X966825Y131320D01*
X962290Y129441D01*
X958819Y125970D01*
X956940Y121435D01*
X956940Y116525D01*
X958819Y111990D01*
X962290Y108519D01*
X966825Y106640D01*
G37*
G36*
X841825Y106640D02*
X846735Y106640D01*
X851270Y108519D01*
X854741Y111990D01*
X856620Y116525D01*
X856620Y121435D01*
X854741Y125970D01*
X851270Y129441D01*
X846735Y131320D01*
X841825Y131320D01*
X837290Y129441D01*
X833819Y125970D01*
X831940Y121435D01*
X831940Y116525D01*
X833819Y111990D01*
X837290Y108519D01*
X841825Y106640D01*
G37*
G36*
X707408Y84820D02*
X713392Y84820D01*
X718919Y87110D01*
X723150Y91341D01*
X725440Y96868D01*
X725440Y102852D01*
X723150Y108379D01*
X718919Y112610D01*
X713392Y114900D01*
X707408Y114900D01*
X701881Y112610D01*
X697650Y108379D01*
X695360Y102852D01*
X695360Y96868D01*
X697650Y91341D01*
X701881Y87110D01*
X707408Y84820D01*
G37*
G36*
X607408Y84820D02*
X613392Y84820D01*
X618919Y87110D01*
X623150Y91341D01*
X625440Y96868D01*
X625440Y102852D01*
X623150Y108379D01*
X618919Y112610D01*
X613392Y114900D01*
X607408Y114900D01*
X601881Y112610D01*
X597650Y108379D01*
X595360Y102852D01*
X595360Y96868D01*
X597650Y91341D01*
X601881Y87110D01*
X607408Y84820D01*
G37*
G36*
X433088Y82280D02*
X439072Y82280D01*
X444599Y84570D01*
X448830Y88801D01*
X451120Y94328D01*
X451120Y100312D01*
X448830Y105839D01*
X444599Y110070D01*
X439072Y112360D01*
X433088Y112360D01*
X427561Y110070D01*
X423330Y105839D01*
X421040Y100312D01*
X421040Y94328D01*
X423330Y88801D01*
X427561Y84570D01*
X433088Y82280D01*
G37*
G36*
X333088Y82280D02*
X339072Y82280D01*
X344599Y84570D01*
X348830Y88801D01*
X351120Y94328D01*
X351120Y100312D01*
X348830Y105839D01*
X344599Y110070D01*
X339072Y112360D01*
X333088Y112360D01*
X327561Y110070D01*
X323330Y105839D01*
X321040Y100312D01*
X321040Y94328D01*
X323330Y88801D01*
X327561Y84570D01*
X333088Y82280D01*
G37*
G36*
X265785Y86320D02*
X270695Y86320D01*
X275230Y88199D01*
X278701Y91670D01*
X280580Y96205D01*
X280580Y101115D01*
X278701Y105650D01*
X275230Y109121D01*
X270695Y111000D01*
X265785Y111000D01*
X261250Y109121D01*
X257779Y105650D01*
X255900Y101115D01*
X255900Y96205D01*
X257779Y91670D01*
X261250Y88199D01*
X265785Y86320D01*
G37*
G36*
X140785Y86320D02*
X145695Y86320D01*
X150230Y88199D01*
X153701Y91670D01*
X155580Y96205D01*
X155580Y101115D01*
X153701Y105650D01*
X150230Y109121D01*
X145695Y111000D01*
X140785Y111000D01*
X136250Y109121D01*
X132779Y105650D01*
X130900Y101115D01*
X130900Y96205D01*
X132779Y91670D01*
X136250Y88199D01*
X140785Y86320D01*
G37*
G36*
X831940Y70250D02*
X843010Y70250D01*
X843010Y81320D01*
X841825Y81320D01*
X837290Y79441D01*
X833819Y75970D01*
X831940Y71435D01*
X831940Y70250D01*
G37*
G36*
X956940Y70250D02*
X968010Y70250D01*
X968010Y81320D01*
X966825Y81320D01*
X962290Y79441D01*
X958819Y75970D01*
X956940Y71435D01*
X956940Y70250D01*
G37*
G36*
X970550Y70250D02*
X981620Y70250D01*
X981620Y71435D01*
X979741Y75970D01*
X976270Y79441D01*
X971735Y81320D01*
X970550Y81320D01*
X970550Y70250D01*
G37*
G36*
X845550Y70250D02*
X856620Y70250D01*
X856620Y71435D01*
X854741Y75970D01*
X851270Y79441D01*
X846735Y81320D01*
X845550Y81320D01*
X845550Y70250D01*
G37*
G36*
X46127Y27305D02*
X55474Y27305D01*
X64109Y30882D01*
X70718Y37491D01*
X74295Y46127D01*
X74295Y55474D01*
X70718Y64109D01*
X64109Y70718D01*
X55474Y74295D01*
X46127Y74295D01*
X37491Y70718D01*
X30882Y64109D01*
X27305Y55474D01*
X27305Y46127D01*
X30882Y37491D01*
X37491Y30882D01*
X46127Y27305D01*
G37*
G36*
X970550Y56640D02*
X971735Y56640D01*
X976270Y58519D01*
X979741Y61990D01*
X981620Y66525D01*
X981620Y67710D01*
X970550Y67710D01*
X970550Y56640D01*
G37*
G36*
X966825Y56640D02*
X968010Y56640D01*
X968010Y67710D01*
X956940Y67710D01*
X956940Y66525D01*
X958819Y61990D01*
X962290Y58519D01*
X966825Y56640D01*
G37*
G36*
X845550Y56640D02*
X846735Y56640D01*
X851270Y58519D01*
X854741Y61990D01*
X856620Y66525D01*
X856620Y67710D01*
X845550Y67710D01*
X845550Y56640D01*
G37*
G36*
X841825Y56640D02*
X843010Y56640D01*
X843010Y67710D01*
X831940Y67710D01*
X831940Y66525D01*
X833819Y61990D01*
X837290Y58519D01*
X841825Y56640D01*
G37*
G36*
X1214527Y14605D02*
X1223874Y14605D01*
X1232509Y18182D01*
X1239118Y24791D01*
X1242695Y33427D01*
X1242695Y42774D01*
X1239118Y51409D01*
X1232509Y58018D01*
X1223874Y61595D01*
X1214527Y61595D01*
X1205891Y58018D01*
X1199282Y51409D01*
X1195705Y42774D01*
X1195705Y33427D01*
X1199282Y24791D01*
X1205891Y18182D01*
X1214527Y14605D01*
G37*
G36*
X130900Y49930D02*
X141970Y49930D01*
X141970Y61000D01*
X140785Y61000D01*
X136250Y59121D01*
X132779Y55650D01*
X130900Y51115D01*
X130900Y49930D01*
G37*
G36*
X255900Y49930D02*
X266970Y49930D01*
X266970Y61000D01*
X265785Y61000D01*
X261250Y59121D01*
X257779Y55650D01*
X255900Y51115D01*
X255900Y49930D01*
G37*
G36*
X269510Y49930D02*
X280580Y49930D01*
X280580Y51115D01*
X278701Y55650D01*
X275230Y59121D01*
X270695Y61000D01*
X269510Y61000D01*
X269510Y49930D01*
G37*
G36*
X144510Y49930D02*
X155580Y49930D01*
X155580Y51115D01*
X153701Y55650D01*
X150230Y59121D01*
X145695Y61000D01*
X144510Y61000D01*
X144510Y49930D01*
G37*
G36*
X269510Y36320D02*
X270695Y36320D01*
X275230Y38199D01*
X278701Y41670D01*
X280580Y46205D01*
X280580Y47390D01*
X269510Y47390D01*
X269510Y36320D01*
G37*
G36*
X265785Y36320D02*
X266970Y36320D01*
X266970Y47390D01*
X255900Y47390D01*
X255900Y46205D01*
X257779Y41670D01*
X261250Y38199D01*
X265785Y36320D01*
G37*
G36*
X144510Y36320D02*
X145695Y36320D01*
X150230Y38199D01*
X153701Y41670D01*
X155580Y46205D01*
X155580Y47390D01*
X144510Y47390D01*
X144510Y36320D01*
G37*
G36*
X140785Y36320D02*
X141970Y36320D01*
X141970Y47390D01*
X130900Y47390D01*
X130900Y46205D01*
X132779Y41670D01*
X136250Y38199D01*
X140785Y36320D01*
G37*
G36*
X658502Y20320D02*
X662298Y20320D01*
X665804Y21772D01*
X668488Y24456D01*
X669940Y27962D01*
X669940Y31758D01*
X668488Y35264D01*
X665804Y37948D01*
X662298Y39400D01*
X658502Y39400D01*
X654996Y37948D01*
X652312Y35264D01*
X650860Y31758D01*
X650860Y27962D01*
X652312Y24456D01*
X654996Y21772D01*
X658502Y20320D01*
G37*
G36*
X683502Y20320D02*
X687298Y20320D01*
X690804Y21772D01*
X693488Y24456D01*
X694940Y27962D01*
X694940Y31758D01*
X693488Y35264D01*
X690804Y37948D01*
X687298Y39400D01*
X683502Y39400D01*
X679996Y37948D01*
X677312Y35264D01*
X675860Y31758D01*
X675860Y27962D01*
X677312Y24456D01*
X679996Y21772D01*
X683502Y20320D01*
G37*
G36*
X633502Y20320D02*
X637298Y20320D01*
X640804Y21772D01*
X643488Y24456D01*
X644940Y27962D01*
X644940Y31758D01*
X643488Y35264D01*
X640804Y37948D01*
X637298Y39400D01*
X633502Y39400D01*
X629996Y37948D01*
X627312Y35264D01*
X625860Y31758D01*
X625860Y27962D01*
X627312Y24456D01*
X629996Y21772D01*
X633502Y20320D01*
G37*
G36*
X409182Y17780D02*
X412978Y17780D01*
X416484Y19232D01*
X419168Y21916D01*
X420620Y25422D01*
X420620Y29218D01*
X419168Y32724D01*
X416484Y35408D01*
X412978Y36860D01*
X409182Y36860D01*
X405676Y35408D01*
X402992Y32724D01*
X401540Y29218D01*
X401540Y25422D01*
X402992Y21916D01*
X405676Y19232D01*
X409182Y17780D01*
G37*
G36*
X384182Y17780D02*
X387978Y17780D01*
X391484Y19232D01*
X394168Y21916D01*
X395620Y25422D01*
X395620Y29218D01*
X394168Y32724D01*
X391484Y35408D01*
X387978Y36860D01*
X384182Y36860D01*
X380676Y35408D01*
X377992Y32724D01*
X376540Y29218D01*
X376540Y25422D01*
X377992Y21916D01*
X380676Y19232D01*
X384182Y17780D01*
G37*
G36*
X359182Y17780D02*
X362978Y17780D01*
X366484Y19232D01*
X369168Y21916D01*
X370620Y25422D01*
X370620Y29218D01*
X369168Y32724D01*
X366484Y35408D01*
X362978Y36860D01*
X359182Y36860D01*
X355676Y35408D01*
X352992Y32724D01*
X351540Y29218D01*
X351540Y25422D01*
X352992Y21916D01*
X355676Y19232D01*
X359182Y17780D01*
G37*
%LPD*%
D10*
X1141728Y552575D03*
X1141728Y577975D03*
X1116328Y552575D03*
X1116328Y577975D03*
X1090928Y552575D03*
X1090928Y577975D03*
X1065528Y552575D03*
X1065528Y577975D03*
X1040128Y552575D03*
X1040128Y577975D03*
X1014728Y552575D03*
X1014728Y577975D03*
X989328Y552575D03*
X989328Y577975D03*
X963928Y552575D03*
X963928Y577975D03*
X938528Y552575D03*
X938528Y577975D03*
X913128Y552575D03*
X913128Y577975D03*
X887728Y552575D03*
X887728Y577975D03*
X862328Y552575D03*
X862328Y577975D03*
X836928Y552575D03*
X836928Y577975D03*
X811528Y552575D03*
X811528Y577975D03*
X786128Y552575D03*
X786128Y577975D03*
X760728Y552575D03*
X760728Y577975D03*
X735328Y552575D03*
X735328Y577975D03*
X709928Y552575D03*
X709928Y577975D03*
X1141728Y806575D03*
X1141728Y831975D03*
X1116328Y806575D03*
X1116328Y831975D03*
X1090928Y806575D03*
X1090928Y831975D03*
X1065528Y806575D03*
X1065528Y831975D03*
X1040128Y806575D03*
X1040128Y831975D03*
X1014728Y806575D03*
X1014728Y831975D03*
X989328Y806575D03*
X989328Y831975D03*
X963928Y806575D03*
X963928Y831975D03*
X938528Y806575D03*
X938528Y831975D03*
X913128Y806575D03*
X913128Y831975D03*
X887728Y806575D03*
X887728Y831975D03*
X862328Y806575D03*
X862328Y831975D03*
X836928Y806575D03*
X836928Y831975D03*
X811528Y806575D03*
X811528Y831975D03*
X786128Y806575D03*
X786128Y831975D03*
X760728Y806575D03*
X760728Y831975D03*
X735328Y806575D03*
X735328Y831975D03*
X709928Y806575D03*
X709928Y831975D03*
D11*
X1112088Y413763D03*
X1087088Y413763D03*
X1067088Y413763D03*
X1042088Y413763D03*
D12*
X1142788Y386663D03*
X1011388Y386663D03*
D13*
X170180Y949960D03*
X195580Y949960D03*
X220980Y949960D03*
X246380Y949960D03*
X271780Y949960D03*
X297180Y949960D03*
X322580Y949960D03*
X347980Y949960D03*
X373380Y949960D03*
X398780Y949960D03*
X424180Y949960D03*
X449580Y949960D03*
X474980Y949960D03*
X500380Y949960D03*
X525780Y949960D03*
X551180Y949960D03*
X576580Y949960D03*
X601980Y949960D03*
X627380Y949960D03*
X652780Y949960D03*
X170180Y187960D03*
X195580Y187960D03*
X220980Y187960D03*
X246380Y187960D03*
X271780Y187960D03*
X297180Y187960D03*
X322580Y187960D03*
X347980Y187960D03*
X373380Y187960D03*
X398780Y187960D03*
X424180Y187960D03*
X449580Y187960D03*
X474980Y187960D03*
X500380Y187960D03*
X525780Y187960D03*
X551180Y187960D03*
X576580Y187960D03*
X601980Y187960D03*
X627380Y187960D03*
X652780Y187960D03*
D14*
X125730Y187960D03*
X697230Y187960D03*
X125730Y949960D03*
X697230Y949960D03*
D13*
X361080Y27320D03*
X386080Y27320D03*
X411080Y27320D03*
X635400Y29860D03*
X660400Y29860D03*
X685400Y29860D03*
D15*
X268240Y98660D03*
X268240Y48660D03*
X143240Y48660D03*
X143240Y98660D03*
X969280Y118980D03*
X969280Y68980D03*
X844280Y68980D03*
X844280Y118980D03*
D16*
X50800Y50800D03*
X50800Y977900D03*
X1219200Y977900D03*
X1219200Y38100D03*
M02*
