M48
;GenerationSoftware,Autodesk,EAGLE,9.7.0*%
;CreationDate,2023-12-14T00:52:49Z*%
FMAT,2
ICI,OFF
METRIC,TZ,000.000
T8C0.889
T7C0.920
T6C1.000
T5C1.400
T4C2.300
T3C2.500
T2C3.000
T1C3.175
%
G90
M71
T1
X121920Y3810
X121920Y97790
X5080Y97790
X5080Y5080
T2
X69723Y94996
X12573Y94996
X69723Y18796
X12573Y18796
T3
X33608Y9732
X43608Y9732
X61040Y9986
X71040Y9986
T4
X101139Y38666
X114279Y38666
T5
X84428Y11898
X84428Y6898
X96928Y6898
X96928Y11898
X14324Y9866
X14324Y4866
X26824Y4866
X26824Y9866
T6
X66040Y2986
X63540Y2986
X41108Y2732
X38608Y2732
X36108Y2732
X65278Y18796
X62738Y18796
X60198Y18796
X57658Y18796
X55118Y18796
X52578Y18796
X50038Y18796
X47498Y18796
X44958Y18796
X42418Y18796
X39878Y18796
X32258Y18796
X34798Y18796
X68540Y2986
X29718Y18796
X27178Y18796
X24638Y18796
X22098Y18796
X19558Y18796
X17018Y18796
X65278Y94996
X62738Y94996
X60198Y94996
X57658Y94996
X55118Y94996
X52578Y94996
X50038Y94996
X47498Y94996
X44958Y94996
X42418Y94996
X39878Y94996
X37338Y94996
X34798Y94996
X32258Y94996
X29718Y94996
X27178Y94996
X24638Y94996
X22098Y94996
X19558Y94996
X17018Y94996
X37338Y18796
T7
X111209Y41376
X104209Y41376
X106709Y41376
X108709Y41376
T8
X109093Y55257
X73533Y83198
X70993Y80658
X70993Y83198
X109093Y57797
X76073Y83198
X76073Y80658
X78613Y83198
X78613Y80658
X81153Y83198
X81153Y80658
X83693Y83198
X83693Y80658
X86233Y83198
X86233Y80658
X88773Y83198
X88773Y80658
X91313Y83198
X91313Y80658
X93853Y83198
X93853Y80658
X96393Y83198
X96393Y80658
X98933Y83198
X98933Y80658
X101473Y83198
X101473Y80658
X104013Y83198
X104013Y80658
X106553Y83198
X106553Y80658
X109093Y83198
X109093Y80658
X111633Y83198
X111633Y80658
X114173Y83198
X114173Y80658
X70993Y57797
X70993Y55257
X73533Y57797
X73533Y55257
X76073Y57797
X76073Y55257
X78613Y57797
X78613Y55257
X81153Y57797
X81153Y55257
X83693Y57797
X83693Y55257
X86233Y57797
X111633Y57797
X111633Y55257
X114173Y57797
X114173Y55257
X86233Y55257
X88773Y57797
X88773Y55257
X91313Y57797
X91313Y55257
X93853Y57797
X93853Y55257
X96393Y57797
X96393Y55257
X98933Y57797
X98933Y55257
X101473Y57797
X101473Y55257
X104013Y57797
X104013Y55257
X106553Y57797
X106553Y55257
X73533Y80658
M30