G04 EAGLE Gerber RS-274X export*
G75*
%MOMM*%
%FSLAX34Y34*%
%LPD*%
%IN*%
%IPPOS*%
%AMOC8*
5,1,8,0,0,1.08239X$1,22.5*%
G01*
G04 Define Apertures*
%ADD10C,0.000000*%
%ADD11C,0.254000*%
D10*
X0Y0D02*
X1270000Y0D01*
X1270000Y1016000D01*
X0Y1016000D01*
X0Y0D01*
X323580Y97320D02*
X323584Y97627D01*
X323595Y97933D01*
X323614Y98240D01*
X323640Y98545D01*
X323674Y98850D01*
X323715Y99154D01*
X323764Y99457D01*
X323820Y99759D01*
X323884Y100059D01*
X323955Y100357D01*
X324033Y100654D01*
X324118Y100949D01*
X324211Y101241D01*
X324311Y101531D01*
X324418Y101819D01*
X324532Y102104D01*
X324652Y102386D01*
X324780Y102664D01*
X324915Y102940D01*
X325056Y103212D01*
X325204Y103481D01*
X325358Y103746D01*
X325519Y104007D01*
X325687Y104265D01*
X325860Y104518D01*
X326040Y104766D01*
X326226Y105010D01*
X326417Y105250D01*
X326615Y105485D01*
X326818Y105714D01*
X327027Y105939D01*
X327241Y106159D01*
X327461Y106373D01*
X327686Y106582D01*
X327915Y106785D01*
X328150Y106983D01*
X328390Y107174D01*
X328634Y107360D01*
X328882Y107540D01*
X329135Y107713D01*
X329393Y107881D01*
X329654Y108042D01*
X329919Y108196D01*
X330188Y108344D01*
X330460Y108485D01*
X330736Y108620D01*
X331014Y108748D01*
X331296Y108868D01*
X331581Y108982D01*
X331869Y109089D01*
X332159Y109189D01*
X332451Y109282D01*
X332746Y109367D01*
X333043Y109445D01*
X333341Y109516D01*
X333641Y109580D01*
X333943Y109636D01*
X334246Y109685D01*
X334550Y109726D01*
X334855Y109760D01*
X335160Y109786D01*
X335467Y109805D01*
X335773Y109816D01*
X336080Y109820D01*
X336387Y109816D01*
X336693Y109805D01*
X337000Y109786D01*
X337305Y109760D01*
X337610Y109726D01*
X337914Y109685D01*
X338217Y109636D01*
X338519Y109580D01*
X338819Y109516D01*
X339117Y109445D01*
X339414Y109367D01*
X339709Y109282D01*
X340001Y109189D01*
X340291Y109089D01*
X340579Y108982D01*
X340864Y108868D01*
X341146Y108748D01*
X341424Y108620D01*
X341700Y108485D01*
X341972Y108344D01*
X342241Y108196D01*
X342506Y108042D01*
X342767Y107881D01*
X343025Y107713D01*
X343278Y107540D01*
X343526Y107360D01*
X343770Y107174D01*
X344010Y106983D01*
X344245Y106785D01*
X344474Y106582D01*
X344699Y106373D01*
X344919Y106159D01*
X345133Y105939D01*
X345342Y105714D01*
X345545Y105485D01*
X345743Y105250D01*
X345934Y105010D01*
X346120Y104766D01*
X346300Y104518D01*
X346473Y104265D01*
X346641Y104007D01*
X346802Y103746D01*
X346956Y103481D01*
X347104Y103212D01*
X347245Y102940D01*
X347380Y102664D01*
X347508Y102386D01*
X347628Y102104D01*
X347742Y101819D01*
X347849Y101531D01*
X347949Y101241D01*
X348042Y100949D01*
X348127Y100654D01*
X348205Y100357D01*
X348276Y100059D01*
X348340Y99759D01*
X348396Y99457D01*
X348445Y99154D01*
X348486Y98850D01*
X348520Y98545D01*
X348546Y98240D01*
X348565Y97933D01*
X348576Y97627D01*
X348580Y97320D01*
X348576Y97013D01*
X348565Y96707D01*
X348546Y96400D01*
X348520Y96095D01*
X348486Y95790D01*
X348445Y95486D01*
X348396Y95183D01*
X348340Y94881D01*
X348276Y94581D01*
X348205Y94283D01*
X348127Y93986D01*
X348042Y93691D01*
X347949Y93399D01*
X347849Y93109D01*
X347742Y92821D01*
X347628Y92536D01*
X347508Y92254D01*
X347380Y91976D01*
X347245Y91700D01*
X347104Y91428D01*
X346956Y91159D01*
X346802Y90894D01*
X346641Y90633D01*
X346473Y90375D01*
X346300Y90122D01*
X346120Y89874D01*
X345934Y89630D01*
X345743Y89390D01*
X345545Y89155D01*
X345342Y88926D01*
X345133Y88701D01*
X344919Y88481D01*
X344699Y88267D01*
X344474Y88058D01*
X344245Y87855D01*
X344010Y87657D01*
X343770Y87466D01*
X343526Y87280D01*
X343278Y87100D01*
X343025Y86927D01*
X342767Y86759D01*
X342506Y86598D01*
X342241Y86444D01*
X341972Y86296D01*
X341700Y86155D01*
X341424Y86020D01*
X341146Y85892D01*
X340864Y85772D01*
X340579Y85658D01*
X340291Y85551D01*
X340001Y85451D01*
X339709Y85358D01*
X339414Y85273D01*
X339117Y85195D01*
X338819Y85124D01*
X338519Y85060D01*
X338217Y85004D01*
X337914Y84955D01*
X337610Y84914D01*
X337305Y84880D01*
X337000Y84854D01*
X336693Y84835D01*
X336387Y84824D01*
X336080Y84820D01*
X335773Y84824D01*
X335467Y84835D01*
X335160Y84854D01*
X334855Y84880D01*
X334550Y84914D01*
X334246Y84955D01*
X333943Y85004D01*
X333641Y85060D01*
X333341Y85124D01*
X333043Y85195D01*
X332746Y85273D01*
X332451Y85358D01*
X332159Y85451D01*
X331869Y85551D01*
X331581Y85658D01*
X331296Y85772D01*
X331014Y85892D01*
X330736Y86020D01*
X330460Y86155D01*
X330188Y86296D01*
X329919Y86444D01*
X329654Y86598D01*
X329393Y86759D01*
X329135Y86927D01*
X328882Y87100D01*
X328634Y87280D01*
X328390Y87466D01*
X328150Y87657D01*
X327915Y87855D01*
X327686Y88058D01*
X327461Y88267D01*
X327241Y88481D01*
X327027Y88701D01*
X326818Y88926D01*
X326615Y89155D01*
X326417Y89390D01*
X326226Y89630D01*
X326040Y89874D01*
X325860Y90122D01*
X325687Y90375D01*
X325519Y90633D01*
X325358Y90894D01*
X325204Y91159D01*
X325056Y91428D01*
X324915Y91700D01*
X324780Y91976D01*
X324652Y92254D01*
X324532Y92536D01*
X324418Y92821D01*
X324311Y93109D01*
X324211Y93399D01*
X324118Y93691D01*
X324033Y93986D01*
X323955Y94283D01*
X323884Y94581D01*
X323820Y94881D01*
X323764Y95183D01*
X323715Y95486D01*
X323674Y95790D01*
X323640Y96095D01*
X323614Y96400D01*
X323595Y96707D01*
X323584Y97013D01*
X323580Y97320D01*
X423580Y97320D02*
X423584Y97627D01*
X423595Y97933D01*
X423614Y98240D01*
X423640Y98545D01*
X423674Y98850D01*
X423715Y99154D01*
X423764Y99457D01*
X423820Y99759D01*
X423884Y100059D01*
X423955Y100357D01*
X424033Y100654D01*
X424118Y100949D01*
X424211Y101241D01*
X424311Y101531D01*
X424418Y101819D01*
X424532Y102104D01*
X424652Y102386D01*
X424780Y102664D01*
X424915Y102940D01*
X425056Y103212D01*
X425204Y103481D01*
X425358Y103746D01*
X425519Y104007D01*
X425687Y104265D01*
X425860Y104518D01*
X426040Y104766D01*
X426226Y105010D01*
X426417Y105250D01*
X426615Y105485D01*
X426818Y105714D01*
X427027Y105939D01*
X427241Y106159D01*
X427461Y106373D01*
X427686Y106582D01*
X427915Y106785D01*
X428150Y106983D01*
X428390Y107174D01*
X428634Y107360D01*
X428882Y107540D01*
X429135Y107713D01*
X429393Y107881D01*
X429654Y108042D01*
X429919Y108196D01*
X430188Y108344D01*
X430460Y108485D01*
X430736Y108620D01*
X431014Y108748D01*
X431296Y108868D01*
X431581Y108982D01*
X431869Y109089D01*
X432159Y109189D01*
X432451Y109282D01*
X432746Y109367D01*
X433043Y109445D01*
X433341Y109516D01*
X433641Y109580D01*
X433943Y109636D01*
X434246Y109685D01*
X434550Y109726D01*
X434855Y109760D01*
X435160Y109786D01*
X435467Y109805D01*
X435773Y109816D01*
X436080Y109820D01*
X436387Y109816D01*
X436693Y109805D01*
X437000Y109786D01*
X437305Y109760D01*
X437610Y109726D01*
X437914Y109685D01*
X438217Y109636D01*
X438519Y109580D01*
X438819Y109516D01*
X439117Y109445D01*
X439414Y109367D01*
X439709Y109282D01*
X440001Y109189D01*
X440291Y109089D01*
X440579Y108982D01*
X440864Y108868D01*
X441146Y108748D01*
X441424Y108620D01*
X441700Y108485D01*
X441972Y108344D01*
X442241Y108196D01*
X442506Y108042D01*
X442767Y107881D01*
X443025Y107713D01*
X443278Y107540D01*
X443526Y107360D01*
X443770Y107174D01*
X444010Y106983D01*
X444245Y106785D01*
X444474Y106582D01*
X444699Y106373D01*
X444919Y106159D01*
X445133Y105939D01*
X445342Y105714D01*
X445545Y105485D01*
X445743Y105250D01*
X445934Y105010D01*
X446120Y104766D01*
X446300Y104518D01*
X446473Y104265D01*
X446641Y104007D01*
X446802Y103746D01*
X446956Y103481D01*
X447104Y103212D01*
X447245Y102940D01*
X447380Y102664D01*
X447508Y102386D01*
X447628Y102104D01*
X447742Y101819D01*
X447849Y101531D01*
X447949Y101241D01*
X448042Y100949D01*
X448127Y100654D01*
X448205Y100357D01*
X448276Y100059D01*
X448340Y99759D01*
X448396Y99457D01*
X448445Y99154D01*
X448486Y98850D01*
X448520Y98545D01*
X448546Y98240D01*
X448565Y97933D01*
X448576Y97627D01*
X448580Y97320D01*
X448576Y97013D01*
X448565Y96707D01*
X448546Y96400D01*
X448520Y96095D01*
X448486Y95790D01*
X448445Y95486D01*
X448396Y95183D01*
X448340Y94881D01*
X448276Y94581D01*
X448205Y94283D01*
X448127Y93986D01*
X448042Y93691D01*
X447949Y93399D01*
X447849Y93109D01*
X447742Y92821D01*
X447628Y92536D01*
X447508Y92254D01*
X447380Y91976D01*
X447245Y91700D01*
X447104Y91428D01*
X446956Y91159D01*
X446802Y90894D01*
X446641Y90633D01*
X446473Y90375D01*
X446300Y90122D01*
X446120Y89874D01*
X445934Y89630D01*
X445743Y89390D01*
X445545Y89155D01*
X445342Y88926D01*
X445133Y88701D01*
X444919Y88481D01*
X444699Y88267D01*
X444474Y88058D01*
X444245Y87855D01*
X444010Y87657D01*
X443770Y87466D01*
X443526Y87280D01*
X443278Y87100D01*
X443025Y86927D01*
X442767Y86759D01*
X442506Y86598D01*
X442241Y86444D01*
X441972Y86296D01*
X441700Y86155D01*
X441424Y86020D01*
X441146Y85892D01*
X440864Y85772D01*
X440579Y85658D01*
X440291Y85551D01*
X440001Y85451D01*
X439709Y85358D01*
X439414Y85273D01*
X439117Y85195D01*
X438819Y85124D01*
X438519Y85060D01*
X438217Y85004D01*
X437914Y84955D01*
X437610Y84914D01*
X437305Y84880D01*
X437000Y84854D01*
X436693Y84835D01*
X436387Y84824D01*
X436080Y84820D01*
X435773Y84824D01*
X435467Y84835D01*
X435160Y84854D01*
X434855Y84880D01*
X434550Y84914D01*
X434246Y84955D01*
X433943Y85004D01*
X433641Y85060D01*
X433341Y85124D01*
X433043Y85195D01*
X432746Y85273D01*
X432451Y85358D01*
X432159Y85451D01*
X431869Y85551D01*
X431581Y85658D01*
X431296Y85772D01*
X431014Y85892D01*
X430736Y86020D01*
X430460Y86155D01*
X430188Y86296D01*
X429919Y86444D01*
X429654Y86598D01*
X429393Y86759D01*
X429135Y86927D01*
X428882Y87100D01*
X428634Y87280D01*
X428390Y87466D01*
X428150Y87657D01*
X427915Y87855D01*
X427686Y88058D01*
X427461Y88267D01*
X427241Y88481D01*
X427027Y88701D01*
X426818Y88926D01*
X426615Y89155D01*
X426417Y89390D01*
X426226Y89630D01*
X426040Y89874D01*
X425860Y90122D01*
X425687Y90375D01*
X425519Y90633D01*
X425358Y90894D01*
X425204Y91159D01*
X425056Y91428D01*
X424915Y91700D01*
X424780Y91976D01*
X424652Y92254D01*
X424532Y92536D01*
X424418Y92821D01*
X424311Y93109D01*
X424211Y93399D01*
X424118Y93691D01*
X424033Y93986D01*
X423955Y94283D01*
X423884Y94581D01*
X423820Y94881D01*
X423764Y95183D01*
X423715Y95486D01*
X423674Y95790D01*
X423640Y96095D01*
X423614Y96400D01*
X423595Y96707D01*
X423584Y97013D01*
X423580Y97320D01*
X597900Y99860D02*
X597904Y100167D01*
X597915Y100473D01*
X597934Y100780D01*
X597960Y101085D01*
X597994Y101390D01*
X598035Y101694D01*
X598084Y101997D01*
X598140Y102299D01*
X598204Y102599D01*
X598275Y102897D01*
X598353Y103194D01*
X598438Y103489D01*
X598531Y103781D01*
X598631Y104071D01*
X598738Y104359D01*
X598852Y104644D01*
X598972Y104926D01*
X599100Y105204D01*
X599235Y105480D01*
X599376Y105752D01*
X599524Y106021D01*
X599678Y106286D01*
X599839Y106547D01*
X600007Y106805D01*
X600180Y107058D01*
X600360Y107306D01*
X600546Y107550D01*
X600737Y107790D01*
X600935Y108025D01*
X601138Y108254D01*
X601347Y108479D01*
X601561Y108699D01*
X601781Y108913D01*
X602006Y109122D01*
X602235Y109325D01*
X602470Y109523D01*
X602710Y109714D01*
X602954Y109900D01*
X603202Y110080D01*
X603455Y110253D01*
X603713Y110421D01*
X603974Y110582D01*
X604239Y110736D01*
X604508Y110884D01*
X604780Y111025D01*
X605056Y111160D01*
X605334Y111288D01*
X605616Y111408D01*
X605901Y111522D01*
X606189Y111629D01*
X606479Y111729D01*
X606771Y111822D01*
X607066Y111907D01*
X607363Y111985D01*
X607661Y112056D01*
X607961Y112120D01*
X608263Y112176D01*
X608566Y112225D01*
X608870Y112266D01*
X609175Y112300D01*
X609480Y112326D01*
X609787Y112345D01*
X610093Y112356D01*
X610400Y112360D01*
X610707Y112356D01*
X611013Y112345D01*
X611320Y112326D01*
X611625Y112300D01*
X611930Y112266D01*
X612234Y112225D01*
X612537Y112176D01*
X612839Y112120D01*
X613139Y112056D01*
X613437Y111985D01*
X613734Y111907D01*
X614029Y111822D01*
X614321Y111729D01*
X614611Y111629D01*
X614899Y111522D01*
X615184Y111408D01*
X615466Y111288D01*
X615744Y111160D01*
X616020Y111025D01*
X616292Y110884D01*
X616561Y110736D01*
X616826Y110582D01*
X617087Y110421D01*
X617345Y110253D01*
X617598Y110080D01*
X617846Y109900D01*
X618090Y109714D01*
X618330Y109523D01*
X618565Y109325D01*
X618794Y109122D01*
X619019Y108913D01*
X619239Y108699D01*
X619453Y108479D01*
X619662Y108254D01*
X619865Y108025D01*
X620063Y107790D01*
X620254Y107550D01*
X620440Y107306D01*
X620620Y107058D01*
X620793Y106805D01*
X620961Y106547D01*
X621122Y106286D01*
X621276Y106021D01*
X621424Y105752D01*
X621565Y105480D01*
X621700Y105204D01*
X621828Y104926D01*
X621948Y104644D01*
X622062Y104359D01*
X622169Y104071D01*
X622269Y103781D01*
X622362Y103489D01*
X622447Y103194D01*
X622525Y102897D01*
X622596Y102599D01*
X622660Y102299D01*
X622716Y101997D01*
X622765Y101694D01*
X622806Y101390D01*
X622840Y101085D01*
X622866Y100780D01*
X622885Y100473D01*
X622896Y100167D01*
X622900Y99860D01*
X622896Y99553D01*
X622885Y99247D01*
X622866Y98940D01*
X622840Y98635D01*
X622806Y98330D01*
X622765Y98026D01*
X622716Y97723D01*
X622660Y97421D01*
X622596Y97121D01*
X622525Y96823D01*
X622447Y96526D01*
X622362Y96231D01*
X622269Y95939D01*
X622169Y95649D01*
X622062Y95361D01*
X621948Y95076D01*
X621828Y94794D01*
X621700Y94516D01*
X621565Y94240D01*
X621424Y93968D01*
X621276Y93699D01*
X621122Y93434D01*
X620961Y93173D01*
X620793Y92915D01*
X620620Y92662D01*
X620440Y92414D01*
X620254Y92170D01*
X620063Y91930D01*
X619865Y91695D01*
X619662Y91466D01*
X619453Y91241D01*
X619239Y91021D01*
X619019Y90807D01*
X618794Y90598D01*
X618565Y90395D01*
X618330Y90197D01*
X618090Y90006D01*
X617846Y89820D01*
X617598Y89640D01*
X617345Y89467D01*
X617087Y89299D01*
X616826Y89138D01*
X616561Y88984D01*
X616292Y88836D01*
X616020Y88695D01*
X615744Y88560D01*
X615466Y88432D01*
X615184Y88312D01*
X614899Y88198D01*
X614611Y88091D01*
X614321Y87991D01*
X614029Y87898D01*
X613734Y87813D01*
X613437Y87735D01*
X613139Y87664D01*
X612839Y87600D01*
X612537Y87544D01*
X612234Y87495D01*
X611930Y87454D01*
X611625Y87420D01*
X611320Y87394D01*
X611013Y87375D01*
X610707Y87364D01*
X610400Y87360D01*
X610093Y87364D01*
X609787Y87375D01*
X609480Y87394D01*
X609175Y87420D01*
X608870Y87454D01*
X608566Y87495D01*
X608263Y87544D01*
X607961Y87600D01*
X607661Y87664D01*
X607363Y87735D01*
X607066Y87813D01*
X606771Y87898D01*
X606479Y87991D01*
X606189Y88091D01*
X605901Y88198D01*
X605616Y88312D01*
X605334Y88432D01*
X605056Y88560D01*
X604780Y88695D01*
X604508Y88836D01*
X604239Y88984D01*
X603974Y89138D01*
X603713Y89299D01*
X603455Y89467D01*
X603202Y89640D01*
X602954Y89820D01*
X602710Y90006D01*
X602470Y90197D01*
X602235Y90395D01*
X602006Y90598D01*
X601781Y90807D01*
X601561Y91021D01*
X601347Y91241D01*
X601138Y91466D01*
X600935Y91695D01*
X600737Y91930D01*
X600546Y92170D01*
X600360Y92414D01*
X600180Y92662D01*
X600007Y92915D01*
X599839Y93173D01*
X599678Y93434D01*
X599524Y93699D01*
X599376Y93968D01*
X599235Y94240D01*
X599100Y94516D01*
X598972Y94794D01*
X598852Y95076D01*
X598738Y95361D01*
X598631Y95649D01*
X598531Y95939D01*
X598438Y96231D01*
X598353Y96526D01*
X598275Y96823D01*
X598204Y97121D01*
X598140Y97421D01*
X598084Y97723D01*
X598035Y98026D01*
X597994Y98330D01*
X597960Y98635D01*
X597934Y98940D01*
X597915Y99247D01*
X597904Y99553D01*
X597900Y99860D01*
X697900Y99860D02*
X697904Y100167D01*
X697915Y100473D01*
X697934Y100780D01*
X697960Y101085D01*
X697994Y101390D01*
X698035Y101694D01*
X698084Y101997D01*
X698140Y102299D01*
X698204Y102599D01*
X698275Y102897D01*
X698353Y103194D01*
X698438Y103489D01*
X698531Y103781D01*
X698631Y104071D01*
X698738Y104359D01*
X698852Y104644D01*
X698972Y104926D01*
X699100Y105204D01*
X699235Y105480D01*
X699376Y105752D01*
X699524Y106021D01*
X699678Y106286D01*
X699839Y106547D01*
X700007Y106805D01*
X700180Y107058D01*
X700360Y107306D01*
X700546Y107550D01*
X700737Y107790D01*
X700935Y108025D01*
X701138Y108254D01*
X701347Y108479D01*
X701561Y108699D01*
X701781Y108913D01*
X702006Y109122D01*
X702235Y109325D01*
X702470Y109523D01*
X702710Y109714D01*
X702954Y109900D01*
X703202Y110080D01*
X703455Y110253D01*
X703713Y110421D01*
X703974Y110582D01*
X704239Y110736D01*
X704508Y110884D01*
X704780Y111025D01*
X705056Y111160D01*
X705334Y111288D01*
X705616Y111408D01*
X705901Y111522D01*
X706189Y111629D01*
X706479Y111729D01*
X706771Y111822D01*
X707066Y111907D01*
X707363Y111985D01*
X707661Y112056D01*
X707961Y112120D01*
X708263Y112176D01*
X708566Y112225D01*
X708870Y112266D01*
X709175Y112300D01*
X709480Y112326D01*
X709787Y112345D01*
X710093Y112356D01*
X710400Y112360D01*
X710707Y112356D01*
X711013Y112345D01*
X711320Y112326D01*
X711625Y112300D01*
X711930Y112266D01*
X712234Y112225D01*
X712537Y112176D01*
X712839Y112120D01*
X713139Y112056D01*
X713437Y111985D01*
X713734Y111907D01*
X714029Y111822D01*
X714321Y111729D01*
X714611Y111629D01*
X714899Y111522D01*
X715184Y111408D01*
X715466Y111288D01*
X715744Y111160D01*
X716020Y111025D01*
X716292Y110884D01*
X716561Y110736D01*
X716826Y110582D01*
X717087Y110421D01*
X717345Y110253D01*
X717598Y110080D01*
X717846Y109900D01*
X718090Y109714D01*
X718330Y109523D01*
X718565Y109325D01*
X718794Y109122D01*
X719019Y108913D01*
X719239Y108699D01*
X719453Y108479D01*
X719662Y108254D01*
X719865Y108025D01*
X720063Y107790D01*
X720254Y107550D01*
X720440Y107306D01*
X720620Y107058D01*
X720793Y106805D01*
X720961Y106547D01*
X721122Y106286D01*
X721276Y106021D01*
X721424Y105752D01*
X721565Y105480D01*
X721700Y105204D01*
X721828Y104926D01*
X721948Y104644D01*
X722062Y104359D01*
X722169Y104071D01*
X722269Y103781D01*
X722362Y103489D01*
X722447Y103194D01*
X722525Y102897D01*
X722596Y102599D01*
X722660Y102299D01*
X722716Y101997D01*
X722765Y101694D01*
X722806Y101390D01*
X722840Y101085D01*
X722866Y100780D01*
X722885Y100473D01*
X722896Y100167D01*
X722900Y99860D01*
X722896Y99553D01*
X722885Y99247D01*
X722866Y98940D01*
X722840Y98635D01*
X722806Y98330D01*
X722765Y98026D01*
X722716Y97723D01*
X722660Y97421D01*
X722596Y97121D01*
X722525Y96823D01*
X722447Y96526D01*
X722362Y96231D01*
X722269Y95939D01*
X722169Y95649D01*
X722062Y95361D01*
X721948Y95076D01*
X721828Y94794D01*
X721700Y94516D01*
X721565Y94240D01*
X721424Y93968D01*
X721276Y93699D01*
X721122Y93434D01*
X720961Y93173D01*
X720793Y92915D01*
X720620Y92662D01*
X720440Y92414D01*
X720254Y92170D01*
X720063Y91930D01*
X719865Y91695D01*
X719662Y91466D01*
X719453Y91241D01*
X719239Y91021D01*
X719019Y90807D01*
X718794Y90598D01*
X718565Y90395D01*
X718330Y90197D01*
X718090Y90006D01*
X717846Y89820D01*
X717598Y89640D01*
X717345Y89467D01*
X717087Y89299D01*
X716826Y89138D01*
X716561Y88984D01*
X716292Y88836D01*
X716020Y88695D01*
X715744Y88560D01*
X715466Y88432D01*
X715184Y88312D01*
X714899Y88198D01*
X714611Y88091D01*
X714321Y87991D01*
X714029Y87898D01*
X713734Y87813D01*
X713437Y87735D01*
X713139Y87664D01*
X712839Y87600D01*
X712537Y87544D01*
X712234Y87495D01*
X711930Y87454D01*
X711625Y87420D01*
X711320Y87394D01*
X711013Y87375D01*
X710707Y87364D01*
X710400Y87360D01*
X710093Y87364D01*
X709787Y87375D01*
X709480Y87394D01*
X709175Y87420D01*
X708870Y87454D01*
X708566Y87495D01*
X708263Y87544D01*
X707961Y87600D01*
X707661Y87664D01*
X707363Y87735D01*
X707066Y87813D01*
X706771Y87898D01*
X706479Y87991D01*
X706189Y88091D01*
X705901Y88198D01*
X705616Y88312D01*
X705334Y88432D01*
X705056Y88560D01*
X704780Y88695D01*
X704508Y88836D01*
X704239Y88984D01*
X703974Y89138D01*
X703713Y89299D01*
X703455Y89467D01*
X703202Y89640D01*
X702954Y89820D01*
X702710Y90006D01*
X702470Y90197D01*
X702235Y90395D01*
X702006Y90598D01*
X701781Y90807D01*
X701561Y91021D01*
X701347Y91241D01*
X701138Y91466D01*
X700935Y91695D01*
X700737Y91930D01*
X700546Y92170D01*
X700360Y92414D01*
X700180Y92662D01*
X700007Y92915D01*
X699839Y93173D01*
X699678Y93434D01*
X699524Y93699D01*
X699376Y93968D01*
X699235Y94240D01*
X699100Y94516D01*
X698972Y94794D01*
X698852Y95076D01*
X698738Y95361D01*
X698631Y95649D01*
X698531Y95939D01*
X698438Y96231D01*
X698353Y96526D01*
X698275Y96823D01*
X698204Y97121D01*
X698140Y97421D01*
X698084Y97723D01*
X698035Y98026D01*
X697994Y98330D01*
X697960Y98635D01*
X697934Y98940D01*
X697915Y99247D01*
X697904Y99553D01*
X697900Y99860D01*
D11*
X0Y0D02*
X1270000Y0D01*
X1270000Y1016000D01*
X0Y1016000D01*
X0Y0D01*
M02*
