G04 EAGLE Gerber RS-274X export*
G75*
%MOMM*%
%FSLAX34Y34*%
%LPD*%
%INSilkscreen Top*%
%IPPOS*%
%AMOC8*
5,1,8,0,0,1.08239X$1,22.5*%
G01*
G04 Define Apertures*
%ADD10C,0.203200*%
%ADD11C,0.200000*%
%ADD12C,0.254000*%
%ADD13C,0.304800*%
%ADD14C,0.152400*%
%ADD15C,0.127000*%
%ADD16C,0.120000*%
D10*
X697202Y445516D02*
X686816Y445516D01*
X686816Y468884D01*
X697202Y468884D01*
X694605Y458498D02*
X686816Y458498D01*
X702527Y461095D02*
X710317Y461095D01*
X705124Y468884D02*
X705124Y449411D01*
X705126Y449289D01*
X705132Y449166D01*
X705141Y449044D01*
X705155Y448923D01*
X705172Y448802D01*
X705193Y448681D01*
X705218Y448561D01*
X705246Y448442D01*
X705279Y448324D01*
X705315Y448207D01*
X705354Y448092D01*
X705398Y447977D01*
X705444Y447864D01*
X705495Y447753D01*
X705549Y447643D01*
X705606Y447535D01*
X705666Y447428D01*
X705730Y447324D01*
X705798Y447222D01*
X705868Y447122D01*
X705941Y447024D01*
X706018Y446928D01*
X706097Y446835D01*
X706180Y446745D01*
X706265Y446657D01*
X706353Y446572D01*
X706443Y446489D01*
X706536Y446410D01*
X706632Y446333D01*
X706730Y446260D01*
X706830Y446190D01*
X706932Y446122D01*
X707036Y446058D01*
X707143Y445998D01*
X707251Y445941D01*
X707361Y445887D01*
X707472Y445836D01*
X707585Y445790D01*
X707700Y445746D01*
X707815Y445707D01*
X707932Y445671D01*
X708050Y445638D01*
X708169Y445610D01*
X708289Y445585D01*
X708410Y445564D01*
X708531Y445547D01*
X708652Y445533D01*
X708774Y445524D01*
X708897Y445518D01*
X709019Y445516D01*
X710317Y445516D01*
X721229Y445516D02*
X726422Y445516D01*
X721229Y445516D02*
X721107Y445518D01*
X720984Y445524D01*
X720862Y445533D01*
X720741Y445547D01*
X720620Y445564D01*
X720499Y445585D01*
X720379Y445610D01*
X720260Y445638D01*
X720142Y445671D01*
X720025Y445707D01*
X719910Y445746D01*
X719795Y445790D01*
X719682Y445836D01*
X719571Y445887D01*
X719461Y445941D01*
X719353Y445998D01*
X719246Y446058D01*
X719142Y446122D01*
X719040Y446190D01*
X718940Y446260D01*
X718842Y446333D01*
X718746Y446410D01*
X718653Y446489D01*
X718563Y446572D01*
X718475Y446657D01*
X718390Y446745D01*
X718307Y446835D01*
X718228Y446928D01*
X718151Y447024D01*
X718078Y447122D01*
X718008Y447222D01*
X717940Y447324D01*
X717876Y447428D01*
X717816Y447535D01*
X717759Y447643D01*
X717705Y447753D01*
X717654Y447864D01*
X717608Y447977D01*
X717564Y448092D01*
X717525Y448207D01*
X717489Y448324D01*
X717456Y448442D01*
X717428Y448561D01*
X717403Y448681D01*
X717382Y448802D01*
X717365Y448923D01*
X717351Y449044D01*
X717342Y449166D01*
X717336Y449289D01*
X717334Y449411D01*
X717335Y449411D02*
X717335Y457200D01*
X717334Y457200D02*
X717336Y457322D01*
X717342Y457445D01*
X717351Y457567D01*
X717365Y457688D01*
X717382Y457809D01*
X717403Y457930D01*
X717428Y458050D01*
X717456Y458169D01*
X717489Y458287D01*
X717525Y458404D01*
X717564Y458519D01*
X717608Y458634D01*
X717654Y458747D01*
X717705Y458858D01*
X717759Y458968D01*
X717816Y459076D01*
X717876Y459183D01*
X717940Y459287D01*
X718008Y459389D01*
X718078Y459489D01*
X718151Y459587D01*
X718228Y459683D01*
X718307Y459776D01*
X718390Y459866D01*
X718475Y459954D01*
X718563Y460039D01*
X718653Y460122D01*
X718746Y460201D01*
X718842Y460278D01*
X718940Y460351D01*
X719040Y460421D01*
X719142Y460489D01*
X719246Y460553D01*
X719353Y460613D01*
X719461Y460670D01*
X719571Y460724D01*
X719682Y460775D01*
X719795Y460821D01*
X719910Y460865D01*
X720025Y460904D01*
X720142Y460940D01*
X720260Y460973D01*
X720379Y461001D01*
X720499Y461026D01*
X720620Y461047D01*
X720741Y461064D01*
X720862Y461078D01*
X720984Y461087D01*
X721107Y461093D01*
X721229Y461095D01*
X726422Y461095D01*
X734023Y468884D02*
X734023Y445516D01*
X734023Y461095D02*
X740514Y461095D01*
X740636Y461093D01*
X740759Y461087D01*
X740881Y461078D01*
X741002Y461064D01*
X741123Y461047D01*
X741244Y461026D01*
X741364Y461001D01*
X741483Y460973D01*
X741601Y460940D01*
X741718Y460904D01*
X741833Y460865D01*
X741948Y460821D01*
X742061Y460775D01*
X742172Y460724D01*
X742282Y460670D01*
X742390Y460613D01*
X742497Y460553D01*
X742601Y460489D01*
X742703Y460421D01*
X742803Y460351D01*
X742901Y460278D01*
X742997Y460201D01*
X743090Y460122D01*
X743180Y460039D01*
X743268Y459954D01*
X743353Y459866D01*
X743436Y459776D01*
X743515Y459683D01*
X743592Y459587D01*
X743665Y459489D01*
X743735Y459389D01*
X743803Y459287D01*
X743867Y459183D01*
X743927Y459076D01*
X743984Y458968D01*
X744038Y458858D01*
X744089Y458747D01*
X744135Y458634D01*
X744179Y458519D01*
X744218Y458404D01*
X744254Y458287D01*
X744287Y458169D01*
X744315Y458050D01*
X744340Y457930D01*
X744361Y457809D01*
X744378Y457688D01*
X744392Y457567D01*
X744401Y457445D01*
X744407Y457322D01*
X744409Y457200D01*
X744409Y445516D01*
X753001Y454604D02*
X768580Y454604D01*
X775272Y445516D02*
X783061Y468884D01*
X790851Y445516D01*
X788903Y451358D02*
X777219Y451358D01*
X797543Y454604D02*
X813121Y454604D01*
X828205Y445516D02*
X828348Y445518D01*
X828491Y445524D01*
X828634Y445534D01*
X828776Y445548D01*
X828918Y445565D01*
X829060Y445587D01*
X829201Y445612D01*
X829341Y445642D01*
X829480Y445675D01*
X829618Y445712D01*
X829755Y445753D01*
X829891Y445797D01*
X830026Y445846D01*
X830159Y445898D01*
X830291Y445953D01*
X830421Y446013D01*
X830550Y446076D01*
X830677Y446142D01*
X830802Y446212D01*
X830924Y446285D01*
X831045Y446362D01*
X831164Y446442D01*
X831280Y446525D01*
X831395Y446611D01*
X831506Y446700D01*
X831616Y446793D01*
X831722Y446888D01*
X831826Y446987D01*
X831927Y447088D01*
X832026Y447192D01*
X832121Y447298D01*
X832214Y447408D01*
X832303Y447519D01*
X832389Y447634D01*
X832472Y447750D01*
X832552Y447869D01*
X832629Y447990D01*
X832702Y448112D01*
X832772Y448237D01*
X832838Y448364D01*
X832901Y448493D01*
X832961Y448623D01*
X833016Y448755D01*
X833068Y448888D01*
X833117Y449023D01*
X833161Y449159D01*
X833202Y449296D01*
X833239Y449434D01*
X833272Y449573D01*
X833302Y449713D01*
X833327Y449854D01*
X833349Y449996D01*
X833366Y450138D01*
X833380Y450280D01*
X833390Y450423D01*
X833396Y450566D01*
X833398Y450709D01*
X828205Y445516D02*
X827943Y445519D01*
X827680Y445529D01*
X827418Y445544D01*
X827157Y445566D01*
X826896Y445594D01*
X826636Y445629D01*
X826376Y445670D01*
X826118Y445716D01*
X825861Y445769D01*
X825605Y445829D01*
X825351Y445894D01*
X825098Y445965D01*
X824848Y446042D01*
X824599Y446126D01*
X824352Y446215D01*
X824107Y446310D01*
X823865Y446411D01*
X823625Y446518D01*
X823388Y446630D01*
X823154Y446748D01*
X822922Y446872D01*
X822694Y447001D01*
X822468Y447136D01*
X822246Y447276D01*
X822027Y447421D01*
X821812Y447571D01*
X821601Y447727D01*
X821393Y447887D01*
X821189Y448053D01*
X820990Y448223D01*
X820794Y448398D01*
X820603Y448577D01*
X820416Y448762D01*
X821065Y463691D02*
X821067Y463834D01*
X821073Y463977D01*
X821083Y464120D01*
X821097Y464262D01*
X821114Y464404D01*
X821136Y464546D01*
X821161Y464687D01*
X821191Y464827D01*
X821224Y464966D01*
X821261Y465104D01*
X821302Y465241D01*
X821346Y465377D01*
X821395Y465512D01*
X821447Y465645D01*
X821502Y465777D01*
X821562Y465907D01*
X821625Y466036D01*
X821691Y466163D01*
X821761Y466288D01*
X821834Y466410D01*
X821911Y466531D01*
X821991Y466650D01*
X822074Y466766D01*
X822160Y466881D01*
X822249Y466992D01*
X822342Y467102D01*
X822437Y467208D01*
X822536Y467312D01*
X822637Y467413D01*
X822741Y467512D01*
X822847Y467607D01*
X822957Y467700D01*
X823068Y467789D01*
X823183Y467875D01*
X823299Y467959D01*
X823418Y468038D01*
X823539Y468115D01*
X823662Y468188D01*
X823786Y468258D01*
X823913Y468324D01*
X824042Y468387D01*
X824172Y468447D01*
X824304Y468502D01*
X824437Y468554D01*
X824572Y468603D01*
X824708Y468647D01*
X824845Y468688D01*
X824983Y468725D01*
X825122Y468758D01*
X825262Y468788D01*
X825403Y468813D01*
X825545Y468835D01*
X825687Y468852D01*
X825829Y468866D01*
X825972Y468876D01*
X826115Y468882D01*
X826258Y468884D01*
X826490Y468881D01*
X826722Y468873D01*
X826954Y468859D01*
X827185Y468840D01*
X827416Y468815D01*
X827646Y468785D01*
X827875Y468749D01*
X828103Y468708D01*
X828331Y468661D01*
X828557Y468609D01*
X828782Y468551D01*
X829005Y468488D01*
X829227Y468420D01*
X829447Y468347D01*
X829665Y468268D01*
X829882Y468185D01*
X830096Y468096D01*
X830308Y468002D01*
X830518Y467903D01*
X830726Y467799D01*
X830930Y467690D01*
X831133Y467576D01*
X831332Y467457D01*
X831529Y467334D01*
X831722Y467206D01*
X831913Y467074D01*
X832100Y466937D01*
X823661Y459147D02*
X823538Y459222D01*
X823417Y459300D01*
X823298Y459382D01*
X823182Y459466D01*
X823068Y459554D01*
X822956Y459645D01*
X822846Y459739D01*
X822740Y459836D01*
X822636Y459936D01*
X822535Y460038D01*
X822436Y460144D01*
X822341Y460252D01*
X822248Y460362D01*
X822159Y460475D01*
X822073Y460591D01*
X821989Y460708D01*
X821910Y460828D01*
X821833Y460950D01*
X821760Y461074D01*
X821690Y461200D01*
X821624Y461328D01*
X821561Y461458D01*
X821502Y461589D01*
X821446Y461722D01*
X821394Y461857D01*
X821346Y461993D01*
X821301Y462130D01*
X821261Y462268D01*
X821224Y462407D01*
X821190Y462547D01*
X821161Y462688D01*
X821136Y462830D01*
X821114Y462973D01*
X821096Y463116D01*
X821083Y463259D01*
X821073Y463403D01*
X821067Y463547D01*
X821065Y463691D01*
X830802Y455253D02*
X830925Y455178D01*
X831046Y455100D01*
X831165Y455018D01*
X831281Y454934D01*
X831395Y454846D01*
X831507Y454755D01*
X831616Y454661D01*
X831723Y454564D01*
X831827Y454464D01*
X831928Y454362D01*
X832027Y454256D01*
X832122Y454148D01*
X832215Y454038D01*
X832304Y453925D01*
X832390Y453810D01*
X832473Y453692D01*
X832553Y453572D01*
X832630Y453450D01*
X832703Y453326D01*
X832773Y453200D01*
X832839Y453072D01*
X832902Y452942D01*
X832961Y452811D01*
X833017Y452678D01*
X833069Y452543D01*
X833117Y452407D01*
X833162Y452270D01*
X833202Y452132D01*
X833239Y451993D01*
X833273Y451853D01*
X833302Y451712D01*
X833327Y451570D01*
X833349Y451427D01*
X833367Y451284D01*
X833380Y451141D01*
X833390Y450997D01*
X833396Y450853D01*
X833398Y450709D01*
X830801Y455253D02*
X823661Y459147D01*
X841319Y468884D02*
X841319Y445516D01*
X841319Y453305D02*
X851705Y461095D01*
X845863Y456551D02*
X851705Y445516D01*
X862494Y445516D02*
X868985Y445516D01*
X862494Y445516D02*
X862372Y445518D01*
X862249Y445524D01*
X862127Y445533D01*
X862006Y445547D01*
X861885Y445564D01*
X861764Y445585D01*
X861644Y445610D01*
X861525Y445638D01*
X861407Y445671D01*
X861290Y445707D01*
X861175Y445746D01*
X861060Y445790D01*
X860947Y445836D01*
X860836Y445887D01*
X860726Y445941D01*
X860618Y445998D01*
X860511Y446058D01*
X860407Y446122D01*
X860305Y446190D01*
X860205Y446260D01*
X860107Y446333D01*
X860011Y446410D01*
X859918Y446489D01*
X859828Y446572D01*
X859740Y446657D01*
X859655Y446745D01*
X859572Y446835D01*
X859493Y446928D01*
X859416Y447024D01*
X859343Y447122D01*
X859273Y447222D01*
X859205Y447324D01*
X859141Y447428D01*
X859081Y447535D01*
X859024Y447643D01*
X858970Y447753D01*
X858919Y447864D01*
X858873Y447977D01*
X858829Y448092D01*
X858790Y448207D01*
X858754Y448324D01*
X858721Y448442D01*
X858693Y448561D01*
X858668Y448681D01*
X858647Y448802D01*
X858630Y448923D01*
X858616Y449044D01*
X858607Y449166D01*
X858601Y449289D01*
X858599Y449411D01*
X858600Y449411D02*
X858600Y455902D01*
X858602Y456045D01*
X858608Y456188D01*
X858618Y456331D01*
X858632Y456473D01*
X858649Y456615D01*
X858671Y456757D01*
X858696Y456898D01*
X858726Y457038D01*
X858759Y457177D01*
X858796Y457315D01*
X858837Y457452D01*
X858881Y457588D01*
X858930Y457723D01*
X858982Y457856D01*
X859037Y457988D01*
X859097Y458118D01*
X859160Y458247D01*
X859226Y458374D01*
X859296Y458499D01*
X859369Y458621D01*
X859446Y458742D01*
X859526Y458861D01*
X859609Y458977D01*
X859695Y459092D01*
X859784Y459203D01*
X859877Y459313D01*
X859972Y459419D01*
X860071Y459523D01*
X860172Y459624D01*
X860276Y459723D01*
X860382Y459818D01*
X860492Y459911D01*
X860603Y460000D01*
X860718Y460086D01*
X860834Y460169D01*
X860953Y460249D01*
X861074Y460326D01*
X861197Y460399D01*
X861321Y460469D01*
X861448Y460535D01*
X861577Y460598D01*
X861707Y460658D01*
X861839Y460713D01*
X861972Y460765D01*
X862107Y460814D01*
X862243Y460858D01*
X862380Y460899D01*
X862518Y460936D01*
X862657Y460969D01*
X862797Y460999D01*
X862938Y461024D01*
X863080Y461046D01*
X863222Y461063D01*
X863364Y461077D01*
X863507Y461087D01*
X863650Y461093D01*
X863793Y461095D01*
X863936Y461093D01*
X864079Y461087D01*
X864222Y461077D01*
X864364Y461063D01*
X864506Y461046D01*
X864648Y461024D01*
X864789Y460999D01*
X864929Y460969D01*
X865068Y460936D01*
X865206Y460899D01*
X865343Y460858D01*
X865479Y460814D01*
X865614Y460765D01*
X865747Y460713D01*
X865879Y460658D01*
X866009Y460598D01*
X866138Y460535D01*
X866265Y460469D01*
X866390Y460399D01*
X866512Y460326D01*
X866633Y460249D01*
X866752Y460169D01*
X866868Y460086D01*
X866983Y460000D01*
X867094Y459911D01*
X867204Y459818D01*
X867310Y459723D01*
X867414Y459624D01*
X867515Y459523D01*
X867614Y459419D01*
X867709Y459313D01*
X867802Y459203D01*
X867891Y459092D01*
X867977Y458977D01*
X868060Y458861D01*
X868140Y458742D01*
X868217Y458621D01*
X868290Y458499D01*
X868360Y458374D01*
X868426Y458247D01*
X868489Y458118D01*
X868549Y457988D01*
X868604Y457856D01*
X868656Y457723D01*
X868705Y457588D01*
X868749Y457452D01*
X868790Y457315D01*
X868827Y457177D01*
X868860Y457038D01*
X868890Y456898D01*
X868915Y456757D01*
X868937Y456615D01*
X868954Y456473D01*
X868968Y456331D01*
X868978Y456188D01*
X868984Y456045D01*
X868986Y455902D01*
X868985Y455902D02*
X868985Y453305D01*
X858600Y453305D01*
X875125Y461095D02*
X882914Y461095D01*
X877722Y468884D02*
X877722Y449411D01*
X877721Y449411D02*
X877723Y449289D01*
X877729Y449166D01*
X877738Y449044D01*
X877752Y448923D01*
X877769Y448802D01*
X877790Y448681D01*
X877815Y448561D01*
X877843Y448442D01*
X877876Y448324D01*
X877912Y448207D01*
X877951Y448092D01*
X877995Y447977D01*
X878041Y447864D01*
X878092Y447753D01*
X878146Y447643D01*
X878203Y447535D01*
X878263Y447428D01*
X878327Y447324D01*
X878395Y447222D01*
X878465Y447122D01*
X878538Y447024D01*
X878615Y446928D01*
X878694Y446835D01*
X878777Y446745D01*
X878862Y446657D01*
X878950Y446572D01*
X879040Y446489D01*
X879133Y446410D01*
X879229Y446333D01*
X879327Y446260D01*
X879427Y446190D01*
X879529Y446122D01*
X879633Y446058D01*
X879740Y445998D01*
X879848Y445941D01*
X879958Y445887D01*
X880069Y445836D01*
X880182Y445790D01*
X880297Y445746D01*
X880412Y445707D01*
X880529Y445671D01*
X880647Y445638D01*
X880766Y445610D01*
X880886Y445585D01*
X881007Y445564D01*
X881128Y445547D01*
X881249Y445533D01*
X881371Y445524D01*
X881494Y445518D01*
X881616Y445516D01*
X882914Y445516D01*
X893827Y445516D02*
X899020Y445516D01*
X893827Y445516D02*
X893705Y445518D01*
X893582Y445524D01*
X893460Y445533D01*
X893339Y445547D01*
X893218Y445564D01*
X893097Y445585D01*
X892977Y445610D01*
X892858Y445638D01*
X892740Y445671D01*
X892623Y445707D01*
X892508Y445746D01*
X892393Y445790D01*
X892280Y445836D01*
X892169Y445887D01*
X892059Y445941D01*
X891951Y445998D01*
X891844Y446058D01*
X891740Y446122D01*
X891638Y446190D01*
X891538Y446260D01*
X891440Y446333D01*
X891344Y446410D01*
X891251Y446489D01*
X891161Y446572D01*
X891073Y446657D01*
X890988Y446745D01*
X890905Y446835D01*
X890826Y446928D01*
X890749Y447024D01*
X890676Y447122D01*
X890606Y447222D01*
X890538Y447324D01*
X890474Y447428D01*
X890414Y447535D01*
X890357Y447643D01*
X890303Y447753D01*
X890252Y447864D01*
X890206Y447977D01*
X890162Y448092D01*
X890123Y448207D01*
X890087Y448324D01*
X890054Y448442D01*
X890026Y448561D01*
X890001Y448681D01*
X889980Y448802D01*
X889963Y448923D01*
X889949Y449044D01*
X889940Y449166D01*
X889934Y449289D01*
X889932Y449411D01*
X889932Y457200D01*
X889934Y457322D01*
X889940Y457445D01*
X889949Y457567D01*
X889963Y457688D01*
X889980Y457809D01*
X890001Y457930D01*
X890026Y458050D01*
X890054Y458169D01*
X890087Y458287D01*
X890123Y458404D01*
X890162Y458519D01*
X890206Y458634D01*
X890252Y458747D01*
X890303Y458858D01*
X890357Y458968D01*
X890414Y459076D01*
X890474Y459183D01*
X890538Y459287D01*
X890606Y459389D01*
X890676Y459489D01*
X890749Y459587D01*
X890826Y459683D01*
X890905Y459776D01*
X890988Y459866D01*
X891073Y459954D01*
X891161Y460039D01*
X891251Y460122D01*
X891344Y460201D01*
X891440Y460278D01*
X891538Y460351D01*
X891638Y460421D01*
X891740Y460489D01*
X891844Y460553D01*
X891951Y460613D01*
X892059Y460670D01*
X892169Y460724D01*
X892280Y460775D01*
X892393Y460821D01*
X892508Y460865D01*
X892623Y460904D01*
X892740Y460940D01*
X892858Y460973D01*
X892977Y461001D01*
X893097Y461026D01*
X893218Y461047D01*
X893339Y461064D01*
X893460Y461078D01*
X893582Y461087D01*
X893705Y461093D01*
X893827Y461095D01*
X899020Y461095D01*
X906621Y468884D02*
X906621Y445516D01*
X906621Y461095D02*
X913112Y461095D01*
X913234Y461093D01*
X913357Y461087D01*
X913479Y461078D01*
X913600Y461064D01*
X913721Y461047D01*
X913842Y461026D01*
X913962Y461001D01*
X914081Y460973D01*
X914199Y460940D01*
X914316Y460904D01*
X914431Y460865D01*
X914546Y460821D01*
X914659Y460775D01*
X914770Y460724D01*
X914880Y460670D01*
X914988Y460613D01*
X915095Y460553D01*
X915199Y460489D01*
X915301Y460421D01*
X915401Y460351D01*
X915499Y460278D01*
X915595Y460201D01*
X915688Y460122D01*
X915778Y460039D01*
X915866Y459954D01*
X915951Y459866D01*
X916034Y459776D01*
X916113Y459683D01*
X916190Y459587D01*
X916263Y459489D01*
X916333Y459389D01*
X916401Y459287D01*
X916465Y459183D01*
X916525Y459076D01*
X916582Y458968D01*
X916636Y458858D01*
X916687Y458747D01*
X916733Y458634D01*
X916777Y458519D01*
X916816Y458404D01*
X916852Y458287D01*
X916885Y458169D01*
X916913Y458050D01*
X916938Y457930D01*
X916959Y457809D01*
X916976Y457688D01*
X916990Y457567D01*
X916999Y457445D01*
X917005Y457322D01*
X917007Y457200D01*
X917007Y445516D01*
X697202Y407416D02*
X686816Y407416D01*
X686816Y430784D01*
X697202Y430784D01*
X694605Y420398D02*
X686816Y420398D01*
X704887Y430784D02*
X704887Y407416D01*
X717869Y407416D02*
X704887Y430784D01*
X717869Y430784D02*
X717869Y407416D01*
X736245Y420398D02*
X740139Y420398D01*
X740139Y407416D01*
X732350Y407416D01*
X732207Y407418D01*
X732064Y407424D01*
X731921Y407434D01*
X731779Y407448D01*
X731637Y407465D01*
X731495Y407487D01*
X731354Y407512D01*
X731214Y407542D01*
X731075Y407575D01*
X730937Y407612D01*
X730800Y407653D01*
X730664Y407697D01*
X730529Y407746D01*
X730396Y407798D01*
X730264Y407853D01*
X730134Y407913D01*
X730005Y407976D01*
X729878Y408042D01*
X729754Y408112D01*
X729631Y408185D01*
X729510Y408262D01*
X729391Y408342D01*
X729275Y408425D01*
X729160Y408511D01*
X729049Y408600D01*
X728939Y408693D01*
X728833Y408788D01*
X728729Y408887D01*
X728628Y408988D01*
X728529Y409092D01*
X728434Y409198D01*
X728341Y409308D01*
X728252Y409419D01*
X728166Y409534D01*
X728083Y409650D01*
X728003Y409769D01*
X727926Y409890D01*
X727853Y410013D01*
X727783Y410137D01*
X727717Y410264D01*
X727654Y410393D01*
X727594Y410523D01*
X727539Y410655D01*
X727487Y410788D01*
X727438Y410923D01*
X727394Y411059D01*
X727353Y411196D01*
X727316Y411334D01*
X727283Y411473D01*
X727253Y411613D01*
X727228Y411754D01*
X727206Y411896D01*
X727189Y412038D01*
X727175Y412180D01*
X727165Y412323D01*
X727159Y412466D01*
X727157Y412609D01*
X727157Y425591D01*
X727159Y425734D01*
X727165Y425877D01*
X727175Y426020D01*
X727189Y426162D01*
X727206Y426304D01*
X727228Y426446D01*
X727253Y426587D01*
X727283Y426727D01*
X727316Y426866D01*
X727353Y427004D01*
X727394Y427141D01*
X727438Y427277D01*
X727487Y427412D01*
X727539Y427545D01*
X727594Y427677D01*
X727654Y427807D01*
X727717Y427936D01*
X727783Y428063D01*
X727853Y428187D01*
X727926Y428310D01*
X728003Y428431D01*
X728083Y428550D01*
X728166Y428666D01*
X728252Y428781D01*
X728341Y428892D01*
X728434Y429002D01*
X728529Y429108D01*
X728628Y429212D01*
X728729Y429313D01*
X728833Y429412D01*
X728939Y429507D01*
X729049Y429600D01*
X729160Y429689D01*
X729275Y429775D01*
X729391Y429858D01*
X729510Y429938D01*
X729631Y430015D01*
X729753Y430088D01*
X729878Y430158D01*
X730005Y430224D01*
X730134Y430287D01*
X730264Y430347D01*
X730396Y430402D01*
X730529Y430454D01*
X730664Y430503D01*
X730800Y430547D01*
X730937Y430588D01*
X731075Y430625D01*
X731214Y430658D01*
X731354Y430688D01*
X731495Y430713D01*
X731637Y430735D01*
X731779Y430752D01*
X731921Y430766D01*
X732064Y430776D01*
X732207Y430782D01*
X732350Y430784D01*
X740139Y430784D01*
X751047Y430784D02*
X751047Y407416D01*
X748451Y407416D02*
X753644Y407416D01*
X753644Y430784D02*
X748451Y430784D01*
X772395Y407416D02*
X778886Y407416D01*
X779045Y407418D01*
X779204Y407424D01*
X779364Y407434D01*
X779522Y407447D01*
X779681Y407465D01*
X779838Y407486D01*
X779996Y407512D01*
X780152Y407541D01*
X780308Y407574D01*
X780463Y407611D01*
X780617Y407651D01*
X780770Y407696D01*
X780922Y407744D01*
X781073Y407795D01*
X781222Y407851D01*
X781370Y407910D01*
X781516Y407973D01*
X781661Y408039D01*
X781804Y408109D01*
X781946Y408182D01*
X782085Y408259D01*
X782223Y408339D01*
X782359Y408423D01*
X782492Y408510D01*
X782624Y408600D01*
X782753Y408693D01*
X782879Y408790D01*
X783004Y408889D01*
X783126Y408992D01*
X783245Y409097D01*
X783362Y409206D01*
X783476Y409317D01*
X783587Y409431D01*
X783696Y409548D01*
X783801Y409667D01*
X783904Y409789D01*
X784003Y409914D01*
X784100Y410040D01*
X784193Y410169D01*
X784283Y410301D01*
X784370Y410434D01*
X784454Y410570D01*
X784534Y410708D01*
X784611Y410847D01*
X784684Y410989D01*
X784754Y411132D01*
X784820Y411277D01*
X784883Y411423D01*
X784942Y411571D01*
X784998Y411720D01*
X785049Y411871D01*
X785097Y412023D01*
X785142Y412176D01*
X785182Y412330D01*
X785219Y412485D01*
X785252Y412641D01*
X785281Y412797D01*
X785307Y412955D01*
X785328Y413112D01*
X785346Y413271D01*
X785359Y413429D01*
X785369Y413589D01*
X785375Y413748D01*
X785377Y413907D01*
X785375Y414066D01*
X785369Y414225D01*
X785359Y414385D01*
X785346Y414543D01*
X785328Y414702D01*
X785307Y414859D01*
X785281Y415017D01*
X785252Y415173D01*
X785219Y415329D01*
X785182Y415484D01*
X785142Y415638D01*
X785097Y415791D01*
X785049Y415943D01*
X784998Y416094D01*
X784942Y416243D01*
X784883Y416391D01*
X784820Y416537D01*
X784754Y416682D01*
X784684Y416825D01*
X784611Y416967D01*
X784534Y417106D01*
X784454Y417244D01*
X784370Y417380D01*
X784283Y417513D01*
X784193Y417645D01*
X784100Y417774D01*
X784003Y417900D01*
X783904Y418025D01*
X783801Y418147D01*
X783696Y418266D01*
X783587Y418383D01*
X783476Y418497D01*
X783362Y418608D01*
X783245Y418717D01*
X783126Y418822D01*
X783004Y418925D01*
X782879Y419024D01*
X782753Y419121D01*
X782624Y419214D01*
X782492Y419304D01*
X782359Y419391D01*
X782223Y419475D01*
X782085Y419555D01*
X781946Y419632D01*
X781804Y419705D01*
X781661Y419775D01*
X781516Y419841D01*
X781370Y419904D01*
X781222Y419963D01*
X781073Y420019D01*
X780922Y420070D01*
X780770Y420118D01*
X780617Y420163D01*
X780463Y420203D01*
X780308Y420240D01*
X780152Y420273D01*
X779996Y420302D01*
X779838Y420328D01*
X779681Y420349D01*
X779522Y420367D01*
X779364Y420380D01*
X779204Y420390D01*
X779045Y420396D01*
X778886Y420398D01*
X780184Y430784D02*
X772395Y430784D01*
X780184Y430784D02*
X780327Y430782D01*
X780470Y430776D01*
X780613Y430766D01*
X780755Y430752D01*
X780897Y430735D01*
X781039Y430713D01*
X781180Y430688D01*
X781320Y430658D01*
X781459Y430625D01*
X781597Y430588D01*
X781734Y430547D01*
X781870Y430503D01*
X782005Y430454D01*
X782138Y430402D01*
X782270Y430347D01*
X782400Y430287D01*
X782529Y430224D01*
X782656Y430158D01*
X782781Y430088D01*
X782903Y430015D01*
X783024Y429938D01*
X783143Y429858D01*
X783259Y429775D01*
X783374Y429689D01*
X783485Y429600D01*
X783595Y429507D01*
X783701Y429412D01*
X783805Y429313D01*
X783906Y429212D01*
X784005Y429108D01*
X784100Y429002D01*
X784193Y428892D01*
X784282Y428781D01*
X784368Y428666D01*
X784451Y428550D01*
X784531Y428431D01*
X784608Y428310D01*
X784681Y428187D01*
X784751Y428063D01*
X784817Y427936D01*
X784880Y427807D01*
X784940Y427677D01*
X784995Y427545D01*
X785047Y427412D01*
X785096Y427277D01*
X785140Y427141D01*
X785181Y427004D01*
X785218Y426866D01*
X785251Y426727D01*
X785281Y426587D01*
X785306Y426446D01*
X785328Y426304D01*
X785345Y426162D01*
X785359Y426020D01*
X785369Y425877D01*
X785375Y425734D01*
X785377Y425591D01*
X785375Y425448D01*
X785369Y425305D01*
X785359Y425162D01*
X785345Y425020D01*
X785328Y424878D01*
X785306Y424736D01*
X785281Y424595D01*
X785251Y424455D01*
X785218Y424316D01*
X785181Y424178D01*
X785140Y424041D01*
X785096Y423905D01*
X785047Y423770D01*
X784995Y423637D01*
X784940Y423505D01*
X784880Y423375D01*
X784817Y423246D01*
X784751Y423119D01*
X784681Y422994D01*
X784608Y422872D01*
X784531Y422751D01*
X784451Y422632D01*
X784368Y422516D01*
X784282Y422401D01*
X784193Y422290D01*
X784100Y422180D01*
X784005Y422074D01*
X783906Y421970D01*
X783805Y421869D01*
X783701Y421770D01*
X783595Y421675D01*
X783485Y421582D01*
X783374Y421493D01*
X783259Y421407D01*
X783143Y421324D01*
X783024Y421244D01*
X782903Y421167D01*
X782781Y421094D01*
X782656Y421024D01*
X782529Y420958D01*
X782400Y420895D01*
X782270Y420835D01*
X782138Y420780D01*
X782005Y420728D01*
X781870Y420679D01*
X781734Y420635D01*
X781597Y420594D01*
X781459Y420557D01*
X781320Y420524D01*
X781180Y420494D01*
X781039Y420469D01*
X780897Y420447D01*
X780755Y420430D01*
X780613Y420416D01*
X780470Y420406D01*
X780327Y420400D01*
X780184Y420398D01*
X774991Y420398D01*
X793273Y419100D02*
X793278Y419560D01*
X793295Y420019D01*
X793322Y420478D01*
X793361Y420936D01*
X793410Y421393D01*
X793470Y421849D01*
X793541Y422303D01*
X793623Y422756D01*
X793716Y423206D01*
X793819Y423654D01*
X793933Y424099D01*
X794058Y424542D01*
X794193Y424981D01*
X794339Y425417D01*
X794495Y425849D01*
X794661Y426278D01*
X794837Y426703D01*
X795024Y427123D01*
X795220Y427538D01*
X795221Y427539D02*
X795266Y427666D01*
X795316Y427792D01*
X795368Y427917D01*
X795425Y428040D01*
X795485Y428162D01*
X795548Y428281D01*
X795614Y428399D01*
X795684Y428515D01*
X795757Y428629D01*
X795833Y428741D01*
X795913Y428851D01*
X795995Y428958D01*
X796081Y429063D01*
X796169Y429166D01*
X796260Y429266D01*
X796354Y429364D01*
X796451Y429458D01*
X796550Y429550D01*
X796652Y429640D01*
X796756Y429726D01*
X796863Y429809D01*
X796972Y429889D01*
X797084Y429967D01*
X797197Y430040D01*
X797312Y430111D01*
X797430Y430179D01*
X797549Y430243D01*
X797670Y430304D01*
X797793Y430361D01*
X797917Y430415D01*
X798043Y430465D01*
X798170Y430512D01*
X798298Y430555D01*
X798428Y430594D01*
X798558Y430630D01*
X798690Y430662D01*
X798822Y430691D01*
X798955Y430715D01*
X799089Y430736D01*
X799224Y430753D01*
X799358Y430767D01*
X799493Y430776D01*
X799629Y430782D01*
X799764Y430784D01*
X799899Y430782D01*
X800035Y430776D01*
X800170Y430767D01*
X800305Y430753D01*
X800439Y430736D01*
X800573Y430715D01*
X800706Y430691D01*
X800838Y430662D01*
X800970Y430630D01*
X801100Y430594D01*
X801230Y430555D01*
X801358Y430512D01*
X801485Y430465D01*
X801611Y430415D01*
X801735Y430361D01*
X801858Y430304D01*
X801979Y430243D01*
X802098Y430179D01*
X802216Y430111D01*
X802331Y430040D01*
X802444Y429966D01*
X802556Y429889D01*
X802665Y429809D01*
X802772Y429726D01*
X802876Y429640D01*
X802978Y429550D01*
X803077Y429458D01*
X803174Y429364D01*
X803268Y429266D01*
X803359Y429166D01*
X803447Y429063D01*
X803533Y428958D01*
X803615Y428851D01*
X803695Y428741D01*
X803771Y428629D01*
X803844Y428515D01*
X803914Y428399D01*
X803980Y428281D01*
X804043Y428162D01*
X804103Y428040D01*
X804160Y427917D01*
X804212Y427792D01*
X804262Y427666D01*
X804307Y427539D01*
X804309Y427539D02*
X804505Y427123D01*
X804692Y426703D01*
X804868Y426278D01*
X805034Y425850D01*
X805190Y425417D01*
X805336Y424981D01*
X805471Y424542D01*
X805596Y424099D01*
X805710Y423654D01*
X805813Y423206D01*
X805906Y422756D01*
X805988Y422303D01*
X806059Y421849D01*
X806119Y421393D01*
X806168Y420936D01*
X806207Y420478D01*
X806234Y420019D01*
X806251Y419560D01*
X806256Y419100D01*
X793274Y419100D02*
X793279Y418640D01*
X793296Y418181D01*
X793323Y417722D01*
X793362Y417264D01*
X793411Y416807D01*
X793471Y416351D01*
X793542Y415897D01*
X793624Y415445D01*
X793717Y414994D01*
X793820Y414546D01*
X793934Y414101D01*
X794059Y413658D01*
X794194Y413219D01*
X794340Y412783D01*
X794496Y412351D01*
X794662Y411922D01*
X794838Y411497D01*
X795025Y411077D01*
X795221Y410662D01*
X795221Y410661D02*
X795266Y410534D01*
X795316Y410408D01*
X795368Y410283D01*
X795425Y410160D01*
X795485Y410038D01*
X795548Y409919D01*
X795614Y409801D01*
X795684Y409685D01*
X795757Y409571D01*
X795833Y409459D01*
X795913Y409349D01*
X795995Y409242D01*
X796081Y409137D01*
X796169Y409034D01*
X796260Y408934D01*
X796354Y408836D01*
X796451Y408742D01*
X796550Y408650D01*
X796652Y408560D01*
X796757Y408474D01*
X796863Y408391D01*
X796972Y408311D01*
X797084Y408233D01*
X797197Y408160D01*
X797312Y408089D01*
X797430Y408021D01*
X797549Y407957D01*
X797670Y407896D01*
X797793Y407839D01*
X797917Y407785D01*
X798043Y407735D01*
X798170Y407688D01*
X798298Y407645D01*
X798428Y407606D01*
X798558Y407570D01*
X798690Y407538D01*
X798822Y407509D01*
X798955Y407485D01*
X799089Y407464D01*
X799224Y407447D01*
X799358Y407433D01*
X799493Y407424D01*
X799629Y407418D01*
X799764Y407416D01*
X804308Y410662D02*
X804504Y411077D01*
X804691Y411497D01*
X804867Y411922D01*
X805033Y412350D01*
X805189Y412783D01*
X805335Y413219D01*
X805470Y413658D01*
X805595Y414101D01*
X805709Y414546D01*
X805812Y414994D01*
X805905Y415444D01*
X805987Y415897D01*
X806058Y416351D01*
X806118Y416807D01*
X806167Y417264D01*
X806206Y417722D01*
X806233Y418181D01*
X806250Y418640D01*
X806255Y419100D01*
X804307Y410661D02*
X804262Y410534D01*
X804212Y410408D01*
X804160Y410283D01*
X804103Y410160D01*
X804043Y410038D01*
X803980Y409919D01*
X803914Y409801D01*
X803844Y409685D01*
X803771Y409571D01*
X803695Y409459D01*
X803615Y409349D01*
X803533Y409242D01*
X803447Y409137D01*
X803359Y409034D01*
X803268Y408934D01*
X803174Y408836D01*
X803077Y408742D01*
X802978Y408650D01*
X802876Y408560D01*
X802772Y408474D01*
X802665Y408391D01*
X802556Y408311D01*
X802444Y408233D01*
X802331Y408160D01*
X802216Y408089D01*
X802098Y408021D01*
X801979Y407957D01*
X801858Y407896D01*
X801735Y407839D01*
X801611Y407785D01*
X801485Y407735D01*
X801358Y407688D01*
X801230Y407645D01*
X801100Y407606D01*
X800970Y407570D01*
X800838Y407538D01*
X800706Y407509D01*
X800573Y407485D01*
X800439Y407464D01*
X800304Y407447D01*
X800170Y407433D01*
X800035Y407424D01*
X799899Y407418D01*
X799764Y407416D01*
X794572Y412609D02*
X804957Y425591D01*
X814152Y425591D02*
X820643Y430784D01*
X820643Y407416D01*
X814152Y407416D02*
X827134Y407416D01*
X694605Y369316D02*
X686816Y392684D01*
X702395Y392684D02*
X694605Y369316D01*
X707695Y369316D02*
X715484Y392684D01*
X723273Y369316D01*
X721326Y375158D02*
X709642Y375158D01*
X736965Y369316D02*
X737108Y369318D01*
X737251Y369324D01*
X737394Y369334D01*
X737536Y369348D01*
X737678Y369365D01*
X737820Y369387D01*
X737961Y369412D01*
X738101Y369442D01*
X738240Y369475D01*
X738378Y369512D01*
X738515Y369553D01*
X738651Y369597D01*
X738786Y369646D01*
X738919Y369698D01*
X739051Y369753D01*
X739181Y369813D01*
X739310Y369876D01*
X739437Y369942D01*
X739562Y370012D01*
X739684Y370085D01*
X739805Y370162D01*
X739924Y370242D01*
X740040Y370325D01*
X740155Y370411D01*
X740266Y370500D01*
X740376Y370593D01*
X740482Y370688D01*
X740586Y370787D01*
X740687Y370888D01*
X740786Y370992D01*
X740881Y371098D01*
X740974Y371208D01*
X741063Y371319D01*
X741149Y371434D01*
X741232Y371550D01*
X741312Y371669D01*
X741389Y371790D01*
X741462Y371912D01*
X741532Y372037D01*
X741598Y372164D01*
X741661Y372293D01*
X741721Y372423D01*
X741776Y372555D01*
X741828Y372688D01*
X741877Y372823D01*
X741921Y372959D01*
X741962Y373096D01*
X741999Y373234D01*
X742032Y373373D01*
X742062Y373513D01*
X742087Y373654D01*
X742109Y373796D01*
X742126Y373938D01*
X742140Y374080D01*
X742150Y374223D01*
X742156Y374366D01*
X742158Y374509D01*
X736965Y369316D02*
X736703Y369319D01*
X736440Y369329D01*
X736178Y369344D01*
X735917Y369366D01*
X735656Y369394D01*
X735396Y369429D01*
X735136Y369470D01*
X734878Y369516D01*
X734621Y369569D01*
X734365Y369629D01*
X734111Y369694D01*
X733858Y369765D01*
X733608Y369842D01*
X733359Y369926D01*
X733112Y370015D01*
X732867Y370110D01*
X732625Y370211D01*
X732385Y370318D01*
X732148Y370430D01*
X731914Y370548D01*
X731682Y370672D01*
X731454Y370801D01*
X731228Y370936D01*
X731006Y371076D01*
X730787Y371221D01*
X730572Y371371D01*
X730361Y371527D01*
X730153Y371687D01*
X729949Y371853D01*
X729750Y372023D01*
X729554Y372198D01*
X729363Y372377D01*
X729176Y372562D01*
X729825Y387491D02*
X729827Y387634D01*
X729833Y387777D01*
X729843Y387920D01*
X729857Y388062D01*
X729874Y388204D01*
X729896Y388346D01*
X729921Y388487D01*
X729951Y388627D01*
X729984Y388766D01*
X730021Y388904D01*
X730062Y389041D01*
X730106Y389177D01*
X730155Y389312D01*
X730207Y389445D01*
X730262Y389577D01*
X730322Y389707D01*
X730385Y389836D01*
X730451Y389963D01*
X730521Y390088D01*
X730594Y390210D01*
X730671Y390331D01*
X730751Y390450D01*
X730834Y390566D01*
X730920Y390681D01*
X731009Y390792D01*
X731102Y390902D01*
X731197Y391008D01*
X731296Y391112D01*
X731397Y391213D01*
X731501Y391312D01*
X731607Y391407D01*
X731717Y391500D01*
X731828Y391589D01*
X731943Y391675D01*
X732059Y391759D01*
X732178Y391838D01*
X732299Y391915D01*
X732422Y391988D01*
X732546Y392058D01*
X732673Y392124D01*
X732802Y392187D01*
X732932Y392247D01*
X733064Y392302D01*
X733197Y392354D01*
X733332Y392403D01*
X733468Y392447D01*
X733605Y392488D01*
X733743Y392525D01*
X733882Y392558D01*
X734022Y392588D01*
X734163Y392613D01*
X734305Y392635D01*
X734447Y392652D01*
X734589Y392666D01*
X734732Y392676D01*
X734875Y392682D01*
X735018Y392684D01*
X735250Y392681D01*
X735482Y392673D01*
X735714Y392659D01*
X735945Y392640D01*
X736176Y392615D01*
X736406Y392585D01*
X736635Y392549D01*
X736863Y392508D01*
X737091Y392461D01*
X737317Y392409D01*
X737542Y392351D01*
X737765Y392288D01*
X737987Y392220D01*
X738207Y392147D01*
X738425Y392068D01*
X738642Y391985D01*
X738856Y391896D01*
X739068Y391802D01*
X739278Y391703D01*
X739486Y391599D01*
X739690Y391490D01*
X739893Y391376D01*
X740092Y391257D01*
X740289Y391134D01*
X740482Y391006D01*
X740673Y390874D01*
X740860Y390737D01*
X732421Y382947D02*
X732298Y383022D01*
X732177Y383100D01*
X732058Y383182D01*
X731942Y383266D01*
X731828Y383354D01*
X731716Y383445D01*
X731606Y383539D01*
X731500Y383636D01*
X731396Y383736D01*
X731295Y383838D01*
X731196Y383944D01*
X731101Y384052D01*
X731008Y384162D01*
X730919Y384275D01*
X730833Y384391D01*
X730749Y384508D01*
X730670Y384628D01*
X730593Y384750D01*
X730520Y384874D01*
X730450Y385000D01*
X730384Y385128D01*
X730321Y385258D01*
X730262Y385389D01*
X730206Y385522D01*
X730154Y385657D01*
X730106Y385793D01*
X730061Y385930D01*
X730021Y386068D01*
X729984Y386207D01*
X729950Y386347D01*
X729921Y386488D01*
X729896Y386630D01*
X729874Y386773D01*
X729856Y386916D01*
X729843Y387059D01*
X729833Y387203D01*
X729827Y387347D01*
X729825Y387491D01*
X739562Y379053D02*
X739685Y378978D01*
X739806Y378900D01*
X739925Y378818D01*
X740041Y378734D01*
X740155Y378646D01*
X740267Y378555D01*
X740376Y378461D01*
X740483Y378364D01*
X740587Y378264D01*
X740688Y378162D01*
X740787Y378056D01*
X740882Y377948D01*
X740975Y377838D01*
X741064Y377725D01*
X741150Y377610D01*
X741233Y377492D01*
X741313Y377372D01*
X741390Y377250D01*
X741463Y377126D01*
X741533Y377000D01*
X741599Y376872D01*
X741662Y376742D01*
X741721Y376611D01*
X741777Y376478D01*
X741829Y376343D01*
X741877Y376207D01*
X741922Y376070D01*
X741962Y375932D01*
X741999Y375793D01*
X742033Y375653D01*
X742062Y375512D01*
X742087Y375370D01*
X742109Y375227D01*
X742127Y375084D01*
X742140Y374941D01*
X742150Y374797D01*
X742156Y374653D01*
X742158Y374509D01*
X739562Y379053D02*
X732421Y382947D01*
X686816Y354584D02*
X686816Y331216D01*
X686816Y354584D02*
X693307Y354584D01*
X693466Y354582D01*
X693625Y354576D01*
X693785Y354566D01*
X693943Y354553D01*
X694102Y354535D01*
X694259Y354514D01*
X694417Y354488D01*
X694573Y354459D01*
X694729Y354426D01*
X694884Y354389D01*
X695038Y354349D01*
X695191Y354304D01*
X695343Y354256D01*
X695494Y354205D01*
X695643Y354149D01*
X695791Y354090D01*
X695937Y354027D01*
X696082Y353961D01*
X696225Y353891D01*
X696367Y353818D01*
X696506Y353741D01*
X696644Y353661D01*
X696780Y353577D01*
X696913Y353490D01*
X697045Y353400D01*
X697174Y353307D01*
X697300Y353210D01*
X697425Y353111D01*
X697547Y353008D01*
X697666Y352903D01*
X697783Y352794D01*
X697897Y352683D01*
X698008Y352569D01*
X698117Y352452D01*
X698222Y352333D01*
X698325Y352211D01*
X698424Y352086D01*
X698521Y351960D01*
X698614Y351831D01*
X698704Y351699D01*
X698791Y351566D01*
X698875Y351430D01*
X698955Y351292D01*
X699032Y351153D01*
X699105Y351011D01*
X699175Y350868D01*
X699241Y350723D01*
X699304Y350577D01*
X699363Y350429D01*
X699419Y350280D01*
X699470Y350129D01*
X699518Y349977D01*
X699563Y349824D01*
X699603Y349670D01*
X699640Y349515D01*
X699673Y349359D01*
X699702Y349203D01*
X699728Y349045D01*
X699749Y348888D01*
X699767Y348729D01*
X699780Y348571D01*
X699790Y348411D01*
X699796Y348252D01*
X699798Y348093D01*
X699796Y347934D01*
X699790Y347775D01*
X699780Y347615D01*
X699767Y347457D01*
X699749Y347298D01*
X699728Y347141D01*
X699702Y346983D01*
X699673Y346827D01*
X699640Y346671D01*
X699603Y346516D01*
X699563Y346362D01*
X699518Y346209D01*
X699470Y346057D01*
X699419Y345906D01*
X699363Y345757D01*
X699304Y345609D01*
X699241Y345463D01*
X699175Y345318D01*
X699105Y345175D01*
X699032Y345033D01*
X698955Y344894D01*
X698875Y344756D01*
X698791Y344620D01*
X698704Y344487D01*
X698614Y344355D01*
X698521Y344226D01*
X698424Y344100D01*
X698325Y343975D01*
X698222Y343853D01*
X698117Y343734D01*
X698008Y343617D01*
X697897Y343503D01*
X697783Y343392D01*
X697666Y343283D01*
X697547Y343178D01*
X697425Y343075D01*
X697300Y342976D01*
X697174Y342879D01*
X697045Y342786D01*
X696913Y342696D01*
X696780Y342609D01*
X696644Y342525D01*
X696506Y342445D01*
X696367Y342368D01*
X696225Y342295D01*
X696082Y342225D01*
X695937Y342159D01*
X695791Y342096D01*
X695643Y342037D01*
X695494Y341981D01*
X695343Y341930D01*
X695191Y341882D01*
X695038Y341837D01*
X694884Y341797D01*
X694729Y341760D01*
X694573Y341727D01*
X694417Y341698D01*
X694259Y341672D01*
X694102Y341651D01*
X693943Y341633D01*
X693785Y341620D01*
X693625Y341610D01*
X693466Y341604D01*
X693307Y341602D01*
X686816Y341602D01*
X694605Y341602D02*
X699798Y331216D01*
X711432Y331216D02*
X717923Y331216D01*
X711432Y331216D02*
X711310Y331218D01*
X711187Y331224D01*
X711065Y331233D01*
X710944Y331247D01*
X710823Y331264D01*
X710702Y331285D01*
X710582Y331310D01*
X710463Y331338D01*
X710345Y331371D01*
X710228Y331407D01*
X710113Y331446D01*
X709998Y331490D01*
X709885Y331536D01*
X709774Y331587D01*
X709664Y331641D01*
X709556Y331698D01*
X709449Y331758D01*
X709345Y331822D01*
X709243Y331890D01*
X709143Y331960D01*
X709045Y332033D01*
X708949Y332110D01*
X708856Y332189D01*
X708766Y332272D01*
X708678Y332357D01*
X708593Y332445D01*
X708510Y332535D01*
X708431Y332628D01*
X708354Y332724D01*
X708281Y332822D01*
X708211Y332922D01*
X708143Y333024D01*
X708079Y333128D01*
X708019Y333235D01*
X707962Y333343D01*
X707908Y333453D01*
X707857Y333564D01*
X707811Y333677D01*
X707767Y333792D01*
X707728Y333907D01*
X707692Y334024D01*
X707659Y334142D01*
X707631Y334261D01*
X707606Y334381D01*
X707585Y334502D01*
X707568Y334623D01*
X707554Y334744D01*
X707545Y334866D01*
X707539Y334989D01*
X707537Y335111D01*
X707537Y341602D01*
X707539Y341745D01*
X707545Y341888D01*
X707555Y342031D01*
X707569Y342173D01*
X707586Y342315D01*
X707608Y342457D01*
X707633Y342598D01*
X707663Y342738D01*
X707696Y342877D01*
X707733Y343015D01*
X707774Y343152D01*
X707818Y343288D01*
X707867Y343423D01*
X707919Y343556D01*
X707974Y343688D01*
X708034Y343818D01*
X708097Y343947D01*
X708163Y344074D01*
X708233Y344199D01*
X708306Y344321D01*
X708383Y344442D01*
X708463Y344561D01*
X708546Y344677D01*
X708632Y344792D01*
X708721Y344903D01*
X708814Y345013D01*
X708909Y345119D01*
X709008Y345223D01*
X709109Y345324D01*
X709213Y345423D01*
X709319Y345518D01*
X709429Y345611D01*
X709540Y345700D01*
X709655Y345786D01*
X709771Y345869D01*
X709890Y345949D01*
X710011Y346026D01*
X710134Y346099D01*
X710258Y346169D01*
X710385Y346235D01*
X710514Y346298D01*
X710644Y346358D01*
X710776Y346413D01*
X710909Y346465D01*
X711044Y346514D01*
X711180Y346558D01*
X711317Y346599D01*
X711455Y346636D01*
X711594Y346669D01*
X711734Y346699D01*
X711875Y346724D01*
X712017Y346746D01*
X712159Y346763D01*
X712301Y346777D01*
X712444Y346787D01*
X712587Y346793D01*
X712730Y346795D01*
X712873Y346793D01*
X713016Y346787D01*
X713159Y346777D01*
X713301Y346763D01*
X713443Y346746D01*
X713585Y346724D01*
X713726Y346699D01*
X713866Y346669D01*
X714005Y346636D01*
X714143Y346599D01*
X714280Y346558D01*
X714416Y346514D01*
X714551Y346465D01*
X714684Y346413D01*
X714816Y346358D01*
X714946Y346298D01*
X715075Y346235D01*
X715202Y346169D01*
X715327Y346099D01*
X715449Y346026D01*
X715570Y345949D01*
X715689Y345869D01*
X715805Y345786D01*
X715920Y345700D01*
X716031Y345611D01*
X716141Y345518D01*
X716247Y345423D01*
X716351Y345324D01*
X716452Y345223D01*
X716551Y345119D01*
X716646Y345013D01*
X716739Y344903D01*
X716828Y344792D01*
X716914Y344677D01*
X716997Y344561D01*
X717077Y344442D01*
X717154Y344321D01*
X717227Y344199D01*
X717297Y344074D01*
X717363Y343947D01*
X717426Y343818D01*
X717486Y343688D01*
X717541Y343556D01*
X717593Y343423D01*
X717642Y343288D01*
X717686Y343152D01*
X717727Y343015D01*
X717764Y342877D01*
X717797Y342738D01*
X717827Y342598D01*
X717852Y342457D01*
X717874Y342315D01*
X717891Y342173D01*
X717905Y342031D01*
X717915Y341888D01*
X717921Y341745D01*
X717923Y341602D01*
X717923Y339005D01*
X707537Y339005D01*
X724936Y346795D02*
X730129Y331216D01*
X735322Y346795D01*
X742429Y349391D02*
X748920Y354584D01*
X748920Y331216D01*
X742429Y331216D02*
X755411Y331216D01*
X762886Y331216D02*
X762886Y332514D01*
X764184Y332514D01*
X764184Y331216D01*
X762886Y331216D01*
X771659Y342900D02*
X771664Y343360D01*
X771681Y343819D01*
X771708Y344278D01*
X771747Y344736D01*
X771796Y345193D01*
X771856Y345649D01*
X771927Y346103D01*
X772009Y346556D01*
X772102Y347006D01*
X772205Y347454D01*
X772319Y347899D01*
X772444Y348342D01*
X772579Y348781D01*
X772725Y349217D01*
X772881Y349649D01*
X773047Y350078D01*
X773223Y350503D01*
X773410Y350923D01*
X773606Y351338D01*
X773607Y351339D02*
X773652Y351466D01*
X773702Y351592D01*
X773754Y351717D01*
X773811Y351840D01*
X773871Y351962D01*
X773934Y352081D01*
X774000Y352199D01*
X774070Y352315D01*
X774143Y352429D01*
X774219Y352541D01*
X774299Y352651D01*
X774381Y352758D01*
X774467Y352863D01*
X774555Y352966D01*
X774646Y353066D01*
X774740Y353164D01*
X774837Y353258D01*
X774936Y353350D01*
X775038Y353440D01*
X775142Y353526D01*
X775249Y353609D01*
X775358Y353689D01*
X775470Y353767D01*
X775583Y353840D01*
X775698Y353911D01*
X775816Y353979D01*
X775935Y354043D01*
X776056Y354104D01*
X776179Y354161D01*
X776303Y354215D01*
X776429Y354265D01*
X776556Y354312D01*
X776684Y354355D01*
X776814Y354394D01*
X776944Y354430D01*
X777076Y354462D01*
X777208Y354491D01*
X777341Y354515D01*
X777475Y354536D01*
X777610Y354553D01*
X777744Y354567D01*
X777879Y354576D01*
X778015Y354582D01*
X778150Y354584D01*
X778285Y354582D01*
X778421Y354576D01*
X778556Y354567D01*
X778691Y354553D01*
X778825Y354536D01*
X778959Y354515D01*
X779092Y354491D01*
X779224Y354462D01*
X779356Y354430D01*
X779486Y354394D01*
X779616Y354355D01*
X779744Y354312D01*
X779871Y354265D01*
X779997Y354215D01*
X780121Y354161D01*
X780244Y354104D01*
X780365Y354043D01*
X780484Y353979D01*
X780602Y353911D01*
X780717Y353840D01*
X780830Y353766D01*
X780942Y353689D01*
X781051Y353609D01*
X781158Y353526D01*
X781262Y353440D01*
X781364Y353350D01*
X781463Y353258D01*
X781560Y353164D01*
X781654Y353066D01*
X781745Y352966D01*
X781833Y352863D01*
X781919Y352758D01*
X782001Y352651D01*
X782081Y352541D01*
X782157Y352429D01*
X782230Y352315D01*
X782300Y352199D01*
X782366Y352081D01*
X782429Y351962D01*
X782489Y351840D01*
X782546Y351717D01*
X782598Y351592D01*
X782648Y351466D01*
X782693Y351339D01*
X782695Y351339D02*
X782891Y350923D01*
X783078Y350503D01*
X783254Y350078D01*
X783420Y349650D01*
X783576Y349217D01*
X783722Y348781D01*
X783857Y348342D01*
X783982Y347899D01*
X784096Y347454D01*
X784199Y347006D01*
X784292Y346556D01*
X784374Y346103D01*
X784445Y345649D01*
X784505Y345193D01*
X784554Y344736D01*
X784593Y344278D01*
X784620Y343819D01*
X784637Y343360D01*
X784642Y342900D01*
X771660Y342900D02*
X771665Y342440D01*
X771682Y341981D01*
X771709Y341522D01*
X771748Y341064D01*
X771797Y340607D01*
X771857Y340151D01*
X771928Y339697D01*
X772010Y339245D01*
X772103Y338794D01*
X772206Y338346D01*
X772320Y337901D01*
X772445Y337458D01*
X772580Y337019D01*
X772726Y336583D01*
X772882Y336151D01*
X773048Y335722D01*
X773224Y335297D01*
X773411Y334877D01*
X773607Y334462D01*
X773607Y334461D02*
X773652Y334334D01*
X773702Y334208D01*
X773754Y334083D01*
X773811Y333960D01*
X773871Y333838D01*
X773934Y333719D01*
X774000Y333601D01*
X774070Y333485D01*
X774143Y333371D01*
X774219Y333259D01*
X774299Y333149D01*
X774381Y333042D01*
X774467Y332937D01*
X774555Y332834D01*
X774646Y332734D01*
X774740Y332636D01*
X774837Y332542D01*
X774936Y332450D01*
X775038Y332360D01*
X775143Y332274D01*
X775249Y332191D01*
X775358Y332111D01*
X775470Y332033D01*
X775583Y331960D01*
X775698Y331889D01*
X775816Y331821D01*
X775935Y331757D01*
X776056Y331696D01*
X776179Y331639D01*
X776303Y331585D01*
X776429Y331535D01*
X776556Y331488D01*
X776684Y331445D01*
X776814Y331406D01*
X776944Y331370D01*
X777076Y331338D01*
X777208Y331309D01*
X777341Y331285D01*
X777475Y331264D01*
X777610Y331247D01*
X777744Y331233D01*
X777879Y331224D01*
X778015Y331218D01*
X778150Y331216D01*
X782694Y334462D02*
X782890Y334877D01*
X783077Y335297D01*
X783253Y335722D01*
X783419Y336150D01*
X783575Y336583D01*
X783721Y337019D01*
X783856Y337458D01*
X783981Y337901D01*
X784095Y338346D01*
X784198Y338794D01*
X784291Y339244D01*
X784373Y339697D01*
X784444Y340151D01*
X784504Y340607D01*
X784553Y341064D01*
X784592Y341522D01*
X784619Y341981D01*
X784636Y342440D01*
X784641Y342900D01*
X782693Y334461D02*
X782648Y334334D01*
X782598Y334208D01*
X782546Y334083D01*
X782489Y333960D01*
X782429Y333838D01*
X782366Y333719D01*
X782300Y333601D01*
X782230Y333485D01*
X782157Y333371D01*
X782081Y333259D01*
X782001Y333149D01*
X781919Y333042D01*
X781833Y332937D01*
X781745Y332834D01*
X781654Y332734D01*
X781560Y332636D01*
X781463Y332542D01*
X781364Y332450D01*
X781262Y332360D01*
X781158Y332274D01*
X781051Y332191D01*
X780942Y332111D01*
X780830Y332033D01*
X780717Y331960D01*
X780602Y331889D01*
X780484Y331821D01*
X780365Y331757D01*
X780244Y331696D01*
X780121Y331639D01*
X779997Y331585D01*
X779871Y331535D01*
X779744Y331488D01*
X779616Y331445D01*
X779486Y331406D01*
X779356Y331370D01*
X779224Y331338D01*
X779092Y331309D01*
X778959Y331285D01*
X778825Y331264D01*
X778690Y331247D01*
X778556Y331233D01*
X778421Y331224D01*
X778285Y331218D01*
X778150Y331216D01*
X772957Y336409D02*
X783343Y349391D01*
D11*
X103730Y187960D02*
X103737Y188500D01*
X103756Y189039D01*
X103790Y189578D01*
X103836Y190116D01*
X103895Y190653D01*
X103968Y191188D01*
X104054Y191721D01*
X104153Y192252D01*
X104265Y192780D01*
X104389Y193306D01*
X104527Y193828D01*
X104677Y194346D01*
X104840Y194861D01*
X105016Y195372D01*
X105204Y195878D01*
X105405Y196379D01*
X105617Y196875D01*
X105842Y197366D01*
X106079Y197851D01*
X106328Y198331D01*
X106588Y198804D01*
X106860Y199270D01*
X107143Y199730D01*
X107438Y200183D01*
X107743Y200628D01*
X108059Y201065D01*
X108386Y201495D01*
X108724Y201917D01*
X109071Y202330D01*
X109429Y202734D01*
X109797Y203130D01*
X110174Y203516D01*
X110560Y203893D01*
X110956Y204261D01*
X111360Y204619D01*
X111773Y204966D01*
X112195Y205304D01*
X112625Y205631D01*
X113062Y205947D01*
X113507Y206252D01*
X113960Y206547D01*
X114420Y206830D01*
X114886Y207102D01*
X115359Y207362D01*
X115839Y207611D01*
X116324Y207848D01*
X116815Y208073D01*
X117311Y208285D01*
X117812Y208486D01*
X118318Y208674D01*
X118829Y208850D01*
X119344Y209013D01*
X119862Y209163D01*
X120384Y209301D01*
X120910Y209425D01*
X121438Y209537D01*
X121969Y209636D01*
X122502Y209722D01*
X123037Y209795D01*
X123574Y209854D01*
X124112Y209900D01*
X124651Y209934D01*
X125190Y209953D01*
X125730Y209960D01*
X126270Y209953D01*
X126809Y209934D01*
X127348Y209900D01*
X127886Y209854D01*
X128423Y209795D01*
X128958Y209722D01*
X129491Y209636D01*
X130022Y209537D01*
X130550Y209425D01*
X131076Y209301D01*
X131598Y209163D01*
X132116Y209013D01*
X132631Y208850D01*
X133142Y208674D01*
X133648Y208486D01*
X134149Y208285D01*
X134645Y208073D01*
X135136Y207848D01*
X135621Y207611D01*
X136101Y207362D01*
X136574Y207102D01*
X137040Y206830D01*
X137500Y206547D01*
X137953Y206252D01*
X138398Y205947D01*
X138835Y205631D01*
X139265Y205304D01*
X139687Y204966D01*
X140100Y204619D01*
X140504Y204261D01*
X140900Y203893D01*
X141286Y203516D01*
X141663Y203130D01*
X142031Y202734D01*
X142389Y202330D01*
X142736Y201917D01*
X143074Y201495D01*
X143401Y201065D01*
X143717Y200628D01*
X144022Y200183D01*
X144317Y199730D01*
X144600Y199270D01*
X144872Y198804D01*
X145132Y198331D01*
X145381Y197851D01*
X145618Y197366D01*
X145843Y196875D01*
X146055Y196379D01*
X146256Y195878D01*
X146444Y195372D01*
X146620Y194861D01*
X146783Y194346D01*
X146933Y193828D01*
X147071Y193306D01*
X147195Y192780D01*
X147307Y192252D01*
X147406Y191721D01*
X147492Y191188D01*
X147565Y190653D01*
X147624Y190116D01*
X147670Y189578D01*
X147704Y189039D01*
X147723Y188500D01*
X147730Y187960D01*
X147723Y187420D01*
X147704Y186881D01*
X147670Y186342D01*
X147624Y185804D01*
X147565Y185267D01*
X147492Y184732D01*
X147406Y184199D01*
X147307Y183668D01*
X147195Y183140D01*
X147071Y182614D01*
X146933Y182092D01*
X146783Y181574D01*
X146620Y181059D01*
X146444Y180548D01*
X146256Y180042D01*
X146055Y179541D01*
X145843Y179045D01*
X145618Y178554D01*
X145381Y178069D01*
X145132Y177589D01*
X144872Y177116D01*
X144600Y176650D01*
X144317Y176190D01*
X144022Y175737D01*
X143717Y175292D01*
X143401Y174855D01*
X143074Y174425D01*
X142736Y174003D01*
X142389Y173590D01*
X142031Y173186D01*
X141663Y172790D01*
X141286Y172404D01*
X140900Y172027D01*
X140504Y171659D01*
X140100Y171301D01*
X139687Y170954D01*
X139265Y170616D01*
X138835Y170289D01*
X138398Y169973D01*
X137953Y169668D01*
X137500Y169373D01*
X137040Y169090D01*
X136574Y168818D01*
X136101Y168558D01*
X135621Y168309D01*
X135136Y168072D01*
X134645Y167847D01*
X134149Y167635D01*
X133648Y167434D01*
X133142Y167246D01*
X132631Y167070D01*
X132116Y166907D01*
X131598Y166757D01*
X131076Y166619D01*
X130550Y166495D01*
X130022Y166383D01*
X129491Y166284D01*
X128958Y166198D01*
X128423Y166125D01*
X127886Y166066D01*
X127348Y166020D01*
X126809Y165986D01*
X126270Y165967D01*
X125730Y165960D01*
X125190Y165967D01*
X124651Y165986D01*
X124112Y166020D01*
X123574Y166066D01*
X123037Y166125D01*
X122502Y166198D01*
X121969Y166284D01*
X121438Y166383D01*
X120910Y166495D01*
X120384Y166619D01*
X119862Y166757D01*
X119344Y166907D01*
X118829Y167070D01*
X118318Y167246D01*
X117812Y167434D01*
X117311Y167635D01*
X116815Y167847D01*
X116324Y168072D01*
X115839Y168309D01*
X115359Y168558D01*
X114886Y168818D01*
X114420Y169090D01*
X113960Y169373D01*
X113507Y169668D01*
X113062Y169973D01*
X112625Y170289D01*
X112195Y170616D01*
X111773Y170954D01*
X111360Y171301D01*
X110956Y171659D01*
X110560Y172027D01*
X110174Y172404D01*
X109797Y172790D01*
X109429Y173186D01*
X109071Y173590D01*
X108724Y174003D01*
X108386Y174425D01*
X108059Y174855D01*
X107743Y175292D01*
X107438Y175737D01*
X107143Y176190D01*
X106860Y176650D01*
X106588Y177116D01*
X106328Y177589D01*
X106079Y178069D01*
X105842Y178554D01*
X105617Y179045D01*
X105405Y179541D01*
X105204Y180042D01*
X105016Y180548D01*
X104840Y181059D01*
X104677Y181574D01*
X104527Y182092D01*
X104389Y182614D01*
X104265Y183140D01*
X104153Y183668D01*
X104054Y184199D01*
X103968Y184732D01*
X103895Y185267D01*
X103836Y185804D01*
X103790Y186342D01*
X103756Y186881D01*
X103737Y187420D01*
X103730Y187960D01*
X675230Y187960D02*
X675237Y188500D01*
X675256Y189039D01*
X675290Y189578D01*
X675336Y190116D01*
X675395Y190653D01*
X675468Y191188D01*
X675554Y191721D01*
X675653Y192252D01*
X675765Y192780D01*
X675889Y193306D01*
X676027Y193828D01*
X676177Y194346D01*
X676340Y194861D01*
X676516Y195372D01*
X676704Y195878D01*
X676905Y196379D01*
X677117Y196875D01*
X677342Y197366D01*
X677579Y197851D01*
X677828Y198331D01*
X678088Y198804D01*
X678360Y199270D01*
X678643Y199730D01*
X678938Y200183D01*
X679243Y200628D01*
X679559Y201065D01*
X679886Y201495D01*
X680224Y201917D01*
X680571Y202330D01*
X680929Y202734D01*
X681297Y203130D01*
X681674Y203516D01*
X682060Y203893D01*
X682456Y204261D01*
X682860Y204619D01*
X683273Y204966D01*
X683695Y205304D01*
X684125Y205631D01*
X684562Y205947D01*
X685007Y206252D01*
X685460Y206547D01*
X685920Y206830D01*
X686386Y207102D01*
X686859Y207362D01*
X687339Y207611D01*
X687824Y207848D01*
X688315Y208073D01*
X688811Y208285D01*
X689312Y208486D01*
X689818Y208674D01*
X690329Y208850D01*
X690844Y209013D01*
X691362Y209163D01*
X691884Y209301D01*
X692410Y209425D01*
X692938Y209537D01*
X693469Y209636D01*
X694002Y209722D01*
X694537Y209795D01*
X695074Y209854D01*
X695612Y209900D01*
X696151Y209934D01*
X696690Y209953D01*
X697230Y209960D01*
X697770Y209953D01*
X698309Y209934D01*
X698848Y209900D01*
X699386Y209854D01*
X699923Y209795D01*
X700458Y209722D01*
X700991Y209636D01*
X701522Y209537D01*
X702050Y209425D01*
X702576Y209301D01*
X703098Y209163D01*
X703616Y209013D01*
X704131Y208850D01*
X704642Y208674D01*
X705148Y208486D01*
X705649Y208285D01*
X706145Y208073D01*
X706636Y207848D01*
X707121Y207611D01*
X707601Y207362D01*
X708074Y207102D01*
X708540Y206830D01*
X709000Y206547D01*
X709453Y206252D01*
X709898Y205947D01*
X710335Y205631D01*
X710765Y205304D01*
X711187Y204966D01*
X711600Y204619D01*
X712004Y204261D01*
X712400Y203893D01*
X712786Y203516D01*
X713163Y203130D01*
X713531Y202734D01*
X713889Y202330D01*
X714236Y201917D01*
X714574Y201495D01*
X714901Y201065D01*
X715217Y200628D01*
X715522Y200183D01*
X715817Y199730D01*
X716100Y199270D01*
X716372Y198804D01*
X716632Y198331D01*
X716881Y197851D01*
X717118Y197366D01*
X717343Y196875D01*
X717555Y196379D01*
X717756Y195878D01*
X717944Y195372D01*
X718120Y194861D01*
X718283Y194346D01*
X718433Y193828D01*
X718571Y193306D01*
X718695Y192780D01*
X718807Y192252D01*
X718906Y191721D01*
X718992Y191188D01*
X719065Y190653D01*
X719124Y190116D01*
X719170Y189578D01*
X719204Y189039D01*
X719223Y188500D01*
X719230Y187960D01*
X719223Y187420D01*
X719204Y186881D01*
X719170Y186342D01*
X719124Y185804D01*
X719065Y185267D01*
X718992Y184732D01*
X718906Y184199D01*
X718807Y183668D01*
X718695Y183140D01*
X718571Y182614D01*
X718433Y182092D01*
X718283Y181574D01*
X718120Y181059D01*
X717944Y180548D01*
X717756Y180042D01*
X717555Y179541D01*
X717343Y179045D01*
X717118Y178554D01*
X716881Y178069D01*
X716632Y177589D01*
X716372Y177116D01*
X716100Y176650D01*
X715817Y176190D01*
X715522Y175737D01*
X715217Y175292D01*
X714901Y174855D01*
X714574Y174425D01*
X714236Y174003D01*
X713889Y173590D01*
X713531Y173186D01*
X713163Y172790D01*
X712786Y172404D01*
X712400Y172027D01*
X712004Y171659D01*
X711600Y171301D01*
X711187Y170954D01*
X710765Y170616D01*
X710335Y170289D01*
X709898Y169973D01*
X709453Y169668D01*
X709000Y169373D01*
X708540Y169090D01*
X708074Y168818D01*
X707601Y168558D01*
X707121Y168309D01*
X706636Y168072D01*
X706145Y167847D01*
X705649Y167635D01*
X705148Y167434D01*
X704642Y167246D01*
X704131Y167070D01*
X703616Y166907D01*
X703098Y166757D01*
X702576Y166619D01*
X702050Y166495D01*
X701522Y166383D01*
X700991Y166284D01*
X700458Y166198D01*
X699923Y166125D01*
X699386Y166066D01*
X698848Y166020D01*
X698309Y165986D01*
X697770Y165967D01*
X697230Y165960D01*
X696690Y165967D01*
X696151Y165986D01*
X695612Y166020D01*
X695074Y166066D01*
X694537Y166125D01*
X694002Y166198D01*
X693469Y166284D01*
X692938Y166383D01*
X692410Y166495D01*
X691884Y166619D01*
X691362Y166757D01*
X690844Y166907D01*
X690329Y167070D01*
X689818Y167246D01*
X689312Y167434D01*
X688811Y167635D01*
X688315Y167847D01*
X687824Y168072D01*
X687339Y168309D01*
X686859Y168558D01*
X686386Y168818D01*
X685920Y169090D01*
X685460Y169373D01*
X685007Y169668D01*
X684562Y169973D01*
X684125Y170289D01*
X683695Y170616D01*
X683273Y170954D01*
X682860Y171301D01*
X682456Y171659D01*
X682060Y172027D01*
X681674Y172404D01*
X681297Y172790D01*
X680929Y173186D01*
X680571Y173590D01*
X680224Y174003D01*
X679886Y174425D01*
X679559Y174855D01*
X679243Y175292D01*
X678938Y175737D01*
X678643Y176190D01*
X678360Y176650D01*
X678088Y177116D01*
X677828Y177589D01*
X677579Y178069D01*
X677342Y178554D01*
X677117Y179045D01*
X676905Y179541D01*
X676704Y180042D01*
X676516Y180548D01*
X676340Y181059D01*
X676177Y181574D01*
X676027Y182092D01*
X675889Y182614D01*
X675765Y183140D01*
X675653Y183668D01*
X675554Y184199D01*
X675468Y184732D01*
X675395Y185267D01*
X675336Y185804D01*
X675290Y186342D01*
X675256Y186881D01*
X675237Y187420D01*
X675230Y187960D01*
X103730Y949960D02*
X103737Y950500D01*
X103756Y951039D01*
X103790Y951578D01*
X103836Y952116D01*
X103895Y952653D01*
X103968Y953188D01*
X104054Y953721D01*
X104153Y954252D01*
X104265Y954780D01*
X104389Y955306D01*
X104527Y955828D01*
X104677Y956346D01*
X104840Y956861D01*
X105016Y957372D01*
X105204Y957878D01*
X105405Y958379D01*
X105617Y958875D01*
X105842Y959366D01*
X106079Y959851D01*
X106328Y960331D01*
X106588Y960804D01*
X106860Y961270D01*
X107143Y961730D01*
X107438Y962183D01*
X107743Y962628D01*
X108059Y963065D01*
X108386Y963495D01*
X108724Y963917D01*
X109071Y964330D01*
X109429Y964734D01*
X109797Y965130D01*
X110174Y965516D01*
X110560Y965893D01*
X110956Y966261D01*
X111360Y966619D01*
X111773Y966966D01*
X112195Y967304D01*
X112625Y967631D01*
X113062Y967947D01*
X113507Y968252D01*
X113960Y968547D01*
X114420Y968830D01*
X114886Y969102D01*
X115359Y969362D01*
X115839Y969611D01*
X116324Y969848D01*
X116815Y970073D01*
X117311Y970285D01*
X117812Y970486D01*
X118318Y970674D01*
X118829Y970850D01*
X119344Y971013D01*
X119862Y971163D01*
X120384Y971301D01*
X120910Y971425D01*
X121438Y971537D01*
X121969Y971636D01*
X122502Y971722D01*
X123037Y971795D01*
X123574Y971854D01*
X124112Y971900D01*
X124651Y971934D01*
X125190Y971953D01*
X125730Y971960D01*
X126270Y971953D01*
X126809Y971934D01*
X127348Y971900D01*
X127886Y971854D01*
X128423Y971795D01*
X128958Y971722D01*
X129491Y971636D01*
X130022Y971537D01*
X130550Y971425D01*
X131076Y971301D01*
X131598Y971163D01*
X132116Y971013D01*
X132631Y970850D01*
X133142Y970674D01*
X133648Y970486D01*
X134149Y970285D01*
X134645Y970073D01*
X135136Y969848D01*
X135621Y969611D01*
X136101Y969362D01*
X136574Y969102D01*
X137040Y968830D01*
X137500Y968547D01*
X137953Y968252D01*
X138398Y967947D01*
X138835Y967631D01*
X139265Y967304D01*
X139687Y966966D01*
X140100Y966619D01*
X140504Y966261D01*
X140900Y965893D01*
X141286Y965516D01*
X141663Y965130D01*
X142031Y964734D01*
X142389Y964330D01*
X142736Y963917D01*
X143074Y963495D01*
X143401Y963065D01*
X143717Y962628D01*
X144022Y962183D01*
X144317Y961730D01*
X144600Y961270D01*
X144872Y960804D01*
X145132Y960331D01*
X145381Y959851D01*
X145618Y959366D01*
X145843Y958875D01*
X146055Y958379D01*
X146256Y957878D01*
X146444Y957372D01*
X146620Y956861D01*
X146783Y956346D01*
X146933Y955828D01*
X147071Y955306D01*
X147195Y954780D01*
X147307Y954252D01*
X147406Y953721D01*
X147492Y953188D01*
X147565Y952653D01*
X147624Y952116D01*
X147670Y951578D01*
X147704Y951039D01*
X147723Y950500D01*
X147730Y949960D01*
X147723Y949420D01*
X147704Y948881D01*
X147670Y948342D01*
X147624Y947804D01*
X147565Y947267D01*
X147492Y946732D01*
X147406Y946199D01*
X147307Y945668D01*
X147195Y945140D01*
X147071Y944614D01*
X146933Y944092D01*
X146783Y943574D01*
X146620Y943059D01*
X146444Y942548D01*
X146256Y942042D01*
X146055Y941541D01*
X145843Y941045D01*
X145618Y940554D01*
X145381Y940069D01*
X145132Y939589D01*
X144872Y939116D01*
X144600Y938650D01*
X144317Y938190D01*
X144022Y937737D01*
X143717Y937292D01*
X143401Y936855D01*
X143074Y936425D01*
X142736Y936003D01*
X142389Y935590D01*
X142031Y935186D01*
X141663Y934790D01*
X141286Y934404D01*
X140900Y934027D01*
X140504Y933659D01*
X140100Y933301D01*
X139687Y932954D01*
X139265Y932616D01*
X138835Y932289D01*
X138398Y931973D01*
X137953Y931668D01*
X137500Y931373D01*
X137040Y931090D01*
X136574Y930818D01*
X136101Y930558D01*
X135621Y930309D01*
X135136Y930072D01*
X134645Y929847D01*
X134149Y929635D01*
X133648Y929434D01*
X133142Y929246D01*
X132631Y929070D01*
X132116Y928907D01*
X131598Y928757D01*
X131076Y928619D01*
X130550Y928495D01*
X130022Y928383D01*
X129491Y928284D01*
X128958Y928198D01*
X128423Y928125D01*
X127886Y928066D01*
X127348Y928020D01*
X126809Y927986D01*
X126270Y927967D01*
X125730Y927960D01*
X125190Y927967D01*
X124651Y927986D01*
X124112Y928020D01*
X123574Y928066D01*
X123037Y928125D01*
X122502Y928198D01*
X121969Y928284D01*
X121438Y928383D01*
X120910Y928495D01*
X120384Y928619D01*
X119862Y928757D01*
X119344Y928907D01*
X118829Y929070D01*
X118318Y929246D01*
X117812Y929434D01*
X117311Y929635D01*
X116815Y929847D01*
X116324Y930072D01*
X115839Y930309D01*
X115359Y930558D01*
X114886Y930818D01*
X114420Y931090D01*
X113960Y931373D01*
X113507Y931668D01*
X113062Y931973D01*
X112625Y932289D01*
X112195Y932616D01*
X111773Y932954D01*
X111360Y933301D01*
X110956Y933659D01*
X110560Y934027D01*
X110174Y934404D01*
X109797Y934790D01*
X109429Y935186D01*
X109071Y935590D01*
X108724Y936003D01*
X108386Y936425D01*
X108059Y936855D01*
X107743Y937292D01*
X107438Y937737D01*
X107143Y938190D01*
X106860Y938650D01*
X106588Y939116D01*
X106328Y939589D01*
X106079Y940069D01*
X105842Y940554D01*
X105617Y941045D01*
X105405Y941541D01*
X105204Y942042D01*
X105016Y942548D01*
X104840Y943059D01*
X104677Y943574D01*
X104527Y944092D01*
X104389Y944614D01*
X104265Y945140D01*
X104153Y945668D01*
X104054Y946199D01*
X103968Y946732D01*
X103895Y947267D01*
X103836Y947804D01*
X103790Y948342D01*
X103756Y948881D01*
X103737Y949420D01*
X103730Y949960D01*
X675230Y949960D02*
X675237Y950500D01*
X675256Y951039D01*
X675290Y951578D01*
X675336Y952116D01*
X675395Y952653D01*
X675468Y953188D01*
X675554Y953721D01*
X675653Y954252D01*
X675765Y954780D01*
X675889Y955306D01*
X676027Y955828D01*
X676177Y956346D01*
X676340Y956861D01*
X676516Y957372D01*
X676704Y957878D01*
X676905Y958379D01*
X677117Y958875D01*
X677342Y959366D01*
X677579Y959851D01*
X677828Y960331D01*
X678088Y960804D01*
X678360Y961270D01*
X678643Y961730D01*
X678938Y962183D01*
X679243Y962628D01*
X679559Y963065D01*
X679886Y963495D01*
X680224Y963917D01*
X680571Y964330D01*
X680929Y964734D01*
X681297Y965130D01*
X681674Y965516D01*
X682060Y965893D01*
X682456Y966261D01*
X682860Y966619D01*
X683273Y966966D01*
X683695Y967304D01*
X684125Y967631D01*
X684562Y967947D01*
X685007Y968252D01*
X685460Y968547D01*
X685920Y968830D01*
X686386Y969102D01*
X686859Y969362D01*
X687339Y969611D01*
X687824Y969848D01*
X688315Y970073D01*
X688811Y970285D01*
X689312Y970486D01*
X689818Y970674D01*
X690329Y970850D01*
X690844Y971013D01*
X691362Y971163D01*
X691884Y971301D01*
X692410Y971425D01*
X692938Y971537D01*
X693469Y971636D01*
X694002Y971722D01*
X694537Y971795D01*
X695074Y971854D01*
X695612Y971900D01*
X696151Y971934D01*
X696690Y971953D01*
X697230Y971960D01*
X697770Y971953D01*
X698309Y971934D01*
X698848Y971900D01*
X699386Y971854D01*
X699923Y971795D01*
X700458Y971722D01*
X700991Y971636D01*
X701522Y971537D01*
X702050Y971425D01*
X702576Y971301D01*
X703098Y971163D01*
X703616Y971013D01*
X704131Y970850D01*
X704642Y970674D01*
X705148Y970486D01*
X705649Y970285D01*
X706145Y970073D01*
X706636Y969848D01*
X707121Y969611D01*
X707601Y969362D01*
X708074Y969102D01*
X708540Y968830D01*
X709000Y968547D01*
X709453Y968252D01*
X709898Y967947D01*
X710335Y967631D01*
X710765Y967304D01*
X711187Y966966D01*
X711600Y966619D01*
X712004Y966261D01*
X712400Y965893D01*
X712786Y965516D01*
X713163Y965130D01*
X713531Y964734D01*
X713889Y964330D01*
X714236Y963917D01*
X714574Y963495D01*
X714901Y963065D01*
X715217Y962628D01*
X715522Y962183D01*
X715817Y961730D01*
X716100Y961270D01*
X716372Y960804D01*
X716632Y960331D01*
X716881Y959851D01*
X717118Y959366D01*
X717343Y958875D01*
X717555Y958379D01*
X717756Y957878D01*
X717944Y957372D01*
X718120Y956861D01*
X718283Y956346D01*
X718433Y955828D01*
X718571Y955306D01*
X718695Y954780D01*
X718807Y954252D01*
X718906Y953721D01*
X718992Y953188D01*
X719065Y952653D01*
X719124Y952116D01*
X719170Y951578D01*
X719204Y951039D01*
X719223Y950500D01*
X719230Y949960D01*
X719223Y949420D01*
X719204Y948881D01*
X719170Y948342D01*
X719124Y947804D01*
X719065Y947267D01*
X718992Y946732D01*
X718906Y946199D01*
X718807Y945668D01*
X718695Y945140D01*
X718571Y944614D01*
X718433Y944092D01*
X718283Y943574D01*
X718120Y943059D01*
X717944Y942548D01*
X717756Y942042D01*
X717555Y941541D01*
X717343Y941045D01*
X717118Y940554D01*
X716881Y940069D01*
X716632Y939589D01*
X716372Y939116D01*
X716100Y938650D01*
X715817Y938190D01*
X715522Y937737D01*
X715217Y937292D01*
X714901Y936855D01*
X714574Y936425D01*
X714236Y936003D01*
X713889Y935590D01*
X713531Y935186D01*
X713163Y934790D01*
X712786Y934404D01*
X712400Y934027D01*
X712004Y933659D01*
X711600Y933301D01*
X711187Y932954D01*
X710765Y932616D01*
X710335Y932289D01*
X709898Y931973D01*
X709453Y931668D01*
X709000Y931373D01*
X708540Y931090D01*
X708074Y930818D01*
X707601Y930558D01*
X707121Y930309D01*
X706636Y930072D01*
X706145Y929847D01*
X705649Y929635D01*
X705148Y929434D01*
X704642Y929246D01*
X704131Y929070D01*
X703616Y928907D01*
X703098Y928757D01*
X702576Y928619D01*
X702050Y928495D01*
X701522Y928383D01*
X700991Y928284D01*
X700458Y928198D01*
X699923Y928125D01*
X699386Y928066D01*
X698848Y928020D01*
X698309Y927986D01*
X697770Y927967D01*
X697230Y927960D01*
X696690Y927967D01*
X696151Y927986D01*
X695612Y928020D01*
X695074Y928066D01*
X694537Y928125D01*
X694002Y928198D01*
X693469Y928284D01*
X692938Y928383D01*
X692410Y928495D01*
X691884Y928619D01*
X691362Y928757D01*
X690844Y928907D01*
X690329Y929070D01*
X689818Y929246D01*
X689312Y929434D01*
X688811Y929635D01*
X688315Y929847D01*
X687824Y930072D01*
X687339Y930309D01*
X686859Y930558D01*
X686386Y930818D01*
X685920Y931090D01*
X685460Y931373D01*
X685007Y931668D01*
X684562Y931973D01*
X684125Y932289D01*
X683695Y932616D01*
X683273Y932954D01*
X682860Y933301D01*
X682456Y933659D01*
X682060Y934027D01*
X681674Y934404D01*
X681297Y934790D01*
X680929Y935186D01*
X680571Y935590D01*
X680224Y936003D01*
X679886Y936425D01*
X679559Y936855D01*
X679243Y937292D01*
X678938Y937737D01*
X678643Y938190D01*
X678360Y938650D01*
X678088Y939116D01*
X677828Y939589D01*
X677579Y940069D01*
X677342Y940554D01*
X677117Y941045D01*
X676905Y941541D01*
X676704Y942042D01*
X676516Y942548D01*
X676340Y943059D01*
X676177Y943574D01*
X676027Y944092D01*
X675889Y944614D01*
X675765Y945140D01*
X675653Y945668D01*
X675554Y946199D01*
X675468Y946732D01*
X675395Y947267D01*
X675336Y947804D01*
X675290Y948342D01*
X675256Y948881D01*
X675237Y949420D01*
X675230Y949960D01*
D12*
X99060Y187960D02*
X99067Y187346D01*
X99090Y186733D01*
X99127Y186120D01*
X99179Y185509D01*
X99245Y184898D01*
X99327Y184290D01*
X99423Y183684D01*
X99533Y183080D01*
X99658Y182479D01*
X99798Y181881D01*
X99952Y181287D01*
X100121Y180697D01*
X100303Y180111D01*
X100500Y179530D01*
X100711Y178953D01*
X100935Y178382D01*
X101173Y177816D01*
X101425Y177256D01*
X101691Y176703D01*
X101969Y176156D01*
X102261Y175616D01*
X102566Y175083D01*
X102884Y174558D01*
X103214Y174040D01*
X103556Y173531D01*
X103911Y173030D01*
X104278Y172538D01*
X104656Y172055D01*
X105046Y171581D01*
X105448Y171117D01*
X105860Y170662D01*
X106284Y170218D01*
X106718Y169784D01*
X107162Y169360D01*
X107617Y168948D01*
X108081Y168546D01*
X108555Y168156D01*
X109038Y167778D01*
X109530Y167411D01*
X110031Y167056D01*
X110540Y166714D01*
X111058Y166384D01*
X111583Y166066D01*
X112116Y165761D01*
X112656Y165469D01*
X113203Y165191D01*
X113756Y164925D01*
X114316Y164673D01*
X114882Y164435D01*
X115453Y164211D01*
X116030Y164000D01*
X116611Y163803D01*
X117197Y163621D01*
X117787Y163452D01*
X118381Y163298D01*
X118979Y163158D01*
X119580Y163033D01*
X120184Y162923D01*
X120790Y162827D01*
X121398Y162745D01*
X122009Y162679D01*
X122620Y162627D01*
X123233Y162590D01*
X123846Y162567D01*
X124460Y162560D01*
X698500Y162560D01*
X699114Y162567D01*
X699727Y162590D01*
X700340Y162627D01*
X700951Y162679D01*
X701562Y162745D01*
X702170Y162827D01*
X702776Y162923D01*
X703380Y163033D01*
X703981Y163158D01*
X704579Y163298D01*
X705173Y163452D01*
X705763Y163621D01*
X706349Y163803D01*
X706930Y164000D01*
X707507Y164211D01*
X708078Y164435D01*
X708644Y164673D01*
X709204Y164925D01*
X709757Y165191D01*
X710304Y165469D01*
X710844Y165761D01*
X711377Y166066D01*
X711902Y166384D01*
X712420Y166714D01*
X712929Y167056D01*
X713430Y167411D01*
X713922Y167778D01*
X714405Y168156D01*
X714879Y168546D01*
X715343Y168948D01*
X715798Y169360D01*
X716242Y169784D01*
X716676Y170218D01*
X717100Y170662D01*
X717512Y171117D01*
X717914Y171581D01*
X718304Y172055D01*
X718682Y172538D01*
X719049Y173030D01*
X719404Y173531D01*
X719746Y174040D01*
X720076Y174558D01*
X720394Y175083D01*
X720699Y175616D01*
X720991Y176156D01*
X721269Y176703D01*
X721535Y177256D01*
X721787Y177816D01*
X722025Y178382D01*
X722249Y178953D01*
X722460Y179530D01*
X722657Y180111D01*
X722839Y180697D01*
X723008Y181287D01*
X723162Y181881D01*
X723302Y182479D01*
X723427Y183080D01*
X723537Y183684D01*
X723633Y184290D01*
X723715Y184898D01*
X723781Y185509D01*
X723833Y186120D01*
X723870Y186733D01*
X723893Y187346D01*
X723900Y187960D01*
X723893Y188574D01*
X723870Y189187D01*
X723833Y189800D01*
X723781Y190411D01*
X723715Y191022D01*
X723633Y191630D01*
X723537Y192236D01*
X723427Y192840D01*
X723302Y193441D01*
X723162Y194039D01*
X723008Y194633D01*
X722839Y195223D01*
X722657Y195809D01*
X722460Y196390D01*
X722249Y196967D01*
X722025Y197538D01*
X721787Y198104D01*
X721535Y198664D01*
X721269Y199217D01*
X720991Y199764D01*
X720699Y200304D01*
X720394Y200837D01*
X720076Y201362D01*
X719746Y201880D01*
X719404Y202389D01*
X719049Y202890D01*
X718682Y203382D01*
X718304Y203865D01*
X717914Y204339D01*
X717512Y204803D01*
X717100Y205258D01*
X716676Y205702D01*
X716242Y206136D01*
X715798Y206560D01*
X715343Y206972D01*
X714879Y207374D01*
X714405Y207764D01*
X713922Y208142D01*
X713430Y208509D01*
X712929Y208864D01*
X712420Y209206D01*
X711902Y209536D01*
X711377Y209854D01*
X710844Y210159D01*
X710304Y210451D01*
X709757Y210729D01*
X709204Y210995D01*
X708644Y211247D01*
X708078Y211485D01*
X707507Y211709D01*
X706930Y211920D01*
X706349Y212117D01*
X705763Y212299D01*
X705173Y212468D01*
X704579Y212622D01*
X703981Y212762D01*
X703380Y212887D01*
X702776Y212997D01*
X702170Y213093D01*
X701562Y213175D01*
X700951Y213241D01*
X700340Y213293D01*
X699727Y213330D01*
X699114Y213353D01*
X698500Y213360D01*
X665480Y213360D01*
X665480Y924560D01*
X698500Y924560D01*
X699114Y924567D01*
X699727Y924590D01*
X700340Y924627D01*
X700951Y924679D01*
X701562Y924745D01*
X702170Y924827D01*
X702776Y924923D01*
X703380Y925033D01*
X703981Y925158D01*
X704579Y925298D01*
X705173Y925452D01*
X705763Y925621D01*
X706349Y925803D01*
X706930Y926000D01*
X707507Y926211D01*
X708078Y926435D01*
X708644Y926673D01*
X709204Y926925D01*
X709757Y927191D01*
X710304Y927469D01*
X710844Y927761D01*
X711377Y928066D01*
X711902Y928384D01*
X712420Y928714D01*
X712929Y929056D01*
X713430Y929411D01*
X713922Y929778D01*
X714405Y930156D01*
X714879Y930546D01*
X715343Y930948D01*
X715798Y931360D01*
X716242Y931784D01*
X716676Y932218D01*
X717100Y932662D01*
X717512Y933117D01*
X717914Y933581D01*
X718304Y934055D01*
X718682Y934538D01*
X719049Y935030D01*
X719404Y935531D01*
X719746Y936040D01*
X720076Y936558D01*
X720394Y937083D01*
X720699Y937616D01*
X720991Y938156D01*
X721269Y938703D01*
X721535Y939256D01*
X721787Y939816D01*
X722025Y940382D01*
X722249Y940953D01*
X722460Y941530D01*
X722657Y942111D01*
X722839Y942697D01*
X723008Y943287D01*
X723162Y943881D01*
X723302Y944479D01*
X723427Y945080D01*
X723537Y945684D01*
X723633Y946290D01*
X723715Y946898D01*
X723781Y947509D01*
X723833Y948120D01*
X723870Y948733D01*
X723893Y949346D01*
X723900Y949960D01*
X723893Y950574D01*
X723870Y951187D01*
X723833Y951800D01*
X723781Y952411D01*
X723715Y953022D01*
X723633Y953630D01*
X723537Y954236D01*
X723427Y954840D01*
X723302Y955441D01*
X723162Y956039D01*
X723008Y956633D01*
X722839Y957223D01*
X722657Y957809D01*
X722460Y958390D01*
X722249Y958967D01*
X722025Y959538D01*
X721787Y960104D01*
X721535Y960664D01*
X721269Y961217D01*
X720991Y961764D01*
X720699Y962304D01*
X720394Y962837D01*
X720076Y963362D01*
X719746Y963880D01*
X719404Y964389D01*
X719049Y964890D01*
X718682Y965382D01*
X718304Y965865D01*
X717914Y966339D01*
X717512Y966803D01*
X717100Y967258D01*
X716676Y967702D01*
X716242Y968136D01*
X715798Y968560D01*
X715343Y968972D01*
X714879Y969374D01*
X714405Y969764D01*
X713922Y970142D01*
X713430Y970509D01*
X712929Y970864D01*
X712420Y971206D01*
X711902Y971536D01*
X711377Y971854D01*
X710844Y972159D01*
X710304Y972451D01*
X709757Y972729D01*
X709204Y972995D01*
X708644Y973247D01*
X708078Y973485D01*
X707507Y973709D01*
X706930Y973920D01*
X706349Y974117D01*
X705763Y974299D01*
X705173Y974468D01*
X704579Y974622D01*
X703981Y974762D01*
X703380Y974887D01*
X702776Y974997D01*
X702170Y975093D01*
X701562Y975175D01*
X700951Y975241D01*
X700340Y975293D01*
X699727Y975330D01*
X699114Y975353D01*
X698500Y975360D01*
X124460Y975360D01*
X123846Y975353D01*
X123233Y975330D01*
X122620Y975293D01*
X122009Y975241D01*
X121398Y975175D01*
X120790Y975093D01*
X120184Y974997D01*
X119580Y974887D01*
X118979Y974762D01*
X118381Y974622D01*
X117787Y974468D01*
X117197Y974299D01*
X116611Y974117D01*
X116030Y973920D01*
X115453Y973709D01*
X114882Y973485D01*
X114316Y973247D01*
X113756Y972995D01*
X113203Y972729D01*
X112656Y972451D01*
X112116Y972159D01*
X111583Y971854D01*
X111058Y971536D01*
X110540Y971206D01*
X110031Y970864D01*
X109530Y970509D01*
X109038Y970142D01*
X108555Y969764D01*
X108081Y969374D01*
X107617Y968972D01*
X107162Y968560D01*
X106718Y968136D01*
X106284Y967702D01*
X105860Y967258D01*
X105448Y966803D01*
X105046Y966339D01*
X104656Y965865D01*
X104278Y965382D01*
X103911Y964890D01*
X103556Y964389D01*
X103214Y963880D01*
X102884Y963362D01*
X102566Y962837D01*
X102261Y962304D01*
X101969Y961764D01*
X101691Y961217D01*
X101425Y960664D01*
X101173Y960104D01*
X100935Y959538D01*
X100711Y958967D01*
X100500Y958390D01*
X100303Y957809D01*
X100121Y957223D01*
X99952Y956633D01*
X99798Y956039D01*
X99658Y955441D01*
X99533Y954840D01*
X99423Y954236D01*
X99327Y953630D01*
X99245Y953022D01*
X99179Y952411D01*
X99127Y951800D01*
X99090Y951187D01*
X99067Y950574D01*
X99060Y949960D01*
X99067Y949346D01*
X99090Y948733D01*
X99127Y948120D01*
X99179Y947509D01*
X99245Y946898D01*
X99327Y946290D01*
X99423Y945684D01*
X99533Y945080D01*
X99658Y944479D01*
X99798Y943881D01*
X99952Y943287D01*
X100121Y942697D01*
X100303Y942111D01*
X100500Y941530D01*
X100711Y940953D01*
X100935Y940382D01*
X101173Y939816D01*
X101425Y939256D01*
X101691Y938703D01*
X101969Y938156D01*
X102261Y937616D01*
X102566Y937083D01*
X102884Y936558D01*
X103214Y936040D01*
X103556Y935531D01*
X103911Y935030D01*
X104278Y934538D01*
X104656Y934055D01*
X105046Y933581D01*
X105448Y933117D01*
X105860Y932662D01*
X106284Y932218D01*
X106718Y931784D01*
X107162Y931360D01*
X107617Y930948D01*
X108081Y930546D01*
X108555Y930156D01*
X109038Y929778D01*
X109530Y929411D01*
X110031Y929056D01*
X110540Y928714D01*
X111058Y928384D01*
X111583Y928066D01*
X112116Y927761D01*
X112656Y927469D01*
X113203Y927191D01*
X113756Y926925D01*
X114316Y926673D01*
X114882Y926435D01*
X115453Y926211D01*
X116030Y926000D01*
X116611Y925803D01*
X117197Y925621D01*
X117787Y925452D01*
X118381Y925298D01*
X118979Y925158D01*
X119580Y925033D01*
X120184Y924923D01*
X120790Y924827D01*
X121398Y924745D01*
X122009Y924679D01*
X122620Y924627D01*
X123233Y924590D01*
X123846Y924567D01*
X124460Y924560D01*
X157480Y924560D01*
X157480Y213360D01*
X124460Y213360D01*
X123846Y213353D01*
X123233Y213330D01*
X122620Y213293D01*
X122009Y213241D01*
X121398Y213175D01*
X120790Y213093D01*
X120184Y212997D01*
X119580Y212887D01*
X118979Y212762D01*
X118381Y212622D01*
X117787Y212468D01*
X117197Y212299D01*
X116611Y212117D01*
X116030Y211920D01*
X115453Y211709D01*
X114882Y211485D01*
X114316Y211247D01*
X113756Y210995D01*
X113203Y210729D01*
X112656Y210451D01*
X112116Y210159D01*
X111583Y209854D01*
X111058Y209536D01*
X110540Y209206D01*
X110031Y208864D01*
X109530Y208509D01*
X109038Y208142D01*
X108555Y207764D01*
X108081Y207374D01*
X107617Y206972D01*
X107162Y206560D01*
X106718Y206136D01*
X106284Y205702D01*
X105860Y205258D01*
X105448Y204803D01*
X105046Y204339D01*
X104656Y203865D01*
X104278Y203382D01*
X103911Y202890D01*
X103556Y202389D01*
X103214Y201880D01*
X102884Y201362D01*
X102566Y200837D01*
X102261Y200304D01*
X101969Y199764D01*
X101691Y199217D01*
X101425Y198664D01*
X101173Y198104D01*
X100935Y197538D01*
X100711Y196967D01*
X100500Y196390D01*
X100303Y195809D01*
X100121Y195223D01*
X99952Y194633D01*
X99798Y194039D01*
X99658Y193441D01*
X99533Y192840D01*
X99423Y192236D01*
X99327Y191630D01*
X99245Y191022D01*
X99179Y190411D01*
X99127Y189800D01*
X99090Y189187D01*
X99067Y188574D01*
X99060Y187960D01*
D13*
X338179Y570484D02*
X338318Y570486D01*
X338458Y570492D01*
X338597Y570502D01*
X338735Y570515D01*
X338873Y570533D01*
X339011Y570554D01*
X339148Y570579D01*
X339284Y570609D01*
X339420Y570641D01*
X339554Y570678D01*
X339687Y570719D01*
X339820Y570763D01*
X339950Y570811D01*
X340080Y570862D01*
X340208Y570917D01*
X340334Y570976D01*
X340459Y571038D01*
X340582Y571104D01*
X340703Y571173D01*
X340822Y571245D01*
X340939Y571321D01*
X341053Y571400D01*
X341166Y571482D01*
X341276Y571568D01*
X341384Y571656D01*
X341489Y571747D01*
X341591Y571842D01*
X341691Y571939D01*
X341788Y572039D01*
X341883Y572141D01*
X341974Y572246D01*
X342062Y572354D01*
X342148Y572464D01*
X342230Y572577D01*
X342309Y572691D01*
X342385Y572808D01*
X342457Y572927D01*
X342526Y573048D01*
X342592Y573171D01*
X342654Y573296D01*
X342713Y573422D01*
X342768Y573550D01*
X342819Y573680D01*
X342867Y573811D01*
X342911Y573943D01*
X342952Y574076D01*
X342989Y574210D01*
X343021Y574346D01*
X343051Y574482D01*
X343076Y574619D01*
X343097Y574757D01*
X343115Y574895D01*
X343128Y575034D01*
X343138Y575172D01*
X343144Y575312D01*
X343146Y575451D01*
X338179Y570484D02*
X337928Y570487D01*
X337677Y570496D01*
X337427Y570511D01*
X337176Y570532D01*
X336927Y570559D01*
X336678Y570592D01*
X336430Y570631D01*
X336183Y570676D01*
X335937Y570726D01*
X335692Y570783D01*
X335449Y570845D01*
X335207Y570914D01*
X334968Y570988D01*
X334730Y571067D01*
X334493Y571153D01*
X334259Y571244D01*
X334028Y571340D01*
X333798Y571442D01*
X333571Y571550D01*
X333347Y571663D01*
X333126Y571781D01*
X332907Y571904D01*
X332692Y572033D01*
X332479Y572167D01*
X332270Y572306D01*
X332064Y572450D01*
X331862Y572599D01*
X331663Y572752D01*
X331468Y572910D01*
X331277Y573073D01*
X331090Y573241D01*
X330907Y573412D01*
X330728Y573588D01*
X331350Y587869D02*
X331352Y588008D01*
X331358Y588148D01*
X331368Y588286D01*
X331381Y588425D01*
X331399Y588563D01*
X331420Y588701D01*
X331445Y588838D01*
X331475Y588974D01*
X331507Y589110D01*
X331544Y589244D01*
X331585Y589377D01*
X331629Y589509D01*
X331677Y589640D01*
X331728Y589770D01*
X331783Y589898D01*
X331842Y590024D01*
X331904Y590149D01*
X331970Y590272D01*
X332039Y590393D01*
X332111Y590512D01*
X332187Y590629D01*
X332266Y590743D01*
X332348Y590856D01*
X332434Y590966D01*
X332522Y591074D01*
X332613Y591179D01*
X332708Y591281D01*
X332805Y591381D01*
X332905Y591478D01*
X333007Y591573D01*
X333112Y591664D01*
X333220Y591752D01*
X333330Y591838D01*
X333443Y591920D01*
X333557Y591999D01*
X333674Y592075D01*
X333793Y592147D01*
X333914Y592216D01*
X334037Y592282D01*
X334162Y592344D01*
X334288Y592403D01*
X334416Y592458D01*
X334546Y592509D01*
X334677Y592557D01*
X334809Y592601D01*
X334942Y592642D01*
X335076Y592679D01*
X335212Y592711D01*
X335348Y592741D01*
X335485Y592766D01*
X335623Y592787D01*
X335761Y592805D01*
X335900Y592818D01*
X336038Y592828D01*
X336178Y592834D01*
X336317Y592836D01*
X336539Y592833D01*
X336761Y592825D01*
X336982Y592812D01*
X337204Y592794D01*
X337424Y592770D01*
X337644Y592741D01*
X337864Y592707D01*
X338082Y592667D01*
X338299Y592623D01*
X338516Y592573D01*
X338731Y592518D01*
X338944Y592458D01*
X339157Y592393D01*
X339367Y592322D01*
X339576Y592247D01*
X339783Y592167D01*
X339988Y592082D01*
X340191Y591992D01*
X340392Y591897D01*
X340590Y591798D01*
X340786Y591694D01*
X340979Y591585D01*
X341170Y591471D01*
X341358Y591354D01*
X341543Y591231D01*
X341726Y591104D01*
X341905Y590973D01*
X333833Y583523D02*
X333715Y583594D01*
X333599Y583669D01*
X333485Y583747D01*
X333374Y583828D01*
X333265Y583912D01*
X333158Y583999D01*
X333053Y584089D01*
X332951Y584181D01*
X332852Y584277D01*
X332755Y584375D01*
X332661Y584476D01*
X332569Y584579D01*
X332481Y584685D01*
X332395Y584793D01*
X332313Y584903D01*
X332233Y585016D01*
X332157Y585130D01*
X332084Y585247D01*
X332014Y585366D01*
X331947Y585487D01*
X331884Y585609D01*
X331823Y585733D01*
X331767Y585859D01*
X331714Y585986D01*
X331664Y586114D01*
X331618Y586244D01*
X331575Y586375D01*
X331536Y586508D01*
X331501Y586641D01*
X331469Y586775D01*
X331441Y586910D01*
X331417Y587046D01*
X331396Y587182D01*
X331379Y587319D01*
X331366Y587456D01*
X331357Y587593D01*
X331351Y587731D01*
X331349Y587869D01*
X340663Y579797D02*
X340781Y579726D01*
X340897Y579651D01*
X341011Y579573D01*
X341122Y579492D01*
X341231Y579408D01*
X341338Y579321D01*
X341443Y579231D01*
X341545Y579139D01*
X341644Y579043D01*
X341741Y578945D01*
X341835Y578844D01*
X341927Y578741D01*
X342015Y578635D01*
X342101Y578527D01*
X342183Y578417D01*
X342263Y578304D01*
X342339Y578190D01*
X342412Y578073D01*
X342482Y577954D01*
X342549Y577833D01*
X342612Y577711D01*
X342673Y577587D01*
X342729Y577461D01*
X342782Y577334D01*
X342832Y577206D01*
X342878Y577076D01*
X342921Y576945D01*
X342960Y576812D01*
X342995Y576679D01*
X343027Y576545D01*
X343055Y576410D01*
X343079Y576274D01*
X343100Y576138D01*
X343117Y576001D01*
X343130Y575864D01*
X343139Y575727D01*
X343145Y575589D01*
X343147Y575451D01*
X340663Y579797D02*
X333833Y583523D01*
X351844Y592836D02*
X351844Y570484D01*
X351844Y592836D02*
X358053Y592836D01*
X358209Y592834D01*
X358365Y592828D01*
X358521Y592818D01*
X358676Y592805D01*
X358831Y592787D01*
X358986Y592766D01*
X359140Y592740D01*
X359293Y592711D01*
X359445Y592678D01*
X359597Y592641D01*
X359748Y592600D01*
X359897Y592556D01*
X360046Y592508D01*
X360193Y592456D01*
X360339Y592400D01*
X360483Y592341D01*
X360626Y592278D01*
X360767Y592211D01*
X360907Y592141D01*
X361044Y592068D01*
X361180Y591991D01*
X361314Y591911D01*
X361446Y591827D01*
X361575Y591740D01*
X361703Y591650D01*
X361828Y591557D01*
X361950Y591460D01*
X362071Y591361D01*
X362188Y591259D01*
X362303Y591153D01*
X362416Y591045D01*
X362525Y590934D01*
X362632Y590820D01*
X362736Y590704D01*
X362837Y590585D01*
X362935Y590463D01*
X363030Y590339D01*
X363122Y590213D01*
X363210Y590085D01*
X363295Y589954D01*
X363377Y589821D01*
X363456Y589686D01*
X363531Y589550D01*
X363603Y589411D01*
X363671Y589271D01*
X363736Y589129D01*
X363797Y588985D01*
X363854Y588840D01*
X363908Y588693D01*
X363958Y588546D01*
X364004Y588397D01*
X364047Y588247D01*
X364086Y588095D01*
X364121Y587943D01*
X364152Y587790D01*
X364179Y587637D01*
X364203Y587483D01*
X364222Y587328D01*
X364238Y587172D01*
X364250Y587017D01*
X364258Y586861D01*
X364262Y586705D01*
X364262Y586549D01*
X364258Y586393D01*
X364250Y586237D01*
X364238Y586082D01*
X364222Y585926D01*
X364203Y585771D01*
X364179Y585617D01*
X364152Y585464D01*
X364121Y585311D01*
X364086Y585159D01*
X364047Y585007D01*
X364004Y584857D01*
X363958Y584708D01*
X363908Y584561D01*
X363854Y584414D01*
X363797Y584269D01*
X363736Y584125D01*
X363671Y583983D01*
X363603Y583843D01*
X363531Y583704D01*
X363456Y583568D01*
X363377Y583433D01*
X363295Y583300D01*
X363210Y583169D01*
X363122Y583041D01*
X363030Y582915D01*
X362935Y582791D01*
X362837Y582669D01*
X362736Y582550D01*
X362632Y582434D01*
X362525Y582320D01*
X362416Y582209D01*
X362303Y582101D01*
X362188Y581995D01*
X362071Y581893D01*
X361950Y581794D01*
X361828Y581697D01*
X361703Y581604D01*
X361575Y581514D01*
X361446Y581427D01*
X361314Y581343D01*
X361180Y581263D01*
X361044Y581186D01*
X360907Y581113D01*
X360767Y581043D01*
X360626Y580976D01*
X360483Y580913D01*
X360339Y580854D01*
X360193Y580798D01*
X360046Y580746D01*
X359897Y580698D01*
X359748Y580654D01*
X359597Y580613D01*
X359445Y580576D01*
X359293Y580543D01*
X359140Y580514D01*
X358986Y580488D01*
X358831Y580467D01*
X358676Y580449D01*
X358521Y580436D01*
X358365Y580426D01*
X358209Y580420D01*
X358053Y580418D01*
X351844Y580418D01*
X373823Y570484D02*
X373823Y592836D01*
X371340Y570484D02*
X376307Y570484D01*
X376307Y592836D02*
X371340Y592836D01*
X402207Y570484D02*
X402346Y570486D01*
X402486Y570492D01*
X402625Y570502D01*
X402763Y570515D01*
X402901Y570533D01*
X403039Y570554D01*
X403176Y570579D01*
X403312Y570609D01*
X403448Y570641D01*
X403582Y570678D01*
X403715Y570719D01*
X403848Y570763D01*
X403978Y570811D01*
X404108Y570862D01*
X404236Y570917D01*
X404362Y570976D01*
X404487Y571038D01*
X404610Y571104D01*
X404731Y571173D01*
X404850Y571245D01*
X404967Y571321D01*
X405081Y571400D01*
X405194Y571482D01*
X405304Y571568D01*
X405412Y571656D01*
X405517Y571747D01*
X405619Y571842D01*
X405719Y571939D01*
X405816Y572039D01*
X405911Y572141D01*
X406002Y572246D01*
X406090Y572354D01*
X406176Y572464D01*
X406258Y572577D01*
X406337Y572691D01*
X406413Y572808D01*
X406485Y572927D01*
X406554Y573048D01*
X406620Y573171D01*
X406682Y573296D01*
X406741Y573422D01*
X406796Y573550D01*
X406847Y573680D01*
X406895Y573811D01*
X406939Y573943D01*
X406980Y574076D01*
X407017Y574210D01*
X407049Y574346D01*
X407079Y574482D01*
X407104Y574619D01*
X407125Y574757D01*
X407143Y574895D01*
X407156Y575034D01*
X407166Y575172D01*
X407172Y575312D01*
X407174Y575451D01*
X402207Y570484D02*
X401956Y570487D01*
X401705Y570496D01*
X401455Y570511D01*
X401204Y570532D01*
X400955Y570559D01*
X400706Y570592D01*
X400458Y570631D01*
X400211Y570676D01*
X399965Y570726D01*
X399720Y570783D01*
X399477Y570845D01*
X399235Y570914D01*
X398996Y570988D01*
X398758Y571067D01*
X398521Y571153D01*
X398287Y571244D01*
X398056Y571340D01*
X397826Y571442D01*
X397599Y571550D01*
X397375Y571663D01*
X397154Y571781D01*
X396935Y571904D01*
X396720Y572033D01*
X396507Y572167D01*
X396298Y572306D01*
X396092Y572450D01*
X395890Y572599D01*
X395691Y572752D01*
X395496Y572910D01*
X395305Y573073D01*
X395118Y573241D01*
X394935Y573412D01*
X394756Y573588D01*
X395378Y587869D02*
X395380Y588008D01*
X395386Y588148D01*
X395396Y588286D01*
X395409Y588425D01*
X395427Y588563D01*
X395448Y588701D01*
X395473Y588838D01*
X395503Y588974D01*
X395535Y589110D01*
X395572Y589244D01*
X395613Y589377D01*
X395657Y589509D01*
X395705Y589640D01*
X395756Y589770D01*
X395811Y589898D01*
X395870Y590024D01*
X395932Y590149D01*
X395998Y590272D01*
X396067Y590393D01*
X396139Y590512D01*
X396215Y590629D01*
X396294Y590743D01*
X396376Y590856D01*
X396462Y590966D01*
X396550Y591074D01*
X396641Y591179D01*
X396736Y591281D01*
X396833Y591381D01*
X396933Y591478D01*
X397035Y591573D01*
X397140Y591664D01*
X397248Y591752D01*
X397358Y591838D01*
X397471Y591920D01*
X397585Y591999D01*
X397702Y592075D01*
X397821Y592147D01*
X397942Y592216D01*
X398065Y592282D01*
X398190Y592344D01*
X398316Y592403D01*
X398444Y592458D01*
X398574Y592509D01*
X398705Y592557D01*
X398837Y592601D01*
X398970Y592642D01*
X399104Y592679D01*
X399240Y592711D01*
X399376Y592741D01*
X399513Y592766D01*
X399651Y592787D01*
X399789Y592805D01*
X399928Y592818D01*
X400066Y592828D01*
X400206Y592834D01*
X400345Y592836D01*
X400567Y592833D01*
X400789Y592825D01*
X401010Y592812D01*
X401232Y592794D01*
X401452Y592770D01*
X401672Y592741D01*
X401892Y592707D01*
X402110Y592667D01*
X402327Y592623D01*
X402544Y592573D01*
X402759Y592518D01*
X402972Y592458D01*
X403185Y592393D01*
X403395Y592322D01*
X403604Y592247D01*
X403811Y592167D01*
X404016Y592082D01*
X404219Y591992D01*
X404420Y591897D01*
X404618Y591798D01*
X404814Y591694D01*
X405007Y591585D01*
X405198Y591471D01*
X405386Y591354D01*
X405571Y591231D01*
X405754Y591104D01*
X405933Y590973D01*
X397861Y583523D02*
X397743Y583594D01*
X397627Y583669D01*
X397513Y583747D01*
X397402Y583828D01*
X397293Y583912D01*
X397186Y583999D01*
X397081Y584089D01*
X396979Y584181D01*
X396880Y584277D01*
X396783Y584375D01*
X396689Y584476D01*
X396597Y584579D01*
X396509Y584685D01*
X396423Y584793D01*
X396341Y584903D01*
X396261Y585016D01*
X396185Y585130D01*
X396112Y585247D01*
X396042Y585366D01*
X395975Y585487D01*
X395912Y585609D01*
X395851Y585733D01*
X395795Y585859D01*
X395742Y585986D01*
X395692Y586114D01*
X395646Y586244D01*
X395603Y586375D01*
X395564Y586508D01*
X395529Y586641D01*
X395497Y586775D01*
X395469Y586910D01*
X395445Y587046D01*
X395424Y587182D01*
X395407Y587319D01*
X395394Y587456D01*
X395385Y587593D01*
X395379Y587731D01*
X395377Y587869D01*
X404691Y579797D02*
X404809Y579726D01*
X404925Y579651D01*
X405039Y579573D01*
X405150Y579492D01*
X405259Y579408D01*
X405366Y579321D01*
X405471Y579231D01*
X405573Y579139D01*
X405672Y579043D01*
X405769Y578945D01*
X405863Y578844D01*
X405955Y578741D01*
X406043Y578635D01*
X406129Y578527D01*
X406211Y578417D01*
X406291Y578304D01*
X406367Y578190D01*
X406440Y578073D01*
X406510Y577954D01*
X406577Y577833D01*
X406640Y577711D01*
X406701Y577587D01*
X406757Y577461D01*
X406810Y577334D01*
X406860Y577206D01*
X406906Y577076D01*
X406949Y576945D01*
X406988Y576812D01*
X407023Y576679D01*
X407055Y576545D01*
X407083Y576410D01*
X407107Y576274D01*
X407128Y576138D01*
X407145Y576001D01*
X407158Y575864D01*
X407167Y575727D01*
X407173Y575589D01*
X407175Y575451D01*
X404691Y579797D02*
X397861Y583523D01*
X418538Y570484D02*
X423505Y570484D01*
X418538Y570484D02*
X418419Y570486D01*
X418299Y570492D01*
X418180Y570501D01*
X418062Y570515D01*
X417943Y570532D01*
X417826Y570553D01*
X417709Y570577D01*
X417593Y570606D01*
X417478Y570638D01*
X417364Y570674D01*
X417252Y570713D01*
X417140Y570756D01*
X417030Y570803D01*
X416922Y570853D01*
X416815Y570906D01*
X416710Y570963D01*
X416607Y571024D01*
X416506Y571087D01*
X416407Y571154D01*
X416310Y571224D01*
X416216Y571297D01*
X416123Y571373D01*
X416034Y571451D01*
X415947Y571533D01*
X415862Y571618D01*
X415780Y571705D01*
X415702Y571794D01*
X415626Y571887D01*
X415553Y571981D01*
X415483Y572078D01*
X415416Y572177D01*
X415353Y572278D01*
X415292Y572381D01*
X415235Y572486D01*
X415182Y572593D01*
X415132Y572701D01*
X415085Y572811D01*
X415042Y572923D01*
X415003Y573035D01*
X414967Y573149D01*
X414935Y573264D01*
X414906Y573380D01*
X414882Y573497D01*
X414861Y573614D01*
X414844Y573733D01*
X414830Y573851D01*
X414821Y573970D01*
X414815Y574090D01*
X414813Y574209D01*
X414812Y574209D02*
X414812Y581660D01*
X414813Y581660D02*
X414815Y581779D01*
X414821Y581899D01*
X414830Y582018D01*
X414844Y582136D01*
X414861Y582255D01*
X414882Y582372D01*
X414906Y582489D01*
X414935Y582605D01*
X414967Y582720D01*
X415003Y582834D01*
X415042Y582946D01*
X415085Y583058D01*
X415132Y583168D01*
X415182Y583276D01*
X415235Y583383D01*
X415292Y583488D01*
X415353Y583591D01*
X415416Y583692D01*
X415483Y583791D01*
X415553Y583888D01*
X415626Y583982D01*
X415702Y584075D01*
X415780Y584164D01*
X415862Y584251D01*
X415947Y584336D01*
X416034Y584418D01*
X416123Y584496D01*
X416216Y584572D01*
X416310Y584645D01*
X416407Y584715D01*
X416506Y584782D01*
X416607Y584845D01*
X416710Y584906D01*
X416815Y584963D01*
X416922Y585016D01*
X417030Y585066D01*
X417140Y585113D01*
X417252Y585156D01*
X417364Y585195D01*
X417478Y585231D01*
X417593Y585263D01*
X417709Y585292D01*
X417826Y585316D01*
X417943Y585337D01*
X418062Y585354D01*
X418180Y585368D01*
X418299Y585377D01*
X418419Y585383D01*
X418538Y585385D01*
X423505Y585385D01*
X431595Y585385D02*
X431595Y570484D01*
X431595Y585385D02*
X439045Y585385D01*
X439045Y582902D01*
X449137Y570484D02*
X455346Y570484D01*
X449137Y570484D02*
X449018Y570486D01*
X448898Y570492D01*
X448779Y570501D01*
X448661Y570515D01*
X448542Y570532D01*
X448425Y570553D01*
X448308Y570577D01*
X448192Y570606D01*
X448077Y570638D01*
X447963Y570674D01*
X447851Y570713D01*
X447739Y570756D01*
X447629Y570803D01*
X447521Y570853D01*
X447414Y570906D01*
X447309Y570963D01*
X447206Y571024D01*
X447105Y571087D01*
X447006Y571154D01*
X446909Y571224D01*
X446815Y571297D01*
X446722Y571373D01*
X446633Y571451D01*
X446546Y571533D01*
X446461Y571618D01*
X446379Y571705D01*
X446301Y571794D01*
X446225Y571887D01*
X446152Y571981D01*
X446082Y572078D01*
X446015Y572177D01*
X445952Y572278D01*
X445891Y572381D01*
X445834Y572486D01*
X445781Y572593D01*
X445731Y572701D01*
X445684Y572811D01*
X445641Y572923D01*
X445602Y573035D01*
X445566Y573149D01*
X445534Y573264D01*
X445505Y573380D01*
X445481Y573497D01*
X445460Y573614D01*
X445443Y573733D01*
X445429Y573851D01*
X445420Y573970D01*
X445414Y574090D01*
X445412Y574209D01*
X445411Y574209D02*
X445411Y580418D01*
X445412Y580418D02*
X445414Y580557D01*
X445420Y580697D01*
X445430Y580835D01*
X445443Y580974D01*
X445461Y581112D01*
X445482Y581250D01*
X445507Y581387D01*
X445537Y581523D01*
X445569Y581659D01*
X445606Y581793D01*
X445647Y581926D01*
X445691Y582058D01*
X445739Y582189D01*
X445790Y582319D01*
X445845Y582447D01*
X445904Y582573D01*
X445966Y582698D01*
X446032Y582821D01*
X446101Y582942D01*
X446173Y583061D01*
X446249Y583178D01*
X446328Y583292D01*
X446410Y583405D01*
X446496Y583515D01*
X446584Y583623D01*
X446675Y583728D01*
X446770Y583830D01*
X446867Y583930D01*
X446967Y584027D01*
X447069Y584122D01*
X447174Y584213D01*
X447282Y584301D01*
X447392Y584387D01*
X447505Y584469D01*
X447619Y584548D01*
X447736Y584624D01*
X447855Y584696D01*
X447976Y584765D01*
X448099Y584831D01*
X448224Y584893D01*
X448350Y584952D01*
X448478Y585007D01*
X448608Y585058D01*
X448739Y585106D01*
X448871Y585150D01*
X449004Y585191D01*
X449138Y585228D01*
X449274Y585260D01*
X449410Y585290D01*
X449547Y585315D01*
X449685Y585336D01*
X449823Y585354D01*
X449962Y585367D01*
X450100Y585377D01*
X450240Y585383D01*
X450379Y585385D01*
X450518Y585383D01*
X450658Y585377D01*
X450796Y585367D01*
X450935Y585354D01*
X451073Y585336D01*
X451211Y585315D01*
X451348Y585290D01*
X451484Y585260D01*
X451620Y585228D01*
X451754Y585191D01*
X451887Y585150D01*
X452019Y585106D01*
X452150Y585058D01*
X452280Y585007D01*
X452408Y584952D01*
X452534Y584893D01*
X452659Y584831D01*
X452782Y584765D01*
X452903Y584696D01*
X453022Y584624D01*
X453139Y584548D01*
X453253Y584469D01*
X453366Y584387D01*
X453476Y584301D01*
X453584Y584213D01*
X453689Y584122D01*
X453791Y584027D01*
X453891Y583930D01*
X453988Y583830D01*
X454083Y583728D01*
X454174Y583623D01*
X454262Y583515D01*
X454348Y583405D01*
X454430Y583292D01*
X454509Y583178D01*
X454585Y583061D01*
X454657Y582942D01*
X454726Y582821D01*
X454792Y582698D01*
X454854Y582573D01*
X454913Y582447D01*
X454968Y582319D01*
X455019Y582189D01*
X455067Y582058D01*
X455111Y581926D01*
X455152Y581793D01*
X455189Y581659D01*
X455221Y581523D01*
X455251Y581387D01*
X455276Y581250D01*
X455297Y581112D01*
X455315Y580974D01*
X455328Y580835D01*
X455338Y580697D01*
X455344Y580557D01*
X455346Y580418D01*
X455346Y577935D01*
X445411Y577935D01*
X467232Y570484D02*
X473441Y570484D01*
X467232Y570484D02*
X467113Y570486D01*
X466993Y570492D01*
X466874Y570501D01*
X466756Y570515D01*
X466637Y570532D01*
X466520Y570553D01*
X466403Y570577D01*
X466287Y570606D01*
X466172Y570638D01*
X466058Y570674D01*
X465946Y570713D01*
X465834Y570756D01*
X465724Y570803D01*
X465616Y570853D01*
X465509Y570906D01*
X465404Y570963D01*
X465301Y571024D01*
X465200Y571087D01*
X465101Y571154D01*
X465004Y571224D01*
X464910Y571297D01*
X464817Y571373D01*
X464728Y571451D01*
X464641Y571533D01*
X464556Y571618D01*
X464474Y571705D01*
X464396Y571794D01*
X464320Y571887D01*
X464247Y571981D01*
X464177Y572078D01*
X464110Y572177D01*
X464047Y572278D01*
X463986Y572381D01*
X463929Y572486D01*
X463876Y572593D01*
X463826Y572701D01*
X463779Y572811D01*
X463736Y572923D01*
X463697Y573035D01*
X463661Y573149D01*
X463629Y573264D01*
X463600Y573380D01*
X463576Y573497D01*
X463555Y573614D01*
X463538Y573733D01*
X463524Y573851D01*
X463515Y573970D01*
X463509Y574090D01*
X463507Y574209D01*
X463506Y574209D02*
X463506Y580418D01*
X463508Y580557D01*
X463514Y580697D01*
X463524Y580835D01*
X463537Y580974D01*
X463555Y581112D01*
X463576Y581250D01*
X463601Y581387D01*
X463631Y581523D01*
X463663Y581659D01*
X463700Y581793D01*
X463741Y581926D01*
X463785Y582058D01*
X463833Y582189D01*
X463884Y582319D01*
X463939Y582447D01*
X463998Y582573D01*
X464060Y582698D01*
X464126Y582821D01*
X464195Y582942D01*
X464267Y583061D01*
X464343Y583178D01*
X464422Y583292D01*
X464504Y583405D01*
X464590Y583515D01*
X464678Y583623D01*
X464769Y583728D01*
X464864Y583830D01*
X464961Y583930D01*
X465061Y584027D01*
X465163Y584122D01*
X465268Y584213D01*
X465376Y584301D01*
X465486Y584387D01*
X465599Y584469D01*
X465713Y584548D01*
X465830Y584624D01*
X465949Y584696D01*
X466070Y584765D01*
X466193Y584831D01*
X466318Y584893D01*
X466444Y584952D01*
X466572Y585007D01*
X466702Y585058D01*
X466833Y585106D01*
X466965Y585150D01*
X467098Y585191D01*
X467232Y585228D01*
X467368Y585260D01*
X467504Y585290D01*
X467641Y585315D01*
X467779Y585336D01*
X467917Y585354D01*
X468056Y585367D01*
X468194Y585377D01*
X468334Y585383D01*
X468473Y585385D01*
X468612Y585383D01*
X468752Y585377D01*
X468890Y585367D01*
X469029Y585354D01*
X469167Y585336D01*
X469305Y585315D01*
X469442Y585290D01*
X469578Y585260D01*
X469714Y585228D01*
X469848Y585191D01*
X469981Y585150D01*
X470113Y585106D01*
X470244Y585058D01*
X470374Y585007D01*
X470502Y584952D01*
X470628Y584893D01*
X470753Y584831D01*
X470876Y584765D01*
X470997Y584696D01*
X471116Y584624D01*
X471233Y584548D01*
X471347Y584469D01*
X471460Y584387D01*
X471570Y584301D01*
X471678Y584213D01*
X471783Y584122D01*
X471885Y584027D01*
X471985Y583930D01*
X472082Y583830D01*
X472177Y583728D01*
X472268Y583623D01*
X472356Y583515D01*
X472442Y583405D01*
X472524Y583292D01*
X472603Y583178D01*
X472679Y583061D01*
X472751Y582942D01*
X472820Y582821D01*
X472886Y582698D01*
X472948Y582573D01*
X473007Y582447D01*
X473062Y582319D01*
X473113Y582189D01*
X473161Y582058D01*
X473205Y581926D01*
X473246Y581793D01*
X473283Y581659D01*
X473315Y581523D01*
X473345Y581387D01*
X473370Y581250D01*
X473391Y581112D01*
X473409Y580974D01*
X473422Y580835D01*
X473432Y580697D01*
X473438Y580557D01*
X473440Y580418D01*
X473441Y580418D02*
X473441Y577935D01*
X463506Y577935D01*
X482297Y585385D02*
X482297Y570484D01*
X482297Y585385D02*
X488506Y585385D01*
X488628Y585383D01*
X488750Y585377D01*
X488871Y585367D01*
X488992Y585353D01*
X489113Y585335D01*
X489233Y585313D01*
X489352Y585288D01*
X489470Y585258D01*
X489587Y585225D01*
X489703Y585187D01*
X489818Y585146D01*
X489931Y585101D01*
X490043Y585053D01*
X490154Y585001D01*
X490262Y584945D01*
X490368Y584886D01*
X490473Y584823D01*
X490575Y584757D01*
X490676Y584688D01*
X490774Y584615D01*
X490869Y584539D01*
X490962Y584461D01*
X491052Y584379D01*
X491140Y584294D01*
X491225Y584206D01*
X491307Y584116D01*
X491385Y584023D01*
X491461Y583928D01*
X491534Y583830D01*
X491603Y583730D01*
X491669Y583627D01*
X491732Y583523D01*
X491791Y583416D01*
X491847Y583308D01*
X491899Y583197D01*
X491947Y583086D01*
X491992Y582972D01*
X492033Y582857D01*
X492071Y582741D01*
X492104Y582624D01*
X492134Y582506D01*
X492159Y582387D01*
X492181Y582267D01*
X492199Y582146D01*
X492213Y582025D01*
X492223Y581904D01*
X492229Y581782D01*
X492231Y581660D01*
X492231Y570484D01*
D14*
X656957Y916968D02*
X656957Y920694D01*
X656957Y916968D02*
X659130Y914174D01*
X656957Y916968D02*
X654784Y914174D01*
X656957Y916968D02*
X660372Y918210D01*
X656957Y916968D02*
X653542Y918210D01*
X161967Y997656D02*
X161967Y1006348D01*
X161968Y997656D02*
X161966Y997558D01*
X161960Y997461D01*
X161951Y997364D01*
X161937Y997267D01*
X161920Y997171D01*
X161899Y997076D01*
X161875Y996982D01*
X161846Y996888D01*
X161814Y996796D01*
X161779Y996705D01*
X161740Y996616D01*
X161697Y996528D01*
X161651Y996442D01*
X161602Y996358D01*
X161549Y996276D01*
X161494Y996196D01*
X161435Y996118D01*
X161373Y996043D01*
X161308Y995970D01*
X161240Y995900D01*
X161170Y995832D01*
X161097Y995767D01*
X161022Y995705D01*
X160944Y995646D01*
X160864Y995591D01*
X160782Y995538D01*
X160698Y995489D01*
X160612Y995443D01*
X160524Y995400D01*
X160435Y995361D01*
X160344Y995326D01*
X160252Y995294D01*
X160158Y995265D01*
X160064Y995241D01*
X159969Y995220D01*
X159873Y995203D01*
X159776Y995189D01*
X159679Y995180D01*
X159581Y995174D01*
X159484Y995172D01*
X158242Y995172D01*
X170926Y1006348D02*
X171030Y1006346D01*
X171135Y1006340D01*
X171239Y1006330D01*
X171342Y1006317D01*
X171445Y1006299D01*
X171548Y1006278D01*
X171649Y1006253D01*
X171750Y1006224D01*
X171849Y1006191D01*
X171947Y1006155D01*
X172043Y1006115D01*
X172138Y1006071D01*
X172232Y1006024D01*
X172323Y1005974D01*
X172412Y1005920D01*
X172500Y1005863D01*
X172585Y1005802D01*
X172668Y1005738D01*
X172748Y1005672D01*
X172826Y1005602D01*
X172902Y1005530D01*
X172974Y1005454D01*
X173044Y1005376D01*
X173110Y1005296D01*
X173174Y1005213D01*
X173235Y1005128D01*
X173292Y1005040D01*
X173346Y1004951D01*
X173396Y1004860D01*
X173443Y1004766D01*
X173487Y1004671D01*
X173527Y1004575D01*
X173563Y1004477D01*
X173596Y1004378D01*
X173625Y1004277D01*
X173650Y1004176D01*
X173671Y1004073D01*
X173689Y1003970D01*
X173702Y1003867D01*
X173712Y1003763D01*
X173718Y1003658D01*
X173720Y1003554D01*
X170926Y1006349D02*
X170807Y1006347D01*
X170689Y1006341D01*
X170570Y1006331D01*
X170452Y1006318D01*
X170335Y1006300D01*
X170218Y1006278D01*
X170102Y1006253D01*
X169987Y1006224D01*
X169872Y1006191D01*
X169759Y1006154D01*
X169648Y1006114D01*
X169537Y1006070D01*
X169429Y1006022D01*
X169322Y1005971D01*
X169216Y1005916D01*
X169113Y1005857D01*
X169011Y1005796D01*
X168912Y1005731D01*
X168814Y1005662D01*
X168720Y1005591D01*
X168627Y1005516D01*
X168537Y1005439D01*
X168450Y1005358D01*
X168365Y1005275D01*
X168283Y1005189D01*
X168204Y1005100D01*
X168128Y1005009D01*
X168055Y1004915D01*
X167986Y1004819D01*
X167919Y1004720D01*
X167856Y1004620D01*
X167796Y1004517D01*
X167739Y1004413D01*
X167687Y1004306D01*
X167637Y1004198D01*
X167591Y1004089D01*
X167549Y1003977D01*
X167511Y1003865D01*
X172789Y1001381D02*
X172864Y1001455D01*
X172936Y1001532D01*
X173006Y1001611D01*
X173073Y1001693D01*
X173137Y1001777D01*
X173198Y1001863D01*
X173256Y1001951D01*
X173311Y1002042D01*
X173363Y1002134D01*
X173411Y1002228D01*
X173456Y1002323D01*
X173498Y1002421D01*
X173536Y1002519D01*
X173571Y1002619D01*
X173602Y1002720D01*
X173629Y1002822D01*
X173653Y1002925D01*
X173674Y1003028D01*
X173690Y1003133D01*
X173703Y1003238D01*
X173713Y1003343D01*
X173718Y1003448D01*
X173720Y1003554D01*
X172789Y1001381D02*
X167511Y995172D01*
X173720Y995172D01*
D15*
X336080Y77320D02*
X336080Y27320D01*
X336080Y117320D02*
X336080Y152320D01*
X436080Y152320D01*
X436080Y117320D01*
X436080Y77320D02*
X436080Y27320D01*
X426080Y27320D01*
X346080Y27320D02*
X336080Y27320D01*
X356080Y97320D02*
X356089Y98056D01*
X356116Y98792D01*
X356161Y99527D01*
X356224Y100261D01*
X356306Y100992D01*
X356405Y101722D01*
X356522Y102449D01*
X356656Y103173D01*
X356809Y103893D01*
X356979Y104609D01*
X357167Y105321D01*
X357372Y106029D01*
X357594Y106730D01*
X357834Y107427D01*
X358090Y108117D01*
X358364Y108801D01*
X358654Y109477D01*
X358960Y110147D01*
X359283Y110808D01*
X359622Y111462D01*
X359977Y112107D01*
X360348Y112743D01*
X360734Y113370D01*
X361136Y113987D01*
X361552Y114594D01*
X361984Y115191D01*
X362430Y115777D01*
X362890Y116352D01*
X363364Y116915D01*
X363851Y117467D01*
X364353Y118006D01*
X364867Y118533D01*
X365394Y119047D01*
X365933Y119549D01*
X366485Y120036D01*
X367048Y120510D01*
X367623Y120970D01*
X368209Y121416D01*
X368806Y121848D01*
X369413Y122264D01*
X370030Y122666D01*
X370657Y123052D01*
X371293Y123423D01*
X371938Y123778D01*
X372592Y124117D01*
X373253Y124440D01*
X373923Y124746D01*
X374599Y125036D01*
X375283Y125310D01*
X375973Y125566D01*
X376670Y125806D01*
X377371Y126028D01*
X378079Y126233D01*
X378791Y126421D01*
X379507Y126591D01*
X380227Y126744D01*
X380951Y126878D01*
X381678Y126995D01*
X382408Y127094D01*
X383139Y127176D01*
X383873Y127239D01*
X384608Y127284D01*
X385344Y127311D01*
X386080Y127320D01*
X386816Y127311D01*
X387552Y127284D01*
X388287Y127239D01*
X389021Y127176D01*
X389752Y127094D01*
X390482Y126995D01*
X391209Y126878D01*
X391933Y126744D01*
X392653Y126591D01*
X393369Y126421D01*
X394081Y126233D01*
X394789Y126028D01*
X395490Y125806D01*
X396187Y125566D01*
X396877Y125310D01*
X397561Y125036D01*
X398237Y124746D01*
X398907Y124440D01*
X399568Y124117D01*
X400222Y123778D01*
X400867Y123423D01*
X401503Y123052D01*
X402130Y122666D01*
X402747Y122264D01*
X403354Y121848D01*
X403951Y121416D01*
X404537Y120970D01*
X405112Y120510D01*
X405675Y120036D01*
X406227Y119549D01*
X406766Y119047D01*
X407293Y118533D01*
X407807Y118006D01*
X408309Y117467D01*
X408796Y116915D01*
X409270Y116352D01*
X409730Y115777D01*
X410176Y115191D01*
X410608Y114594D01*
X411024Y113987D01*
X411426Y113370D01*
X411812Y112743D01*
X412183Y112107D01*
X412538Y111462D01*
X412877Y110808D01*
X413200Y110147D01*
X413506Y109477D01*
X413796Y108801D01*
X414070Y108117D01*
X414326Y107427D01*
X414566Y106730D01*
X414788Y106029D01*
X414993Y105321D01*
X415181Y104609D01*
X415351Y103893D01*
X415504Y103173D01*
X415638Y102449D01*
X415755Y101722D01*
X415854Y100992D01*
X415936Y100261D01*
X415999Y99527D01*
X416044Y98792D01*
X416071Y98056D01*
X416080Y97320D01*
X416071Y96584D01*
X416044Y95848D01*
X415999Y95113D01*
X415936Y94379D01*
X415854Y93648D01*
X415755Y92918D01*
X415638Y92191D01*
X415504Y91467D01*
X415351Y90747D01*
X415181Y90031D01*
X414993Y89319D01*
X414788Y88611D01*
X414566Y87910D01*
X414326Y87213D01*
X414070Y86523D01*
X413796Y85839D01*
X413506Y85163D01*
X413200Y84493D01*
X412877Y83832D01*
X412538Y83178D01*
X412183Y82533D01*
X411812Y81897D01*
X411426Y81270D01*
X411024Y80653D01*
X410608Y80046D01*
X410176Y79449D01*
X409730Y78863D01*
X409270Y78288D01*
X408796Y77725D01*
X408309Y77173D01*
X407807Y76634D01*
X407293Y76107D01*
X406766Y75593D01*
X406227Y75091D01*
X405675Y74604D01*
X405112Y74130D01*
X404537Y73670D01*
X403951Y73224D01*
X403354Y72792D01*
X402747Y72376D01*
X402130Y71974D01*
X401503Y71588D01*
X400867Y71217D01*
X400222Y70862D01*
X399568Y70523D01*
X398907Y70200D01*
X398237Y69894D01*
X397561Y69604D01*
X396877Y69330D01*
X396187Y69074D01*
X395490Y68834D01*
X394789Y68612D01*
X394081Y68407D01*
X393369Y68219D01*
X392653Y68049D01*
X391933Y67896D01*
X391209Y67762D01*
X390482Y67645D01*
X389752Y67546D01*
X389021Y67464D01*
X388287Y67401D01*
X387552Y67356D01*
X386816Y67329D01*
X386080Y67320D01*
X385344Y67329D01*
X384608Y67356D01*
X383873Y67401D01*
X383139Y67464D01*
X382408Y67546D01*
X381678Y67645D01*
X380951Y67762D01*
X380227Y67896D01*
X379507Y68049D01*
X378791Y68219D01*
X378079Y68407D01*
X377371Y68612D01*
X376670Y68834D01*
X375973Y69074D01*
X375283Y69330D01*
X374599Y69604D01*
X373923Y69894D01*
X373253Y70200D01*
X372592Y70523D01*
X371938Y70862D01*
X371293Y71217D01*
X370657Y71588D01*
X370030Y71974D01*
X369413Y72376D01*
X368806Y72792D01*
X368209Y73224D01*
X367623Y73670D01*
X367048Y74130D01*
X366485Y74604D01*
X365933Y75091D01*
X365394Y75593D01*
X364867Y76107D01*
X364353Y76634D01*
X363851Y77173D01*
X363364Y77725D01*
X362890Y78288D01*
X362430Y78863D01*
X361984Y79449D01*
X361552Y80046D01*
X361136Y80653D01*
X360734Y81270D01*
X360348Y81897D01*
X359977Y82533D01*
X359622Y83178D01*
X359283Y83832D01*
X358960Y84493D01*
X358654Y85163D01*
X358364Y85839D01*
X358090Y86523D01*
X357834Y87213D01*
X357594Y87910D01*
X357372Y88611D01*
X357167Y89319D01*
X356979Y90031D01*
X356809Y90747D01*
X356656Y91467D01*
X356522Y92191D01*
X356405Y92918D01*
X356306Y93648D01*
X356224Y94379D01*
X356161Y95113D01*
X356116Y95848D01*
X356089Y96584D01*
X356080Y97320D01*
D14*
X336042Y161432D02*
X336042Y172608D01*
X339146Y172608D01*
X339257Y172606D01*
X339367Y172600D01*
X339478Y172590D01*
X339588Y172576D01*
X339697Y172559D01*
X339806Y172537D01*
X339914Y172512D01*
X340020Y172482D01*
X340126Y172449D01*
X340231Y172412D01*
X340334Y172372D01*
X340435Y172327D01*
X340535Y172280D01*
X340634Y172228D01*
X340730Y172173D01*
X340824Y172115D01*
X340916Y172054D01*
X341006Y171989D01*
X341094Y171921D01*
X341179Y171850D01*
X341261Y171776D01*
X341341Y171699D01*
X341418Y171619D01*
X341492Y171537D01*
X341563Y171452D01*
X341631Y171364D01*
X341696Y171274D01*
X341757Y171182D01*
X341815Y171088D01*
X341870Y170992D01*
X341922Y170893D01*
X341969Y170793D01*
X342014Y170692D01*
X342054Y170589D01*
X342091Y170484D01*
X342124Y170378D01*
X342154Y170272D01*
X342179Y170164D01*
X342201Y170055D01*
X342218Y169946D01*
X342232Y169836D01*
X342242Y169725D01*
X342248Y169615D01*
X342250Y169504D01*
X342248Y169393D01*
X342242Y169283D01*
X342232Y169172D01*
X342218Y169062D01*
X342201Y168953D01*
X342179Y168844D01*
X342154Y168736D01*
X342124Y168630D01*
X342091Y168524D01*
X342054Y168419D01*
X342014Y168316D01*
X341969Y168215D01*
X341922Y168115D01*
X341870Y168016D01*
X341815Y167920D01*
X341757Y167826D01*
X341696Y167734D01*
X341631Y167644D01*
X341563Y167556D01*
X341492Y167471D01*
X341418Y167389D01*
X341341Y167309D01*
X341261Y167232D01*
X341179Y167158D01*
X341094Y167087D01*
X341006Y167019D01*
X340916Y166954D01*
X340824Y166893D01*
X340730Y166835D01*
X340634Y166780D01*
X340535Y166728D01*
X340435Y166681D01*
X340334Y166636D01*
X340231Y166596D01*
X340126Y166559D01*
X340020Y166526D01*
X339914Y166496D01*
X339806Y166471D01*
X339697Y166449D01*
X339588Y166432D01*
X339478Y166418D01*
X339367Y166408D01*
X339257Y166402D01*
X339146Y166400D01*
X339146Y166399D02*
X336042Y166399D01*
X339767Y166399D02*
X342251Y161432D01*
X347380Y170124D02*
X350484Y172608D01*
X350484Y161432D01*
X347380Y161432D02*
X353589Y161432D01*
D15*
X610400Y79860D02*
X610400Y29860D01*
X610400Y119860D02*
X610400Y154860D01*
X710400Y154860D01*
X710400Y119860D01*
X710400Y79860D02*
X710400Y29860D01*
X700400Y29860D01*
X620400Y29860D02*
X610400Y29860D01*
X630400Y99860D02*
X630409Y100596D01*
X630436Y101332D01*
X630481Y102067D01*
X630544Y102801D01*
X630626Y103532D01*
X630725Y104262D01*
X630842Y104989D01*
X630976Y105713D01*
X631129Y106433D01*
X631299Y107149D01*
X631487Y107861D01*
X631692Y108569D01*
X631914Y109270D01*
X632154Y109967D01*
X632410Y110657D01*
X632684Y111341D01*
X632974Y112017D01*
X633280Y112687D01*
X633603Y113348D01*
X633942Y114002D01*
X634297Y114647D01*
X634668Y115283D01*
X635054Y115910D01*
X635456Y116527D01*
X635872Y117134D01*
X636304Y117731D01*
X636750Y118317D01*
X637210Y118892D01*
X637684Y119455D01*
X638171Y120007D01*
X638673Y120546D01*
X639187Y121073D01*
X639714Y121587D01*
X640253Y122089D01*
X640805Y122576D01*
X641368Y123050D01*
X641943Y123510D01*
X642529Y123956D01*
X643126Y124388D01*
X643733Y124804D01*
X644350Y125206D01*
X644977Y125592D01*
X645613Y125963D01*
X646258Y126318D01*
X646912Y126657D01*
X647573Y126980D01*
X648243Y127286D01*
X648919Y127576D01*
X649603Y127850D01*
X650293Y128106D01*
X650990Y128346D01*
X651691Y128568D01*
X652399Y128773D01*
X653111Y128961D01*
X653827Y129131D01*
X654547Y129284D01*
X655271Y129418D01*
X655998Y129535D01*
X656728Y129634D01*
X657459Y129716D01*
X658193Y129779D01*
X658928Y129824D01*
X659664Y129851D01*
X660400Y129860D01*
X661136Y129851D01*
X661872Y129824D01*
X662607Y129779D01*
X663341Y129716D01*
X664072Y129634D01*
X664802Y129535D01*
X665529Y129418D01*
X666253Y129284D01*
X666973Y129131D01*
X667689Y128961D01*
X668401Y128773D01*
X669109Y128568D01*
X669810Y128346D01*
X670507Y128106D01*
X671197Y127850D01*
X671881Y127576D01*
X672557Y127286D01*
X673227Y126980D01*
X673888Y126657D01*
X674542Y126318D01*
X675187Y125963D01*
X675823Y125592D01*
X676450Y125206D01*
X677067Y124804D01*
X677674Y124388D01*
X678271Y123956D01*
X678857Y123510D01*
X679432Y123050D01*
X679995Y122576D01*
X680547Y122089D01*
X681086Y121587D01*
X681613Y121073D01*
X682127Y120546D01*
X682629Y120007D01*
X683116Y119455D01*
X683590Y118892D01*
X684050Y118317D01*
X684496Y117731D01*
X684928Y117134D01*
X685344Y116527D01*
X685746Y115910D01*
X686132Y115283D01*
X686503Y114647D01*
X686858Y114002D01*
X687197Y113348D01*
X687520Y112687D01*
X687826Y112017D01*
X688116Y111341D01*
X688390Y110657D01*
X688646Y109967D01*
X688886Y109270D01*
X689108Y108569D01*
X689313Y107861D01*
X689501Y107149D01*
X689671Y106433D01*
X689824Y105713D01*
X689958Y104989D01*
X690075Y104262D01*
X690174Y103532D01*
X690256Y102801D01*
X690319Y102067D01*
X690364Y101332D01*
X690391Y100596D01*
X690400Y99860D01*
X690391Y99124D01*
X690364Y98388D01*
X690319Y97653D01*
X690256Y96919D01*
X690174Y96188D01*
X690075Y95458D01*
X689958Y94731D01*
X689824Y94007D01*
X689671Y93287D01*
X689501Y92571D01*
X689313Y91859D01*
X689108Y91151D01*
X688886Y90450D01*
X688646Y89753D01*
X688390Y89063D01*
X688116Y88379D01*
X687826Y87703D01*
X687520Y87033D01*
X687197Y86372D01*
X686858Y85718D01*
X686503Y85073D01*
X686132Y84437D01*
X685746Y83810D01*
X685344Y83193D01*
X684928Y82586D01*
X684496Y81989D01*
X684050Y81403D01*
X683590Y80828D01*
X683116Y80265D01*
X682629Y79713D01*
X682127Y79174D01*
X681613Y78647D01*
X681086Y78133D01*
X680547Y77631D01*
X679995Y77144D01*
X679432Y76670D01*
X678857Y76210D01*
X678271Y75764D01*
X677674Y75332D01*
X677067Y74916D01*
X676450Y74514D01*
X675823Y74128D01*
X675187Y73757D01*
X674542Y73402D01*
X673888Y73063D01*
X673227Y72740D01*
X672557Y72434D01*
X671881Y72144D01*
X671197Y71870D01*
X670507Y71614D01*
X669810Y71374D01*
X669109Y71152D01*
X668401Y70947D01*
X667689Y70759D01*
X666973Y70589D01*
X666253Y70436D01*
X665529Y70302D01*
X664802Y70185D01*
X664072Y70086D01*
X663341Y70004D01*
X662607Y69941D01*
X661872Y69896D01*
X661136Y69869D01*
X660400Y69860D01*
X659664Y69869D01*
X658928Y69896D01*
X658193Y69941D01*
X657459Y70004D01*
X656728Y70086D01*
X655998Y70185D01*
X655271Y70302D01*
X654547Y70436D01*
X653827Y70589D01*
X653111Y70759D01*
X652399Y70947D01*
X651691Y71152D01*
X650990Y71374D01*
X650293Y71614D01*
X649603Y71870D01*
X648919Y72144D01*
X648243Y72434D01*
X647573Y72740D01*
X646912Y73063D01*
X646258Y73402D01*
X645613Y73757D01*
X644977Y74128D01*
X644350Y74514D01*
X643733Y74916D01*
X643126Y75332D01*
X642529Y75764D01*
X641943Y76210D01*
X641368Y76670D01*
X640805Y77144D01*
X640253Y77631D01*
X639714Y78133D01*
X639187Y78647D01*
X638673Y79174D01*
X638171Y79713D01*
X637684Y80265D01*
X637210Y80828D01*
X636750Y81403D01*
X636304Y81989D01*
X635872Y82586D01*
X635456Y83193D01*
X635054Y83810D01*
X634668Y84437D01*
X634297Y85073D01*
X633942Y85718D01*
X633603Y86372D01*
X633280Y87033D01*
X632974Y87703D01*
X632684Y88379D01*
X632410Y89063D01*
X632154Y89753D01*
X631914Y90450D01*
X631692Y91151D01*
X631487Y91859D01*
X631299Y92571D01*
X631129Y93287D01*
X630976Y94007D01*
X630842Y94731D01*
X630725Y95458D01*
X630626Y96188D01*
X630544Y96919D01*
X630481Y97653D01*
X630436Y98388D01*
X630409Y99124D01*
X630400Y99860D01*
D14*
X610362Y163972D02*
X610362Y175148D01*
X613466Y175148D01*
X613577Y175146D01*
X613687Y175140D01*
X613798Y175130D01*
X613908Y175116D01*
X614017Y175099D01*
X614126Y175077D01*
X614234Y175052D01*
X614340Y175022D01*
X614446Y174989D01*
X614551Y174952D01*
X614654Y174912D01*
X614755Y174867D01*
X614855Y174820D01*
X614954Y174768D01*
X615050Y174713D01*
X615144Y174655D01*
X615236Y174594D01*
X615326Y174529D01*
X615414Y174461D01*
X615499Y174390D01*
X615581Y174316D01*
X615661Y174239D01*
X615738Y174159D01*
X615812Y174077D01*
X615883Y173992D01*
X615951Y173904D01*
X616016Y173814D01*
X616077Y173722D01*
X616135Y173628D01*
X616190Y173532D01*
X616242Y173433D01*
X616289Y173333D01*
X616334Y173232D01*
X616374Y173129D01*
X616411Y173024D01*
X616444Y172918D01*
X616474Y172812D01*
X616499Y172704D01*
X616521Y172595D01*
X616538Y172486D01*
X616552Y172376D01*
X616562Y172265D01*
X616568Y172155D01*
X616570Y172044D01*
X616568Y171933D01*
X616562Y171823D01*
X616552Y171712D01*
X616538Y171602D01*
X616521Y171493D01*
X616499Y171384D01*
X616474Y171276D01*
X616444Y171170D01*
X616411Y171064D01*
X616374Y170959D01*
X616334Y170856D01*
X616289Y170755D01*
X616242Y170655D01*
X616190Y170556D01*
X616135Y170460D01*
X616077Y170366D01*
X616016Y170274D01*
X615951Y170184D01*
X615883Y170096D01*
X615812Y170011D01*
X615738Y169929D01*
X615661Y169849D01*
X615581Y169772D01*
X615499Y169698D01*
X615414Y169627D01*
X615326Y169559D01*
X615236Y169494D01*
X615144Y169433D01*
X615050Y169375D01*
X614954Y169320D01*
X614855Y169268D01*
X614755Y169221D01*
X614654Y169176D01*
X614551Y169136D01*
X614446Y169099D01*
X614340Y169066D01*
X614234Y169036D01*
X614126Y169011D01*
X614017Y168989D01*
X613908Y168972D01*
X613798Y168958D01*
X613687Y168948D01*
X613577Y168942D01*
X613466Y168940D01*
X613466Y168939D02*
X610362Y168939D01*
X614087Y168939D02*
X616571Y163972D01*
X625115Y175148D02*
X625219Y175146D01*
X625324Y175140D01*
X625428Y175130D01*
X625531Y175117D01*
X625634Y175099D01*
X625737Y175078D01*
X625838Y175053D01*
X625939Y175024D01*
X626038Y174991D01*
X626136Y174955D01*
X626232Y174915D01*
X626327Y174871D01*
X626421Y174824D01*
X626512Y174774D01*
X626601Y174720D01*
X626689Y174663D01*
X626774Y174602D01*
X626857Y174538D01*
X626937Y174472D01*
X627015Y174402D01*
X627091Y174330D01*
X627163Y174254D01*
X627233Y174176D01*
X627299Y174096D01*
X627363Y174013D01*
X627424Y173928D01*
X627481Y173840D01*
X627535Y173751D01*
X627585Y173660D01*
X627632Y173566D01*
X627676Y173471D01*
X627716Y173375D01*
X627752Y173277D01*
X627785Y173178D01*
X627814Y173077D01*
X627839Y172976D01*
X627860Y172873D01*
X627878Y172770D01*
X627891Y172667D01*
X627901Y172563D01*
X627907Y172458D01*
X627909Y172354D01*
X625115Y175149D02*
X624996Y175147D01*
X624878Y175141D01*
X624759Y175131D01*
X624641Y175118D01*
X624524Y175100D01*
X624407Y175078D01*
X624291Y175053D01*
X624176Y175024D01*
X624061Y174991D01*
X623948Y174954D01*
X623837Y174914D01*
X623726Y174870D01*
X623618Y174822D01*
X623511Y174771D01*
X623405Y174716D01*
X623302Y174657D01*
X623200Y174596D01*
X623101Y174531D01*
X623003Y174462D01*
X622909Y174391D01*
X622816Y174316D01*
X622726Y174239D01*
X622639Y174158D01*
X622554Y174075D01*
X622472Y173989D01*
X622393Y173900D01*
X622317Y173809D01*
X622244Y173715D01*
X622175Y173619D01*
X622108Y173520D01*
X622045Y173420D01*
X621985Y173317D01*
X621928Y173213D01*
X621876Y173106D01*
X621826Y172998D01*
X621780Y172889D01*
X621738Y172777D01*
X621700Y172665D01*
X626978Y170181D02*
X627053Y170255D01*
X627125Y170332D01*
X627195Y170411D01*
X627262Y170493D01*
X627326Y170577D01*
X627387Y170663D01*
X627445Y170751D01*
X627500Y170842D01*
X627552Y170934D01*
X627600Y171028D01*
X627645Y171123D01*
X627687Y171221D01*
X627725Y171319D01*
X627760Y171419D01*
X627791Y171520D01*
X627818Y171622D01*
X627842Y171725D01*
X627863Y171828D01*
X627879Y171933D01*
X627892Y172038D01*
X627902Y172143D01*
X627907Y172248D01*
X627909Y172354D01*
X626978Y170181D02*
X621700Y163972D01*
X627909Y163972D01*
D12*
X265740Y23660D02*
X265737Y23418D01*
X265728Y23177D01*
X265714Y22936D01*
X265693Y22695D01*
X265667Y22455D01*
X265635Y22215D01*
X265597Y21976D01*
X265554Y21739D01*
X265504Y21502D01*
X265449Y21267D01*
X265389Y21033D01*
X265322Y20801D01*
X265251Y20570D01*
X265173Y20341D01*
X265090Y20114D01*
X265002Y19889D01*
X264908Y19666D01*
X264809Y19446D01*
X264704Y19228D01*
X264595Y19013D01*
X264480Y18800D01*
X264360Y18590D01*
X264235Y18384D01*
X264105Y18180D01*
X263970Y17979D01*
X263830Y17782D01*
X263686Y17588D01*
X263537Y17398D01*
X263383Y17212D01*
X263225Y17029D01*
X263063Y16850D01*
X262896Y16675D01*
X262725Y16504D01*
X262550Y16337D01*
X262371Y16175D01*
X262188Y16017D01*
X262002Y15863D01*
X261812Y15714D01*
X261618Y15570D01*
X261421Y15430D01*
X261220Y15295D01*
X261016Y15165D01*
X260810Y15040D01*
X260600Y14920D01*
X260387Y14805D01*
X260172Y14696D01*
X259954Y14591D01*
X259734Y14492D01*
X259511Y14398D01*
X259286Y14310D01*
X259059Y14227D01*
X258830Y14149D01*
X258599Y14078D01*
X258367Y14011D01*
X258133Y13951D01*
X257898Y13896D01*
X257661Y13846D01*
X257424Y13803D01*
X257185Y13765D01*
X256945Y13733D01*
X256705Y13707D01*
X256464Y13686D01*
X256223Y13672D01*
X255982Y13663D01*
X255740Y13660D01*
X155740Y13660D01*
X155498Y13663D01*
X155257Y13672D01*
X155016Y13686D01*
X154775Y13707D01*
X154535Y13733D01*
X154295Y13765D01*
X154056Y13803D01*
X153819Y13846D01*
X153582Y13896D01*
X153347Y13951D01*
X153113Y14011D01*
X152881Y14078D01*
X152650Y14149D01*
X152421Y14227D01*
X152194Y14310D01*
X151969Y14398D01*
X151746Y14492D01*
X151526Y14591D01*
X151308Y14696D01*
X151093Y14805D01*
X150880Y14920D01*
X150670Y15040D01*
X150464Y15165D01*
X150260Y15295D01*
X150059Y15430D01*
X149862Y15570D01*
X149668Y15714D01*
X149478Y15863D01*
X149292Y16017D01*
X149109Y16175D01*
X148930Y16337D01*
X148755Y16504D01*
X148584Y16675D01*
X148417Y16850D01*
X148255Y17029D01*
X148097Y17212D01*
X147943Y17398D01*
X147794Y17588D01*
X147650Y17782D01*
X147510Y17979D01*
X147375Y18180D01*
X147245Y18384D01*
X147120Y18590D01*
X147000Y18800D01*
X146885Y19013D01*
X146776Y19228D01*
X146671Y19446D01*
X146572Y19666D01*
X146478Y19889D01*
X146390Y20114D01*
X146307Y20341D01*
X146229Y20570D01*
X146158Y20801D01*
X146091Y21033D01*
X146031Y21267D01*
X145976Y21502D01*
X145926Y21739D01*
X145883Y21976D01*
X145845Y22215D01*
X145813Y22455D01*
X145787Y22695D01*
X145766Y22936D01*
X145752Y23177D01*
X145743Y23418D01*
X145740Y23660D01*
X145740Y123660D02*
X145743Y123902D01*
X145752Y124143D01*
X145766Y124384D01*
X145787Y124625D01*
X145813Y124865D01*
X145845Y125105D01*
X145883Y125344D01*
X145926Y125581D01*
X145976Y125818D01*
X146031Y126053D01*
X146091Y126287D01*
X146158Y126519D01*
X146229Y126750D01*
X146307Y126979D01*
X146390Y127206D01*
X146478Y127431D01*
X146572Y127654D01*
X146671Y127874D01*
X146776Y128092D01*
X146885Y128307D01*
X147000Y128520D01*
X147120Y128730D01*
X147245Y128936D01*
X147375Y129140D01*
X147510Y129341D01*
X147650Y129538D01*
X147794Y129732D01*
X147943Y129922D01*
X148097Y130108D01*
X148255Y130291D01*
X148417Y130470D01*
X148584Y130645D01*
X148755Y130816D01*
X148930Y130983D01*
X149109Y131145D01*
X149292Y131303D01*
X149478Y131457D01*
X149668Y131606D01*
X149862Y131750D01*
X150059Y131890D01*
X150260Y132025D01*
X150464Y132155D01*
X150670Y132280D01*
X150880Y132400D01*
X151093Y132515D01*
X151308Y132624D01*
X151526Y132729D01*
X151746Y132828D01*
X151969Y132922D01*
X152194Y133010D01*
X152421Y133093D01*
X152650Y133171D01*
X152881Y133242D01*
X153113Y133309D01*
X153347Y133369D01*
X153582Y133424D01*
X153819Y133474D01*
X154056Y133517D01*
X154295Y133555D01*
X154535Y133587D01*
X154775Y133613D01*
X155016Y133634D01*
X155257Y133648D01*
X155498Y133657D01*
X155740Y133660D01*
X255740Y133660D01*
X255982Y133657D01*
X256223Y133648D01*
X256464Y133634D01*
X256705Y133613D01*
X256945Y133587D01*
X257185Y133555D01*
X257424Y133517D01*
X257661Y133474D01*
X257898Y133424D01*
X258133Y133369D01*
X258367Y133309D01*
X258599Y133242D01*
X258830Y133171D01*
X259059Y133093D01*
X259286Y133010D01*
X259511Y132922D01*
X259734Y132828D01*
X259954Y132729D01*
X260172Y132624D01*
X260387Y132515D01*
X260600Y132400D01*
X260810Y132280D01*
X261016Y132155D01*
X261220Y132025D01*
X261421Y131890D01*
X261618Y131750D01*
X261812Y131606D01*
X262002Y131457D01*
X262188Y131303D01*
X262371Y131145D01*
X262550Y130983D01*
X262725Y130816D01*
X262896Y130645D01*
X263063Y130470D01*
X263225Y130291D01*
X263383Y130108D01*
X263537Y129922D01*
X263686Y129732D01*
X263830Y129538D01*
X263970Y129341D01*
X264105Y129140D01*
X264235Y128936D01*
X264360Y128730D01*
X264480Y128520D01*
X264595Y128307D01*
X264704Y128092D01*
X264809Y127874D01*
X264908Y127654D01*
X265002Y127431D01*
X265090Y127206D01*
X265173Y126979D01*
X265251Y126750D01*
X265322Y126519D01*
X265389Y126287D01*
X265449Y126053D01*
X265504Y125818D01*
X265554Y125581D01*
X265597Y125344D01*
X265635Y125105D01*
X265667Y124865D01*
X265693Y124625D01*
X265714Y124384D01*
X265728Y124143D01*
X265737Y123902D01*
X265740Y123660D01*
X170385Y73660D02*
X170396Y74528D01*
X170428Y75395D01*
X170481Y76261D01*
X170555Y77125D01*
X170651Y77988D01*
X170768Y78848D01*
X170906Y79704D01*
X171064Y80557D01*
X171244Y81406D01*
X171445Y82251D01*
X171666Y83090D01*
X171907Y83923D01*
X172169Y84750D01*
X172452Y85571D01*
X172754Y86384D01*
X173076Y87190D01*
X173418Y87987D01*
X173779Y88776D01*
X174160Y89556D01*
X174560Y90326D01*
X174978Y91086D01*
X175415Y91836D01*
X175870Y92575D01*
X176343Y93302D01*
X176834Y94018D01*
X177343Y94721D01*
X177868Y95412D01*
X178410Y96089D01*
X178969Y96753D01*
X179544Y97403D01*
X180134Y98039D01*
X180740Y98660D01*
X181361Y99266D01*
X181997Y99856D01*
X182647Y100431D01*
X183311Y100990D01*
X183988Y101532D01*
X184679Y102057D01*
X185382Y102566D01*
X186098Y103057D01*
X186825Y103530D01*
X187564Y103985D01*
X188314Y104422D01*
X189074Y104840D01*
X189844Y105240D01*
X190624Y105621D01*
X191413Y105982D01*
X192210Y106324D01*
X193016Y106646D01*
X193829Y106948D01*
X194650Y107231D01*
X195477Y107493D01*
X196310Y107734D01*
X197149Y107955D01*
X197994Y108156D01*
X198843Y108336D01*
X199696Y108494D01*
X200552Y108632D01*
X201412Y108749D01*
X202275Y108845D01*
X203139Y108919D01*
X204005Y108972D01*
X204872Y109004D01*
X205740Y109015D01*
X206608Y109004D01*
X207475Y108972D01*
X208341Y108919D01*
X209205Y108845D01*
X210068Y108749D01*
X210928Y108632D01*
X211784Y108494D01*
X212637Y108336D01*
X213486Y108156D01*
X214331Y107955D01*
X215170Y107734D01*
X216003Y107493D01*
X216830Y107231D01*
X217651Y106948D01*
X218464Y106646D01*
X219270Y106324D01*
X220067Y105982D01*
X220856Y105621D01*
X221636Y105240D01*
X222406Y104840D01*
X223166Y104422D01*
X223916Y103985D01*
X224655Y103530D01*
X225382Y103057D01*
X226098Y102566D01*
X226801Y102057D01*
X227492Y101532D01*
X228169Y100990D01*
X228833Y100431D01*
X229483Y99856D01*
X230119Y99266D01*
X230740Y98660D01*
X231346Y98039D01*
X231936Y97403D01*
X232511Y96753D01*
X233070Y96089D01*
X233612Y95412D01*
X234137Y94721D01*
X234646Y94018D01*
X235137Y93302D01*
X235610Y92575D01*
X236065Y91836D01*
X236502Y91086D01*
X236920Y90326D01*
X237320Y89556D01*
X237701Y88776D01*
X238062Y87987D01*
X238404Y87190D01*
X238726Y86384D01*
X239028Y85571D01*
X239311Y84750D01*
X239573Y83923D01*
X239814Y83090D01*
X240035Y82251D01*
X240236Y81406D01*
X240416Y80557D01*
X240574Y79704D01*
X240712Y78848D01*
X240829Y77988D01*
X240925Y77125D01*
X240999Y76261D01*
X241052Y75395D01*
X241084Y74528D01*
X241095Y73660D01*
X241084Y72792D01*
X241052Y71925D01*
X240999Y71059D01*
X240925Y70195D01*
X240829Y69332D01*
X240712Y68472D01*
X240574Y67616D01*
X240416Y66763D01*
X240236Y65914D01*
X240035Y65069D01*
X239814Y64230D01*
X239573Y63397D01*
X239311Y62570D01*
X239028Y61749D01*
X238726Y60936D01*
X238404Y60130D01*
X238062Y59333D01*
X237701Y58544D01*
X237320Y57764D01*
X236920Y56994D01*
X236502Y56234D01*
X236065Y55484D01*
X235610Y54745D01*
X235137Y54018D01*
X234646Y53302D01*
X234137Y52599D01*
X233612Y51908D01*
X233070Y51231D01*
X232511Y50567D01*
X231936Y49917D01*
X231346Y49281D01*
X230740Y48660D01*
X230119Y48054D01*
X229483Y47464D01*
X228833Y46889D01*
X228169Y46330D01*
X227492Y45788D01*
X226801Y45263D01*
X226098Y44754D01*
X225382Y44263D01*
X224655Y43790D01*
X223916Y43335D01*
X223166Y42898D01*
X222406Y42480D01*
X221636Y42080D01*
X220856Y41699D01*
X220067Y41338D01*
X219270Y40996D01*
X218464Y40674D01*
X217651Y40372D01*
X216830Y40089D01*
X216003Y39827D01*
X215170Y39586D01*
X214331Y39365D01*
X213486Y39164D01*
X212637Y38984D01*
X211784Y38826D01*
X210928Y38688D01*
X210068Y38571D01*
X209205Y38475D01*
X208341Y38401D01*
X207475Y38348D01*
X206608Y38316D01*
X205740Y38305D01*
X204872Y38316D01*
X204005Y38348D01*
X203139Y38401D01*
X202275Y38475D01*
X201412Y38571D01*
X200552Y38688D01*
X199696Y38826D01*
X198843Y38984D01*
X197994Y39164D01*
X197149Y39365D01*
X196310Y39586D01*
X195477Y39827D01*
X194650Y40089D01*
X193829Y40372D01*
X193016Y40674D01*
X192210Y40996D01*
X191413Y41338D01*
X190624Y41699D01*
X189844Y42080D01*
X189074Y42480D01*
X188314Y42898D01*
X187564Y43335D01*
X186825Y43790D01*
X186098Y44263D01*
X185382Y44754D01*
X184679Y45263D01*
X183988Y45788D01*
X183311Y46330D01*
X182647Y46889D01*
X181997Y47464D01*
X181361Y48054D01*
X180740Y48660D01*
X180134Y49281D01*
X179544Y49917D01*
X178969Y50567D01*
X178410Y51231D01*
X177868Y51908D01*
X177343Y52599D01*
X176834Y53302D01*
X176343Y54018D01*
X175870Y54745D01*
X175415Y55484D01*
X174978Y56234D01*
X174560Y56994D01*
X174160Y57764D01*
X173779Y58544D01*
X173418Y59333D01*
X173076Y60130D01*
X172754Y60936D01*
X172452Y61749D01*
X172169Y62570D01*
X171907Y63397D01*
X171666Y64230D01*
X171445Y65069D01*
X171244Y65914D01*
X171064Y66763D01*
X170906Y67616D01*
X170768Y68472D01*
X170651Y69332D01*
X170555Y70195D01*
X170481Y71059D01*
X170428Y71925D01*
X170396Y72792D01*
X170385Y73660D01*
X185740Y93660D02*
X225740Y93660D01*
X225740Y53660D01*
X185740Y53660D01*
X185740Y93660D01*
X145740Y111160D02*
X145740Y123660D01*
X145740Y86160D02*
X145740Y61160D01*
X145740Y36160D02*
X145740Y23660D01*
X265740Y111160D02*
X265740Y123660D01*
X265740Y86160D02*
X265740Y61160D01*
X265740Y36160D02*
X265740Y23660D01*
D14*
X159427Y144272D02*
X159524Y144274D01*
X159622Y144280D01*
X159719Y144289D01*
X159816Y144303D01*
X159912Y144320D01*
X160007Y144341D01*
X160101Y144365D01*
X160195Y144394D01*
X160287Y144426D01*
X160378Y144461D01*
X160467Y144500D01*
X160555Y144543D01*
X160641Y144589D01*
X160725Y144638D01*
X160807Y144691D01*
X160887Y144746D01*
X160965Y144805D01*
X161040Y144867D01*
X161113Y144932D01*
X161183Y145000D01*
X161251Y145070D01*
X161316Y145143D01*
X161378Y145218D01*
X161437Y145296D01*
X161492Y145376D01*
X161545Y145458D01*
X161594Y145542D01*
X161640Y145628D01*
X161683Y145716D01*
X161722Y145805D01*
X161757Y145896D01*
X161789Y145988D01*
X161818Y146082D01*
X161842Y146176D01*
X161863Y146271D01*
X161880Y146367D01*
X161894Y146464D01*
X161903Y146561D01*
X161909Y146658D01*
X161911Y146756D01*
X159427Y144272D02*
X159284Y144274D01*
X159141Y144280D01*
X158999Y144289D01*
X158857Y144303D01*
X158715Y144321D01*
X158574Y144342D01*
X158433Y144367D01*
X158293Y144396D01*
X158154Y144429D01*
X158016Y144465D01*
X157879Y144506D01*
X157743Y144550D01*
X157608Y144597D01*
X157475Y144649D01*
X157343Y144704D01*
X157213Y144762D01*
X157084Y144824D01*
X156957Y144890D01*
X156832Y144959D01*
X156709Y145031D01*
X156588Y145107D01*
X156469Y145185D01*
X156352Y145268D01*
X156237Y145353D01*
X156125Y145441D01*
X156015Y145533D01*
X155908Y145627D01*
X155803Y145724D01*
X155701Y145824D01*
X156012Y152964D02*
X156014Y153062D01*
X156020Y153159D01*
X156029Y153256D01*
X156043Y153353D01*
X156060Y153449D01*
X156081Y153544D01*
X156105Y153638D01*
X156134Y153732D01*
X156166Y153824D01*
X156201Y153915D01*
X156240Y154004D01*
X156283Y154092D01*
X156329Y154178D01*
X156378Y154262D01*
X156431Y154344D01*
X156486Y154424D01*
X156545Y154502D01*
X156607Y154577D01*
X156672Y154650D01*
X156740Y154720D01*
X156810Y154788D01*
X156883Y154853D01*
X156958Y154915D01*
X157036Y154974D01*
X157116Y155029D01*
X157198Y155082D01*
X157282Y155131D01*
X157368Y155177D01*
X157456Y155220D01*
X157545Y155259D01*
X157636Y155294D01*
X157728Y155326D01*
X157822Y155355D01*
X157916Y155379D01*
X158011Y155400D01*
X158107Y155417D01*
X158204Y155431D01*
X158301Y155440D01*
X158398Y155446D01*
X158496Y155448D01*
X158626Y155446D01*
X158756Y155441D01*
X158886Y155432D01*
X159016Y155419D01*
X159145Y155403D01*
X159274Y155383D01*
X159402Y155359D01*
X159530Y155332D01*
X159656Y155301D01*
X159782Y155267D01*
X159907Y155229D01*
X160030Y155188D01*
X160153Y155143D01*
X160274Y155095D01*
X160394Y155044D01*
X160512Y154989D01*
X160628Y154931D01*
X160743Y154870D01*
X160857Y154805D01*
X160968Y154738D01*
X161077Y154667D01*
X161185Y154593D01*
X161290Y154517D01*
X157255Y150791D02*
X157172Y150842D01*
X157091Y150896D01*
X157013Y150953D01*
X156937Y151013D01*
X156863Y151076D01*
X156792Y151142D01*
X156723Y151210D01*
X156657Y151281D01*
X156593Y151354D01*
X156533Y151430D01*
X156476Y151508D01*
X156421Y151589D01*
X156370Y151671D01*
X156322Y151755D01*
X156277Y151841D01*
X156235Y151929D01*
X156197Y152018D01*
X156163Y152108D01*
X156131Y152200D01*
X156104Y152293D01*
X156080Y152387D01*
X156059Y152482D01*
X156043Y152578D01*
X156030Y152674D01*
X156020Y152770D01*
X156015Y152867D01*
X156013Y152964D01*
X160668Y148929D02*
X160751Y148878D01*
X160832Y148824D01*
X160910Y148767D01*
X160986Y148707D01*
X161060Y148644D01*
X161131Y148578D01*
X161200Y148510D01*
X161266Y148439D01*
X161330Y148366D01*
X161390Y148290D01*
X161447Y148212D01*
X161502Y148131D01*
X161553Y148049D01*
X161601Y147965D01*
X161646Y147879D01*
X161688Y147791D01*
X161726Y147702D01*
X161760Y147612D01*
X161792Y147520D01*
X161819Y147427D01*
X161843Y147333D01*
X161864Y147238D01*
X161880Y147142D01*
X161893Y147046D01*
X161903Y146950D01*
X161908Y146853D01*
X161910Y146756D01*
X160669Y148929D02*
X157254Y150791D01*
X166412Y155448D02*
X168896Y144272D01*
X171379Y151723D01*
X173863Y144272D01*
X176347Y155448D01*
X181229Y152964D02*
X184333Y155448D01*
X184333Y144272D01*
X181229Y144272D02*
X187438Y144272D01*
D12*
X956780Y33980D02*
X957022Y33983D01*
X957263Y33992D01*
X957504Y34006D01*
X957745Y34027D01*
X957985Y34053D01*
X958225Y34085D01*
X958464Y34123D01*
X958701Y34166D01*
X958938Y34216D01*
X959173Y34271D01*
X959407Y34331D01*
X959639Y34398D01*
X959870Y34469D01*
X960099Y34547D01*
X960326Y34630D01*
X960551Y34718D01*
X960774Y34812D01*
X960994Y34911D01*
X961212Y35016D01*
X961427Y35125D01*
X961640Y35240D01*
X961850Y35360D01*
X962056Y35485D01*
X962260Y35615D01*
X962461Y35750D01*
X962658Y35890D01*
X962852Y36034D01*
X963042Y36183D01*
X963228Y36337D01*
X963411Y36495D01*
X963590Y36657D01*
X963765Y36824D01*
X963936Y36995D01*
X964103Y37170D01*
X964265Y37349D01*
X964423Y37532D01*
X964577Y37718D01*
X964726Y37908D01*
X964870Y38102D01*
X965010Y38299D01*
X965145Y38500D01*
X965275Y38704D01*
X965400Y38910D01*
X965520Y39120D01*
X965635Y39333D01*
X965744Y39548D01*
X965849Y39766D01*
X965948Y39986D01*
X966042Y40209D01*
X966130Y40434D01*
X966213Y40661D01*
X966291Y40890D01*
X966362Y41121D01*
X966429Y41353D01*
X966489Y41587D01*
X966544Y41822D01*
X966594Y42059D01*
X966637Y42296D01*
X966675Y42535D01*
X966707Y42775D01*
X966733Y43015D01*
X966754Y43256D01*
X966768Y43497D01*
X966777Y43738D01*
X966780Y43980D01*
X956780Y33980D02*
X856780Y33980D01*
X856538Y33983D01*
X856297Y33992D01*
X856056Y34006D01*
X855815Y34027D01*
X855575Y34053D01*
X855335Y34085D01*
X855096Y34123D01*
X854859Y34166D01*
X854622Y34216D01*
X854387Y34271D01*
X854153Y34331D01*
X853921Y34398D01*
X853690Y34469D01*
X853461Y34547D01*
X853234Y34630D01*
X853009Y34718D01*
X852786Y34812D01*
X852566Y34911D01*
X852348Y35016D01*
X852133Y35125D01*
X851920Y35240D01*
X851710Y35360D01*
X851504Y35485D01*
X851300Y35615D01*
X851099Y35750D01*
X850902Y35890D01*
X850708Y36034D01*
X850518Y36183D01*
X850332Y36337D01*
X850149Y36495D01*
X849970Y36657D01*
X849795Y36824D01*
X849624Y36995D01*
X849457Y37170D01*
X849295Y37349D01*
X849137Y37532D01*
X848983Y37718D01*
X848834Y37908D01*
X848690Y38102D01*
X848550Y38299D01*
X848415Y38500D01*
X848285Y38704D01*
X848160Y38910D01*
X848040Y39120D01*
X847925Y39333D01*
X847816Y39548D01*
X847711Y39766D01*
X847612Y39986D01*
X847518Y40209D01*
X847430Y40434D01*
X847347Y40661D01*
X847269Y40890D01*
X847198Y41121D01*
X847131Y41353D01*
X847071Y41587D01*
X847016Y41822D01*
X846966Y42059D01*
X846923Y42296D01*
X846885Y42535D01*
X846853Y42775D01*
X846827Y43015D01*
X846806Y43256D01*
X846792Y43497D01*
X846783Y43738D01*
X846780Y43980D01*
X846780Y143980D02*
X846783Y144222D01*
X846792Y144463D01*
X846806Y144704D01*
X846827Y144945D01*
X846853Y145185D01*
X846885Y145425D01*
X846923Y145664D01*
X846966Y145901D01*
X847016Y146138D01*
X847071Y146373D01*
X847131Y146607D01*
X847198Y146839D01*
X847269Y147070D01*
X847347Y147299D01*
X847430Y147526D01*
X847518Y147751D01*
X847612Y147974D01*
X847711Y148194D01*
X847816Y148412D01*
X847925Y148627D01*
X848040Y148840D01*
X848160Y149050D01*
X848285Y149256D01*
X848415Y149460D01*
X848550Y149661D01*
X848690Y149858D01*
X848834Y150052D01*
X848983Y150242D01*
X849137Y150428D01*
X849295Y150611D01*
X849457Y150790D01*
X849624Y150965D01*
X849795Y151136D01*
X849970Y151303D01*
X850149Y151465D01*
X850332Y151623D01*
X850518Y151777D01*
X850708Y151926D01*
X850902Y152070D01*
X851099Y152210D01*
X851300Y152345D01*
X851504Y152475D01*
X851710Y152600D01*
X851920Y152720D01*
X852133Y152835D01*
X852348Y152944D01*
X852566Y153049D01*
X852786Y153148D01*
X853009Y153242D01*
X853234Y153330D01*
X853461Y153413D01*
X853690Y153491D01*
X853921Y153562D01*
X854153Y153629D01*
X854387Y153689D01*
X854622Y153744D01*
X854859Y153794D01*
X855096Y153837D01*
X855335Y153875D01*
X855575Y153907D01*
X855815Y153933D01*
X856056Y153954D01*
X856297Y153968D01*
X856538Y153977D01*
X856780Y153980D01*
X956780Y153980D01*
X957022Y153977D01*
X957263Y153968D01*
X957504Y153954D01*
X957745Y153933D01*
X957985Y153907D01*
X958225Y153875D01*
X958464Y153837D01*
X958701Y153794D01*
X958938Y153744D01*
X959173Y153689D01*
X959407Y153629D01*
X959639Y153562D01*
X959870Y153491D01*
X960099Y153413D01*
X960326Y153330D01*
X960551Y153242D01*
X960774Y153148D01*
X960994Y153049D01*
X961212Y152944D01*
X961427Y152835D01*
X961640Y152720D01*
X961850Y152600D01*
X962056Y152475D01*
X962260Y152345D01*
X962461Y152210D01*
X962658Y152070D01*
X962852Y151926D01*
X963042Y151777D01*
X963228Y151623D01*
X963411Y151465D01*
X963590Y151303D01*
X963765Y151136D01*
X963936Y150965D01*
X964103Y150790D01*
X964265Y150611D01*
X964423Y150428D01*
X964577Y150242D01*
X964726Y150052D01*
X964870Y149858D01*
X965010Y149661D01*
X965145Y149460D01*
X965275Y149256D01*
X965400Y149050D01*
X965520Y148840D01*
X965635Y148627D01*
X965744Y148412D01*
X965849Y148194D01*
X965948Y147974D01*
X966042Y147751D01*
X966130Y147526D01*
X966213Y147299D01*
X966291Y147070D01*
X966362Y146839D01*
X966429Y146607D01*
X966489Y146373D01*
X966544Y146138D01*
X966594Y145901D01*
X966637Y145664D01*
X966675Y145425D01*
X966707Y145185D01*
X966733Y144945D01*
X966754Y144704D01*
X966768Y144463D01*
X966777Y144222D01*
X966780Y143980D01*
X871425Y93980D02*
X871436Y94848D01*
X871468Y95715D01*
X871521Y96581D01*
X871595Y97445D01*
X871691Y98308D01*
X871808Y99168D01*
X871946Y100024D01*
X872104Y100877D01*
X872284Y101726D01*
X872485Y102571D01*
X872706Y103410D01*
X872947Y104243D01*
X873209Y105070D01*
X873492Y105891D01*
X873794Y106704D01*
X874116Y107510D01*
X874458Y108307D01*
X874819Y109096D01*
X875200Y109876D01*
X875600Y110646D01*
X876018Y111406D01*
X876455Y112156D01*
X876910Y112895D01*
X877383Y113622D01*
X877874Y114338D01*
X878383Y115041D01*
X878908Y115732D01*
X879450Y116409D01*
X880009Y117073D01*
X880584Y117723D01*
X881174Y118359D01*
X881780Y118980D01*
X882401Y119586D01*
X883037Y120176D01*
X883687Y120751D01*
X884351Y121310D01*
X885028Y121852D01*
X885719Y122377D01*
X886422Y122886D01*
X887138Y123377D01*
X887865Y123850D01*
X888604Y124305D01*
X889354Y124742D01*
X890114Y125160D01*
X890884Y125560D01*
X891664Y125941D01*
X892453Y126302D01*
X893250Y126644D01*
X894056Y126966D01*
X894869Y127268D01*
X895690Y127551D01*
X896517Y127813D01*
X897350Y128054D01*
X898189Y128275D01*
X899034Y128476D01*
X899883Y128656D01*
X900736Y128814D01*
X901592Y128952D01*
X902452Y129069D01*
X903315Y129165D01*
X904179Y129239D01*
X905045Y129292D01*
X905912Y129324D01*
X906780Y129335D01*
X907648Y129324D01*
X908515Y129292D01*
X909381Y129239D01*
X910245Y129165D01*
X911108Y129069D01*
X911968Y128952D01*
X912824Y128814D01*
X913677Y128656D01*
X914526Y128476D01*
X915371Y128275D01*
X916210Y128054D01*
X917043Y127813D01*
X917870Y127551D01*
X918691Y127268D01*
X919504Y126966D01*
X920310Y126644D01*
X921107Y126302D01*
X921896Y125941D01*
X922676Y125560D01*
X923446Y125160D01*
X924206Y124742D01*
X924956Y124305D01*
X925695Y123850D01*
X926422Y123377D01*
X927138Y122886D01*
X927841Y122377D01*
X928532Y121852D01*
X929209Y121310D01*
X929873Y120751D01*
X930523Y120176D01*
X931159Y119586D01*
X931780Y118980D01*
X932386Y118359D01*
X932976Y117723D01*
X933551Y117073D01*
X934110Y116409D01*
X934652Y115732D01*
X935177Y115041D01*
X935686Y114338D01*
X936177Y113622D01*
X936650Y112895D01*
X937105Y112156D01*
X937542Y111406D01*
X937960Y110646D01*
X938360Y109876D01*
X938741Y109096D01*
X939102Y108307D01*
X939444Y107510D01*
X939766Y106704D01*
X940068Y105891D01*
X940351Y105070D01*
X940613Y104243D01*
X940854Y103410D01*
X941075Y102571D01*
X941276Y101726D01*
X941456Y100877D01*
X941614Y100024D01*
X941752Y99168D01*
X941869Y98308D01*
X941965Y97445D01*
X942039Y96581D01*
X942092Y95715D01*
X942124Y94848D01*
X942135Y93980D01*
X942124Y93112D01*
X942092Y92245D01*
X942039Y91379D01*
X941965Y90515D01*
X941869Y89652D01*
X941752Y88792D01*
X941614Y87936D01*
X941456Y87083D01*
X941276Y86234D01*
X941075Y85389D01*
X940854Y84550D01*
X940613Y83717D01*
X940351Y82890D01*
X940068Y82069D01*
X939766Y81256D01*
X939444Y80450D01*
X939102Y79653D01*
X938741Y78864D01*
X938360Y78084D01*
X937960Y77314D01*
X937542Y76554D01*
X937105Y75804D01*
X936650Y75065D01*
X936177Y74338D01*
X935686Y73622D01*
X935177Y72919D01*
X934652Y72228D01*
X934110Y71551D01*
X933551Y70887D01*
X932976Y70237D01*
X932386Y69601D01*
X931780Y68980D01*
X931159Y68374D01*
X930523Y67784D01*
X929873Y67209D01*
X929209Y66650D01*
X928532Y66108D01*
X927841Y65583D01*
X927138Y65074D01*
X926422Y64583D01*
X925695Y64110D01*
X924956Y63655D01*
X924206Y63218D01*
X923446Y62800D01*
X922676Y62400D01*
X921896Y62019D01*
X921107Y61658D01*
X920310Y61316D01*
X919504Y60994D01*
X918691Y60692D01*
X917870Y60409D01*
X917043Y60147D01*
X916210Y59906D01*
X915371Y59685D01*
X914526Y59484D01*
X913677Y59304D01*
X912824Y59146D01*
X911968Y59008D01*
X911108Y58891D01*
X910245Y58795D01*
X909381Y58721D01*
X908515Y58668D01*
X907648Y58636D01*
X906780Y58625D01*
X905912Y58636D01*
X905045Y58668D01*
X904179Y58721D01*
X903315Y58795D01*
X902452Y58891D01*
X901592Y59008D01*
X900736Y59146D01*
X899883Y59304D01*
X899034Y59484D01*
X898189Y59685D01*
X897350Y59906D01*
X896517Y60147D01*
X895690Y60409D01*
X894869Y60692D01*
X894056Y60994D01*
X893250Y61316D01*
X892453Y61658D01*
X891664Y62019D01*
X890884Y62400D01*
X890114Y62800D01*
X889354Y63218D01*
X888604Y63655D01*
X887865Y64110D01*
X887138Y64583D01*
X886422Y65074D01*
X885719Y65583D01*
X885028Y66108D01*
X884351Y66650D01*
X883687Y67209D01*
X883037Y67784D01*
X882401Y68374D01*
X881780Y68980D01*
X881174Y69601D01*
X880584Y70237D01*
X880009Y70887D01*
X879450Y71551D01*
X878908Y72228D01*
X878383Y72919D01*
X877874Y73622D01*
X877383Y74338D01*
X876910Y75065D01*
X876455Y75804D01*
X876018Y76554D01*
X875600Y77314D01*
X875200Y78084D01*
X874819Y78864D01*
X874458Y79653D01*
X874116Y80450D01*
X873794Y81256D01*
X873492Y82069D01*
X873209Y82890D01*
X872947Y83717D01*
X872706Y84550D01*
X872485Y85389D01*
X872284Y86234D01*
X872104Y87083D01*
X871946Y87936D01*
X871808Y88792D01*
X871691Y89652D01*
X871595Y90515D01*
X871521Y91379D01*
X871468Y92245D01*
X871436Y93112D01*
X871425Y93980D01*
X886780Y113980D02*
X926780Y113980D01*
X926780Y73980D01*
X886780Y73980D01*
X886780Y113980D01*
X846780Y131480D02*
X846780Y143980D01*
X846780Y106480D02*
X846780Y81480D01*
X846780Y56480D02*
X846780Y43980D01*
X966780Y131480D02*
X966780Y143980D01*
X966780Y106480D02*
X966780Y81480D01*
X966780Y56480D02*
X966780Y43980D01*
D14*
X860467Y164592D02*
X860564Y164594D01*
X860662Y164600D01*
X860759Y164609D01*
X860856Y164623D01*
X860952Y164640D01*
X861047Y164661D01*
X861141Y164685D01*
X861235Y164714D01*
X861327Y164746D01*
X861418Y164781D01*
X861507Y164820D01*
X861595Y164863D01*
X861681Y164909D01*
X861765Y164958D01*
X861847Y165011D01*
X861927Y165066D01*
X862005Y165125D01*
X862080Y165187D01*
X862153Y165252D01*
X862223Y165320D01*
X862291Y165390D01*
X862356Y165463D01*
X862418Y165538D01*
X862477Y165616D01*
X862532Y165696D01*
X862585Y165778D01*
X862634Y165862D01*
X862680Y165948D01*
X862723Y166036D01*
X862762Y166125D01*
X862797Y166216D01*
X862829Y166308D01*
X862858Y166402D01*
X862882Y166496D01*
X862903Y166591D01*
X862920Y166687D01*
X862934Y166784D01*
X862943Y166881D01*
X862949Y166978D01*
X862951Y167076D01*
X860467Y164592D02*
X860324Y164594D01*
X860181Y164600D01*
X860039Y164609D01*
X859897Y164623D01*
X859755Y164641D01*
X859614Y164662D01*
X859473Y164687D01*
X859333Y164716D01*
X859194Y164749D01*
X859056Y164785D01*
X858919Y164826D01*
X858783Y164870D01*
X858648Y164917D01*
X858515Y164969D01*
X858383Y165024D01*
X858253Y165082D01*
X858124Y165144D01*
X857997Y165210D01*
X857872Y165279D01*
X857749Y165351D01*
X857628Y165427D01*
X857509Y165505D01*
X857392Y165588D01*
X857277Y165673D01*
X857165Y165761D01*
X857055Y165853D01*
X856948Y165947D01*
X856843Y166044D01*
X856741Y166144D01*
X857052Y173284D02*
X857054Y173382D01*
X857060Y173479D01*
X857069Y173576D01*
X857083Y173673D01*
X857100Y173769D01*
X857121Y173864D01*
X857145Y173958D01*
X857174Y174052D01*
X857206Y174144D01*
X857241Y174235D01*
X857280Y174324D01*
X857323Y174412D01*
X857369Y174498D01*
X857418Y174582D01*
X857471Y174664D01*
X857526Y174744D01*
X857585Y174822D01*
X857647Y174897D01*
X857712Y174970D01*
X857780Y175040D01*
X857850Y175108D01*
X857923Y175173D01*
X857998Y175235D01*
X858076Y175294D01*
X858156Y175349D01*
X858238Y175402D01*
X858322Y175451D01*
X858408Y175497D01*
X858496Y175540D01*
X858585Y175579D01*
X858676Y175614D01*
X858768Y175646D01*
X858862Y175675D01*
X858956Y175699D01*
X859051Y175720D01*
X859147Y175737D01*
X859244Y175751D01*
X859341Y175760D01*
X859438Y175766D01*
X859536Y175768D01*
X859666Y175766D01*
X859796Y175761D01*
X859926Y175752D01*
X860056Y175739D01*
X860185Y175723D01*
X860314Y175703D01*
X860442Y175679D01*
X860570Y175652D01*
X860696Y175621D01*
X860822Y175587D01*
X860947Y175549D01*
X861070Y175508D01*
X861193Y175463D01*
X861314Y175415D01*
X861434Y175364D01*
X861552Y175309D01*
X861668Y175251D01*
X861783Y175190D01*
X861897Y175125D01*
X862008Y175058D01*
X862117Y174987D01*
X862225Y174913D01*
X862330Y174837D01*
X858295Y171111D02*
X858212Y171162D01*
X858131Y171216D01*
X858053Y171273D01*
X857977Y171333D01*
X857903Y171396D01*
X857832Y171462D01*
X857763Y171530D01*
X857697Y171601D01*
X857633Y171674D01*
X857573Y171750D01*
X857516Y171828D01*
X857461Y171909D01*
X857410Y171991D01*
X857362Y172075D01*
X857317Y172161D01*
X857275Y172249D01*
X857237Y172338D01*
X857203Y172428D01*
X857171Y172520D01*
X857144Y172613D01*
X857120Y172707D01*
X857099Y172802D01*
X857083Y172898D01*
X857070Y172994D01*
X857060Y173090D01*
X857055Y173187D01*
X857053Y173284D01*
X861708Y169249D02*
X861791Y169198D01*
X861872Y169144D01*
X861950Y169087D01*
X862026Y169027D01*
X862100Y168964D01*
X862171Y168898D01*
X862240Y168830D01*
X862306Y168759D01*
X862370Y168686D01*
X862430Y168610D01*
X862487Y168532D01*
X862542Y168451D01*
X862593Y168369D01*
X862641Y168285D01*
X862686Y168199D01*
X862728Y168111D01*
X862766Y168022D01*
X862800Y167932D01*
X862832Y167840D01*
X862859Y167747D01*
X862883Y167653D01*
X862904Y167558D01*
X862920Y167462D01*
X862933Y167366D01*
X862943Y167270D01*
X862948Y167173D01*
X862950Y167076D01*
X861709Y169249D02*
X858294Y171111D01*
X867452Y175768D02*
X869936Y164592D01*
X872419Y172043D01*
X874903Y164592D01*
X877387Y175768D01*
X885684Y175768D02*
X885788Y175766D01*
X885893Y175760D01*
X885997Y175750D01*
X886100Y175737D01*
X886203Y175719D01*
X886306Y175698D01*
X886407Y175673D01*
X886508Y175644D01*
X886607Y175611D01*
X886705Y175575D01*
X886801Y175535D01*
X886896Y175491D01*
X886990Y175444D01*
X887081Y175394D01*
X887170Y175340D01*
X887258Y175283D01*
X887343Y175222D01*
X887426Y175158D01*
X887506Y175092D01*
X887584Y175022D01*
X887660Y174950D01*
X887732Y174874D01*
X887802Y174796D01*
X887868Y174716D01*
X887932Y174633D01*
X887993Y174548D01*
X888050Y174460D01*
X888104Y174371D01*
X888154Y174280D01*
X888201Y174186D01*
X888245Y174091D01*
X888285Y173995D01*
X888321Y173897D01*
X888354Y173798D01*
X888383Y173697D01*
X888408Y173596D01*
X888429Y173493D01*
X888447Y173390D01*
X888460Y173287D01*
X888470Y173183D01*
X888476Y173078D01*
X888478Y172974D01*
X885684Y175769D02*
X885565Y175767D01*
X885447Y175761D01*
X885328Y175751D01*
X885210Y175738D01*
X885093Y175720D01*
X884976Y175698D01*
X884860Y175673D01*
X884745Y175644D01*
X884630Y175611D01*
X884517Y175574D01*
X884406Y175534D01*
X884295Y175490D01*
X884187Y175442D01*
X884080Y175391D01*
X883974Y175336D01*
X883871Y175277D01*
X883769Y175216D01*
X883670Y175151D01*
X883572Y175082D01*
X883478Y175011D01*
X883385Y174936D01*
X883295Y174859D01*
X883208Y174778D01*
X883123Y174695D01*
X883041Y174609D01*
X882962Y174520D01*
X882886Y174429D01*
X882813Y174335D01*
X882744Y174239D01*
X882677Y174140D01*
X882614Y174040D01*
X882554Y173937D01*
X882497Y173833D01*
X882445Y173726D01*
X882395Y173618D01*
X882349Y173509D01*
X882307Y173397D01*
X882269Y173285D01*
X887547Y170801D02*
X887622Y170875D01*
X887694Y170952D01*
X887764Y171031D01*
X887831Y171113D01*
X887895Y171197D01*
X887956Y171283D01*
X888014Y171371D01*
X888069Y171462D01*
X888121Y171554D01*
X888169Y171648D01*
X888214Y171743D01*
X888256Y171841D01*
X888294Y171939D01*
X888329Y172039D01*
X888360Y172140D01*
X888387Y172242D01*
X888411Y172345D01*
X888432Y172448D01*
X888448Y172553D01*
X888461Y172658D01*
X888471Y172763D01*
X888476Y172868D01*
X888478Y172974D01*
X887547Y170801D02*
X882269Y164592D01*
X888478Y164592D01*
X733552Y938022D02*
X733552Y949198D01*
X736656Y949198D01*
X736767Y949196D01*
X736877Y949190D01*
X736988Y949180D01*
X737098Y949166D01*
X737207Y949149D01*
X737316Y949127D01*
X737424Y949102D01*
X737530Y949072D01*
X737636Y949039D01*
X737741Y949002D01*
X737844Y948962D01*
X737945Y948917D01*
X738045Y948870D01*
X738144Y948818D01*
X738240Y948763D01*
X738334Y948705D01*
X738426Y948644D01*
X738516Y948579D01*
X738604Y948511D01*
X738689Y948440D01*
X738771Y948366D01*
X738851Y948289D01*
X738928Y948209D01*
X739002Y948127D01*
X739073Y948042D01*
X739141Y947954D01*
X739206Y947864D01*
X739267Y947772D01*
X739325Y947678D01*
X739380Y947582D01*
X739432Y947483D01*
X739479Y947383D01*
X739524Y947282D01*
X739564Y947179D01*
X739601Y947074D01*
X739634Y946968D01*
X739664Y946862D01*
X739689Y946754D01*
X739711Y946645D01*
X739728Y946536D01*
X739742Y946426D01*
X739752Y946315D01*
X739758Y946205D01*
X739760Y946094D01*
X739758Y945983D01*
X739752Y945873D01*
X739742Y945762D01*
X739728Y945652D01*
X739711Y945543D01*
X739689Y945434D01*
X739664Y945326D01*
X739634Y945220D01*
X739601Y945114D01*
X739564Y945009D01*
X739524Y944906D01*
X739479Y944805D01*
X739432Y944705D01*
X739380Y944606D01*
X739325Y944510D01*
X739267Y944416D01*
X739206Y944324D01*
X739141Y944234D01*
X739073Y944146D01*
X739002Y944061D01*
X738928Y943979D01*
X738851Y943899D01*
X738771Y943822D01*
X738689Y943748D01*
X738604Y943677D01*
X738516Y943609D01*
X738426Y943544D01*
X738334Y943483D01*
X738240Y943425D01*
X738144Y943370D01*
X738045Y943318D01*
X737945Y943271D01*
X737844Y943226D01*
X737741Y943186D01*
X737636Y943149D01*
X737530Y943116D01*
X737424Y943086D01*
X737316Y943061D01*
X737207Y943039D01*
X737098Y943022D01*
X736988Y943008D01*
X736877Y942998D01*
X736767Y942992D01*
X736656Y942990D01*
X736656Y942989D02*
X733552Y942989D01*
X737277Y942989D02*
X739761Y938022D01*
X744890Y938022D02*
X747994Y938022D01*
X748105Y938024D01*
X748215Y938030D01*
X748326Y938040D01*
X748436Y938054D01*
X748545Y938071D01*
X748654Y938093D01*
X748762Y938118D01*
X748868Y938148D01*
X748974Y938181D01*
X749079Y938218D01*
X749182Y938258D01*
X749283Y938303D01*
X749383Y938350D01*
X749482Y938402D01*
X749578Y938457D01*
X749672Y938515D01*
X749764Y938576D01*
X749854Y938641D01*
X749942Y938709D01*
X750027Y938780D01*
X750109Y938854D01*
X750189Y938931D01*
X750266Y939011D01*
X750340Y939093D01*
X750411Y939178D01*
X750479Y939266D01*
X750544Y939356D01*
X750605Y939448D01*
X750663Y939542D01*
X750718Y939638D01*
X750770Y939737D01*
X750817Y939837D01*
X750862Y939938D01*
X750902Y940041D01*
X750939Y940146D01*
X750972Y940252D01*
X751002Y940358D01*
X751027Y940466D01*
X751049Y940575D01*
X751066Y940684D01*
X751080Y940794D01*
X751090Y940905D01*
X751096Y941015D01*
X751098Y941126D01*
X751096Y941237D01*
X751090Y941347D01*
X751080Y941458D01*
X751066Y941568D01*
X751049Y941677D01*
X751027Y941786D01*
X751002Y941894D01*
X750972Y942000D01*
X750939Y942106D01*
X750902Y942211D01*
X750862Y942314D01*
X750817Y942415D01*
X750770Y942515D01*
X750718Y942614D01*
X750663Y942710D01*
X750605Y942804D01*
X750544Y942896D01*
X750479Y942986D01*
X750411Y943074D01*
X750340Y943159D01*
X750266Y943241D01*
X750189Y943321D01*
X750109Y943398D01*
X750027Y943472D01*
X749942Y943543D01*
X749854Y943611D01*
X749764Y943676D01*
X749672Y943737D01*
X749578Y943795D01*
X749482Y943850D01*
X749383Y943902D01*
X749283Y943949D01*
X749182Y943994D01*
X749079Y944034D01*
X748974Y944071D01*
X748868Y944104D01*
X748762Y944134D01*
X748654Y944159D01*
X748545Y944181D01*
X748436Y944198D01*
X748326Y944212D01*
X748215Y944222D01*
X748105Y944228D01*
X747994Y944230D01*
X748615Y949198D02*
X744890Y949198D01*
X748615Y949198D02*
X748714Y949196D01*
X748812Y949190D01*
X748911Y949180D01*
X749008Y949167D01*
X749106Y949149D01*
X749202Y949128D01*
X749298Y949102D01*
X749392Y949073D01*
X749485Y949041D01*
X749577Y949004D01*
X749667Y948964D01*
X749756Y948920D01*
X749843Y948873D01*
X749928Y948823D01*
X750010Y948769D01*
X750091Y948712D01*
X750169Y948652D01*
X750245Y948588D01*
X750318Y948522D01*
X750389Y948453D01*
X750457Y948381D01*
X750521Y948306D01*
X750583Y948229D01*
X750642Y948150D01*
X750697Y948068D01*
X750750Y947984D01*
X750798Y947899D01*
X750844Y947811D01*
X750886Y947721D01*
X750924Y947630D01*
X750958Y947538D01*
X750989Y947444D01*
X751016Y947349D01*
X751040Y947253D01*
X751059Y947156D01*
X751075Y947059D01*
X751087Y946961D01*
X751095Y946862D01*
X751099Y946763D01*
X751099Y946665D01*
X751095Y946566D01*
X751087Y946467D01*
X751075Y946369D01*
X751059Y946272D01*
X751040Y946175D01*
X751016Y946079D01*
X750989Y945984D01*
X750958Y945890D01*
X750924Y945798D01*
X750886Y945707D01*
X750844Y945617D01*
X750798Y945529D01*
X750750Y945444D01*
X750697Y945360D01*
X750642Y945278D01*
X750583Y945199D01*
X750521Y945122D01*
X750457Y945047D01*
X750389Y944975D01*
X750318Y944906D01*
X750245Y944840D01*
X750169Y944776D01*
X750091Y944716D01*
X750010Y944659D01*
X749928Y944605D01*
X749843Y944555D01*
X749756Y944508D01*
X749667Y944464D01*
X749577Y944424D01*
X749485Y944387D01*
X749392Y944355D01*
X749298Y944326D01*
X749202Y944300D01*
X749106Y944279D01*
X749008Y944261D01*
X748911Y944248D01*
X748812Y944238D01*
X748714Y944232D01*
X748615Y944230D01*
X748615Y944231D02*
X746132Y944231D01*
X819912Y940562D02*
X819912Y951738D01*
X823016Y951738D01*
X823127Y951736D01*
X823237Y951730D01*
X823348Y951720D01*
X823458Y951706D01*
X823567Y951689D01*
X823676Y951667D01*
X823784Y951642D01*
X823890Y951612D01*
X823996Y951579D01*
X824101Y951542D01*
X824204Y951502D01*
X824305Y951457D01*
X824405Y951410D01*
X824504Y951358D01*
X824600Y951303D01*
X824694Y951245D01*
X824786Y951184D01*
X824876Y951119D01*
X824964Y951051D01*
X825049Y950980D01*
X825131Y950906D01*
X825211Y950829D01*
X825288Y950749D01*
X825362Y950667D01*
X825433Y950582D01*
X825501Y950494D01*
X825566Y950404D01*
X825627Y950312D01*
X825685Y950218D01*
X825740Y950122D01*
X825792Y950023D01*
X825839Y949923D01*
X825884Y949822D01*
X825924Y949719D01*
X825961Y949614D01*
X825994Y949508D01*
X826024Y949402D01*
X826049Y949294D01*
X826071Y949185D01*
X826088Y949076D01*
X826102Y948966D01*
X826112Y948855D01*
X826118Y948745D01*
X826120Y948634D01*
X826118Y948523D01*
X826112Y948413D01*
X826102Y948302D01*
X826088Y948192D01*
X826071Y948083D01*
X826049Y947974D01*
X826024Y947866D01*
X825994Y947760D01*
X825961Y947654D01*
X825924Y947549D01*
X825884Y947446D01*
X825839Y947345D01*
X825792Y947245D01*
X825740Y947146D01*
X825685Y947050D01*
X825627Y946956D01*
X825566Y946864D01*
X825501Y946774D01*
X825433Y946686D01*
X825362Y946601D01*
X825288Y946519D01*
X825211Y946439D01*
X825131Y946362D01*
X825049Y946288D01*
X824964Y946217D01*
X824876Y946149D01*
X824786Y946084D01*
X824694Y946023D01*
X824600Y945965D01*
X824504Y945910D01*
X824405Y945858D01*
X824305Y945811D01*
X824204Y945766D01*
X824101Y945726D01*
X823996Y945689D01*
X823890Y945656D01*
X823784Y945626D01*
X823676Y945601D01*
X823567Y945579D01*
X823458Y945562D01*
X823348Y945548D01*
X823237Y945538D01*
X823127Y945532D01*
X823016Y945530D01*
X823016Y945529D02*
X819912Y945529D01*
X823637Y945529D02*
X826121Y940562D01*
X831250Y943046D02*
X833734Y951738D01*
X831250Y943046D02*
X837459Y943046D01*
X835596Y945529D02*
X835596Y940562D01*
D15*
X1219200Y162560D02*
X1219200Y152400D01*
D14*
X1207262Y177292D02*
X1207262Y188468D01*
X1210366Y188468D01*
X1210477Y188466D01*
X1210587Y188460D01*
X1210698Y188450D01*
X1210808Y188436D01*
X1210917Y188419D01*
X1211026Y188397D01*
X1211134Y188372D01*
X1211240Y188342D01*
X1211346Y188309D01*
X1211451Y188272D01*
X1211554Y188232D01*
X1211655Y188187D01*
X1211755Y188140D01*
X1211854Y188088D01*
X1211950Y188033D01*
X1212044Y187975D01*
X1212136Y187914D01*
X1212226Y187849D01*
X1212314Y187781D01*
X1212399Y187710D01*
X1212481Y187636D01*
X1212561Y187559D01*
X1212638Y187479D01*
X1212712Y187397D01*
X1212783Y187312D01*
X1212851Y187224D01*
X1212916Y187134D01*
X1212977Y187042D01*
X1213035Y186948D01*
X1213090Y186852D01*
X1213142Y186753D01*
X1213189Y186653D01*
X1213234Y186552D01*
X1213274Y186449D01*
X1213311Y186344D01*
X1213344Y186238D01*
X1213374Y186132D01*
X1213399Y186024D01*
X1213421Y185915D01*
X1213438Y185806D01*
X1213452Y185696D01*
X1213462Y185585D01*
X1213468Y185475D01*
X1213470Y185364D01*
X1213468Y185253D01*
X1213462Y185143D01*
X1213452Y185032D01*
X1213438Y184922D01*
X1213421Y184813D01*
X1213399Y184704D01*
X1213374Y184596D01*
X1213344Y184490D01*
X1213311Y184384D01*
X1213274Y184279D01*
X1213234Y184176D01*
X1213189Y184075D01*
X1213142Y183975D01*
X1213090Y183876D01*
X1213035Y183780D01*
X1212977Y183686D01*
X1212916Y183594D01*
X1212851Y183504D01*
X1212783Y183416D01*
X1212712Y183331D01*
X1212638Y183249D01*
X1212561Y183169D01*
X1212481Y183092D01*
X1212399Y183018D01*
X1212314Y182947D01*
X1212226Y182879D01*
X1212136Y182814D01*
X1212044Y182753D01*
X1211950Y182695D01*
X1211854Y182640D01*
X1211755Y182588D01*
X1211655Y182541D01*
X1211554Y182496D01*
X1211451Y182456D01*
X1211346Y182419D01*
X1211240Y182386D01*
X1211134Y182356D01*
X1211026Y182331D01*
X1210917Y182309D01*
X1210808Y182292D01*
X1210698Y182278D01*
X1210587Y182268D01*
X1210477Y182262D01*
X1210366Y182260D01*
X1210366Y182259D02*
X1207262Y182259D01*
X1210987Y182259D02*
X1213471Y177292D01*
X1218600Y177292D02*
X1222325Y177292D01*
X1222423Y177294D01*
X1222520Y177300D01*
X1222617Y177309D01*
X1222714Y177323D01*
X1222810Y177340D01*
X1222905Y177361D01*
X1222999Y177385D01*
X1223093Y177414D01*
X1223185Y177446D01*
X1223276Y177481D01*
X1223365Y177520D01*
X1223453Y177563D01*
X1223539Y177609D01*
X1223623Y177658D01*
X1223705Y177711D01*
X1223785Y177766D01*
X1223863Y177825D01*
X1223938Y177887D01*
X1224011Y177952D01*
X1224081Y178020D01*
X1224149Y178090D01*
X1224214Y178163D01*
X1224276Y178238D01*
X1224335Y178316D01*
X1224390Y178396D01*
X1224443Y178478D01*
X1224492Y178562D01*
X1224538Y178648D01*
X1224581Y178736D01*
X1224620Y178825D01*
X1224655Y178916D01*
X1224687Y179008D01*
X1224716Y179102D01*
X1224740Y179196D01*
X1224761Y179291D01*
X1224778Y179387D01*
X1224792Y179484D01*
X1224801Y179581D01*
X1224807Y179678D01*
X1224809Y179776D01*
X1224809Y181017D01*
X1224807Y181115D01*
X1224801Y181212D01*
X1224792Y181309D01*
X1224778Y181406D01*
X1224761Y181502D01*
X1224740Y181597D01*
X1224716Y181691D01*
X1224687Y181785D01*
X1224655Y181877D01*
X1224620Y181968D01*
X1224581Y182057D01*
X1224538Y182145D01*
X1224492Y182231D01*
X1224443Y182315D01*
X1224390Y182397D01*
X1224335Y182477D01*
X1224276Y182555D01*
X1224214Y182630D01*
X1224149Y182703D01*
X1224081Y182773D01*
X1224011Y182841D01*
X1223938Y182906D01*
X1223863Y182968D01*
X1223785Y183027D01*
X1223705Y183082D01*
X1223623Y183135D01*
X1223539Y183184D01*
X1223453Y183230D01*
X1223365Y183273D01*
X1223276Y183312D01*
X1223185Y183347D01*
X1223093Y183379D01*
X1222999Y183408D01*
X1222905Y183432D01*
X1222810Y183453D01*
X1222714Y183470D01*
X1222617Y183484D01*
X1222520Y183493D01*
X1222423Y183499D01*
X1222325Y183501D01*
X1218600Y183501D01*
X1218600Y188468D01*
X1224809Y188468D01*
D16*
X927860Y941339D02*
X889261Y941339D01*
X889261Y917941D01*
X927860Y917941D01*
D14*
X901580Y954801D02*
X901580Y965977D01*
X904685Y965977D01*
X904796Y965975D01*
X904906Y965969D01*
X905017Y965959D01*
X905127Y965945D01*
X905236Y965928D01*
X905345Y965906D01*
X905453Y965881D01*
X905559Y965851D01*
X905665Y965818D01*
X905770Y965781D01*
X905873Y965741D01*
X905974Y965696D01*
X906074Y965649D01*
X906173Y965597D01*
X906269Y965542D01*
X906363Y965484D01*
X906455Y965423D01*
X906545Y965358D01*
X906633Y965290D01*
X906718Y965219D01*
X906800Y965145D01*
X906880Y965068D01*
X906957Y964988D01*
X907031Y964906D01*
X907102Y964821D01*
X907170Y964733D01*
X907235Y964643D01*
X907296Y964551D01*
X907354Y964457D01*
X907409Y964361D01*
X907461Y964262D01*
X907508Y964162D01*
X907553Y964061D01*
X907593Y963958D01*
X907630Y963853D01*
X907663Y963747D01*
X907693Y963641D01*
X907718Y963533D01*
X907740Y963424D01*
X907757Y963315D01*
X907771Y963205D01*
X907781Y963094D01*
X907787Y962984D01*
X907789Y962873D01*
X907789Y957905D01*
X907787Y957794D01*
X907781Y957684D01*
X907771Y957573D01*
X907757Y957463D01*
X907740Y957354D01*
X907718Y957245D01*
X907693Y957137D01*
X907663Y957031D01*
X907630Y956925D01*
X907593Y956820D01*
X907553Y956717D01*
X907508Y956616D01*
X907461Y956516D01*
X907409Y956417D01*
X907354Y956321D01*
X907296Y956227D01*
X907235Y956135D01*
X907170Y956045D01*
X907102Y955957D01*
X907031Y955872D01*
X906957Y955790D01*
X906880Y955710D01*
X906800Y955633D01*
X906718Y955559D01*
X906633Y955488D01*
X906545Y955420D01*
X906455Y955355D01*
X906363Y955294D01*
X906269Y955236D01*
X906173Y955181D01*
X906074Y955129D01*
X905974Y955082D01*
X905873Y955037D01*
X905770Y954997D01*
X905665Y954960D01*
X905559Y954927D01*
X905453Y954897D01*
X905345Y954872D01*
X905236Y954850D01*
X905127Y954833D01*
X905017Y954819D01*
X904906Y954809D01*
X904796Y954803D01*
X904685Y954801D01*
X901580Y954801D01*
X913391Y957285D02*
X915875Y965977D01*
X913391Y957285D02*
X919600Y957285D01*
X917737Y959768D02*
X917737Y954801D01*
D16*
X968001Y941339D02*
X1006600Y941339D01*
X968001Y941339D02*
X968001Y917941D01*
X1006600Y917941D01*
D14*
X980320Y954801D02*
X980320Y965977D01*
X983425Y965977D01*
X983536Y965975D01*
X983646Y965969D01*
X983757Y965959D01*
X983867Y965945D01*
X983976Y965928D01*
X984085Y965906D01*
X984193Y965881D01*
X984299Y965851D01*
X984405Y965818D01*
X984510Y965781D01*
X984613Y965741D01*
X984714Y965696D01*
X984814Y965649D01*
X984913Y965597D01*
X985009Y965542D01*
X985103Y965484D01*
X985195Y965423D01*
X985285Y965358D01*
X985373Y965290D01*
X985458Y965219D01*
X985540Y965145D01*
X985620Y965068D01*
X985697Y964988D01*
X985771Y964906D01*
X985842Y964821D01*
X985910Y964733D01*
X985975Y964643D01*
X986036Y964551D01*
X986094Y964457D01*
X986149Y964361D01*
X986201Y964262D01*
X986248Y964162D01*
X986293Y964061D01*
X986333Y963958D01*
X986370Y963853D01*
X986403Y963747D01*
X986433Y963641D01*
X986458Y963533D01*
X986480Y963424D01*
X986497Y963315D01*
X986511Y963205D01*
X986521Y963094D01*
X986527Y962984D01*
X986529Y962873D01*
X986529Y957905D01*
X986527Y957794D01*
X986521Y957684D01*
X986511Y957573D01*
X986497Y957463D01*
X986480Y957354D01*
X986458Y957245D01*
X986433Y957137D01*
X986403Y957031D01*
X986370Y956925D01*
X986333Y956820D01*
X986293Y956717D01*
X986248Y956616D01*
X986201Y956516D01*
X986149Y956417D01*
X986094Y956321D01*
X986036Y956227D01*
X985975Y956135D01*
X985910Y956045D01*
X985842Y955957D01*
X985771Y955872D01*
X985697Y955790D01*
X985620Y955710D01*
X985540Y955633D01*
X985458Y955559D01*
X985373Y955488D01*
X985285Y955420D01*
X985195Y955355D01*
X985103Y955294D01*
X985009Y955236D01*
X984913Y955181D01*
X984814Y955129D01*
X984714Y955082D01*
X984613Y955037D01*
X984510Y954997D01*
X984405Y954960D01*
X984299Y954927D01*
X984193Y954897D01*
X984085Y954872D01*
X983976Y954850D01*
X983867Y954833D01*
X983757Y954819D01*
X983646Y954809D01*
X983536Y954803D01*
X983425Y954801D01*
X980320Y954801D01*
X992131Y963493D02*
X995236Y965977D01*
X995236Y954801D01*
X998340Y954801D02*
X992131Y954801D01*
D16*
X1051821Y940069D02*
X1090420Y940069D01*
X1051821Y940069D02*
X1051821Y916671D01*
X1090420Y916671D01*
D14*
X1064140Y953531D02*
X1064140Y964707D01*
X1067245Y964707D01*
X1067356Y964705D01*
X1067466Y964699D01*
X1067577Y964689D01*
X1067687Y964675D01*
X1067796Y964658D01*
X1067905Y964636D01*
X1068013Y964611D01*
X1068119Y964581D01*
X1068225Y964548D01*
X1068330Y964511D01*
X1068433Y964471D01*
X1068534Y964426D01*
X1068634Y964379D01*
X1068733Y964327D01*
X1068829Y964272D01*
X1068923Y964214D01*
X1069015Y964153D01*
X1069105Y964088D01*
X1069193Y964020D01*
X1069278Y963949D01*
X1069360Y963875D01*
X1069440Y963798D01*
X1069517Y963718D01*
X1069591Y963636D01*
X1069662Y963551D01*
X1069730Y963463D01*
X1069795Y963373D01*
X1069856Y963281D01*
X1069914Y963187D01*
X1069969Y963091D01*
X1070021Y962992D01*
X1070068Y962892D01*
X1070113Y962791D01*
X1070153Y962688D01*
X1070190Y962583D01*
X1070223Y962477D01*
X1070253Y962371D01*
X1070278Y962263D01*
X1070300Y962154D01*
X1070317Y962045D01*
X1070331Y961935D01*
X1070341Y961824D01*
X1070347Y961714D01*
X1070349Y961603D01*
X1070349Y956635D01*
X1070347Y956524D01*
X1070341Y956414D01*
X1070331Y956303D01*
X1070317Y956193D01*
X1070300Y956084D01*
X1070278Y955975D01*
X1070253Y955867D01*
X1070223Y955761D01*
X1070190Y955655D01*
X1070153Y955550D01*
X1070113Y955447D01*
X1070068Y955346D01*
X1070021Y955246D01*
X1069969Y955147D01*
X1069914Y955051D01*
X1069856Y954957D01*
X1069795Y954865D01*
X1069730Y954775D01*
X1069662Y954687D01*
X1069591Y954602D01*
X1069517Y954520D01*
X1069440Y954440D01*
X1069360Y954363D01*
X1069278Y954289D01*
X1069193Y954218D01*
X1069105Y954150D01*
X1069015Y954085D01*
X1068923Y954024D01*
X1068829Y953966D01*
X1068733Y953911D01*
X1068634Y953859D01*
X1068534Y953812D01*
X1068433Y953767D01*
X1068330Y953727D01*
X1068225Y953690D01*
X1068119Y953657D01*
X1068013Y953627D01*
X1067905Y953602D01*
X1067796Y953580D01*
X1067687Y953563D01*
X1067577Y953549D01*
X1067466Y953539D01*
X1067356Y953533D01*
X1067245Y953531D01*
X1064140Y953531D01*
X1079366Y964707D02*
X1079470Y964705D01*
X1079575Y964699D01*
X1079679Y964689D01*
X1079782Y964676D01*
X1079885Y964658D01*
X1079988Y964637D01*
X1080089Y964612D01*
X1080190Y964583D01*
X1080289Y964550D01*
X1080387Y964514D01*
X1080483Y964474D01*
X1080578Y964430D01*
X1080672Y964383D01*
X1080763Y964333D01*
X1080852Y964279D01*
X1080940Y964222D01*
X1081025Y964161D01*
X1081108Y964097D01*
X1081188Y964031D01*
X1081266Y963961D01*
X1081342Y963889D01*
X1081414Y963813D01*
X1081484Y963735D01*
X1081550Y963655D01*
X1081614Y963572D01*
X1081675Y963487D01*
X1081732Y963399D01*
X1081786Y963310D01*
X1081836Y963219D01*
X1081883Y963125D01*
X1081927Y963030D01*
X1081967Y962934D01*
X1082003Y962836D01*
X1082036Y962737D01*
X1082065Y962636D01*
X1082090Y962535D01*
X1082111Y962432D01*
X1082129Y962329D01*
X1082142Y962226D01*
X1082152Y962122D01*
X1082158Y962017D01*
X1082160Y961913D01*
X1079366Y964708D02*
X1079247Y964706D01*
X1079129Y964700D01*
X1079010Y964690D01*
X1078892Y964677D01*
X1078775Y964659D01*
X1078658Y964637D01*
X1078542Y964612D01*
X1078427Y964583D01*
X1078312Y964550D01*
X1078199Y964513D01*
X1078088Y964473D01*
X1077977Y964429D01*
X1077869Y964381D01*
X1077762Y964330D01*
X1077656Y964275D01*
X1077553Y964216D01*
X1077451Y964155D01*
X1077352Y964090D01*
X1077254Y964021D01*
X1077160Y963950D01*
X1077067Y963875D01*
X1076977Y963798D01*
X1076890Y963717D01*
X1076805Y963634D01*
X1076723Y963548D01*
X1076644Y963459D01*
X1076568Y963368D01*
X1076495Y963274D01*
X1076426Y963178D01*
X1076359Y963079D01*
X1076296Y962979D01*
X1076236Y962876D01*
X1076179Y962772D01*
X1076127Y962665D01*
X1076077Y962557D01*
X1076031Y962448D01*
X1075989Y962336D01*
X1075951Y962224D01*
X1081229Y959740D02*
X1081304Y959814D01*
X1081376Y959891D01*
X1081446Y959970D01*
X1081513Y960052D01*
X1081577Y960136D01*
X1081638Y960222D01*
X1081696Y960310D01*
X1081751Y960401D01*
X1081803Y960493D01*
X1081851Y960587D01*
X1081896Y960682D01*
X1081938Y960780D01*
X1081976Y960878D01*
X1082011Y960978D01*
X1082042Y961079D01*
X1082069Y961181D01*
X1082093Y961284D01*
X1082114Y961387D01*
X1082130Y961492D01*
X1082143Y961597D01*
X1082153Y961702D01*
X1082158Y961807D01*
X1082160Y961913D01*
X1081229Y959740D02*
X1075951Y953531D01*
X1082160Y953531D01*
M02*
